<?xml version="1.0" encoding="utf-8"?>
<!-- Generator: Adobe Illustrator 24.0.2, SVG Export Plug-In . SVG Version: 6.00 Build 0)  -->
<svg version="1.1" id="Layer_1" xmlns="http://www.w3.org/2000/svg" xmlns:xlink="http://www.w3.org/1999/xlink" x="0px" y="0px"
	 viewBox="0 0 78.3 44.9" style="enable-background:new 0 0 78.3 44.9;" xml:space="preserve">
<style type="text/css">
	.st0{fill:#FFFFFF;}
</style>
<g>
	<path class="st0" d="M30.4,0C13.6,0,0,13.6,0,30.4c0,4.7,1.1,9.3,3.2,13.5c0.2,0.4,0.6,0.7,1,0.9c0.4,0.1,0.9,0.1,1.3-0.1l6.5-3.4
		c0.8-0.5,1.2-1.5,0.7-2.4c-0.5-0.8-1.5-1.2-2.4-0.7l-4.9,2.6C4.2,37.5,3.5,34,3.5,30.4c0-14.8,12.1-26.9,26.9-26.9
		c14.8,0,26.9,12.1,26.9,26.9c0,3.6-0.7,7.1-2.1,10.4l-5.4-2.7c-0.9-0.4-1.9-0.1-2.3,0.8c-0.4,0.9-0.1,1.9,0.8,2.3l7,3.4
		c0.2,0.1,0.5,0.2,0.8,0.2c0.6,0,1.3-0.4,1.6-1c2.1-4.2,3.2-8.8,3.2-13.5C60.8,13.6,47.1,0,30.4,0z"/>
	<path class="st0" d="M28.6,13.1c7.9,0,13.4,6.7,14.7,13.4c0.1,0.6,0.5,1,1,1.3l6.2,2.6c0.6,0.2,1.2,0.2,1.7-0.2
		c0.5-0.4,0.8-0.9,0.7-1.5c-0.8-11.8-10.7-21-22.6-21c-11,0-20.2,7.8-22.3,18.1c0,0.1-0.1,0.3-0.1,0.4c0,0.1,0,0.1,0,0.2
		c-0.2,1.2-0.3,2.4-0.3,3.6c0,1,0.1,2.4,0.3,3.7c0.1,0.9,0.9,1.5,1.7,1.5c0.1,0,0.2,0,0.3,0c1-0.1,1.6-1,1.5-2
		c-0.2-1.1-0.3-2.3-0.3-3.2c0-1.2,0.1-2.4,0.3-3.6C13.6,16.6,22,13.1,28.6,13.1z"/>
	<path class="st0" d="M43.5,14.6c0.1-0.4,0-0.8-0.4-1.1c-0.4-0.3-1-0.2-1.3,0.1L27,30.4c0,0,0,0.1-0.1,0.1c-0.6,0.8-0.8,1.8-0.6,2.6
		c0.2,0.8,0.7,1.5,1.4,1.9c1.5,0.9,3.2,0.5,4.2-1c0,0,0,0,0-0.1l11.4-19.2C43.4,14.7,43.4,14.7,43.5,14.6z"/>
	<path class="st0" d="M66.5,11h-3.2c-0.7,0-1-0.8-0.6-1.3l7.1-7.9c0.3-0.3,0.9-0.3,1.2,0l7.1,7.9c0.5,0.5,0.1,1.3-0.6,1.3h-3.2v6.3
		c0,0.4-0.4,0.8-0.8,0.8h-6.3c-0.4,0-0.8-0.4-0.8-0.8V11z M66.5,20.5c0-0.4,0.4-0.8,0.8-0.8h6.3c0.4,0,0.8,0.4,0.8,0.8v3.9
		c0,0.4-0.4,0.8-0.8,0.8h-6.3c-0.4,0-0.8-0.4-0.8-0.8V20.5z M67.3,28.4c-0.4,0-0.8-0.4-0.8-0.8s0.4-0.8,0.8-0.8h6.3
		c0.4,0,0.8,0.4,0.8,0.8s-0.4,0.8-0.8,0.8H67.3z"/>
</g>
</svg>
