<?xml version="1.0" encoding="utf-8"?>
<!-- Generator: Adobe Illustrator 24.0.2, SVG Export Plug-In . SVG Version: 6.00 Build 0)  -->
<svg version="1.1" id="Layer_1" xmlns="http://www.w3.org/2000/svg" xmlns:xlink="http://www.w3.org/1999/xlink" x="0px" y="0px"
	 viewBox="0 0 90.3 42.3" style="enable-background:new 0 0 90.3 42.3;" xml:space="preserve">
<style type="text/css">
	.st0{fill:#FFFFFF;}
</style>
<g>
	<path class="st0" d="M4.3,26.1H1.6c-0.9,0-1.6-0.7-1.6-1.6v-6.7c0-0.9,0.7-1.6,1.6-1.6h2.7c0.9,0,1.6,0.7,1.6,1.6v6.7
		C6,25.4,5.2,26.1,4.3,26.1z"/>
	<path class="st0" d="M28.2,26.1h-2.7c-0.9,0-1.6-0.7-1.6-1.6v-6.7c0-0.9,0.7-1.6,1.6-1.6h2.7c0.9,0,1.6,0.7,1.6,1.6v6.7
		C29.9,25.4,29.1,26.1,28.2,26.1z"/>
	<path class="st0" d="M16.3,26.1h-2.7c-0.9,0-1.6-0.7-1.6-1.6v-6.7c0-0.9,0.7-1.6,1.6-1.6h2.7c0.9,0,1.6,0.7,1.6,1.6v6.7
		C17.9,25.4,17.2,26.1,16.3,26.1z"/>
	<path class="st0" d="M41.8,26.1h29.6c0.7,0,1.1,0.8,0.6,1.3l-6.4,6.3c-1.9,1.9-1.9,5.1,0,7l0,0c1.9,1.9,5.1,1.9,7,0l16.2-16.2
		c1.9-1.9,1.9-5.1,0-7L72.6,1.5c-1.9-1.9-5.1-1.9-7,0v0c-1.9,1.9-1.9,5.1,0,7l6.4,6.3c0.5,0.5,0.1,1.3-0.6,1.3H41.8h-0.2h-5
		c-0.4,0-0.8,0.4-0.8,0.8v8.4c0,0.4,0.4,0.8,0.8,0.8h5H41.8z"/>
</g>
</svg>
