<?xml version="1.0" encoding="utf-8"?>
<!-- Generator: Adobe Illustrator 24.0.2, SVG Export Plug-In . SVG Version: 6.00 Build 0)  -->
<svg version="1.1" id="Layer_1" xmlns="http://www.w3.org/2000/svg" xmlns:xlink="http://www.w3.org/1999/xlink" x="0px" y="0px"
	 viewBox="0 0 96.7 55.6" style="enable-background:new 0 0 96.7 55.6;" xml:space="preserve">
<style type="text/css">
	.st0{fill:#FFFFFF;}
</style>
<g>
	<g>
		<g>
			<path class="st0" d="M44,2.7c-1.2,2.1-1.6,4.7-1.9,7c-0.3,2.6-0.5,5.2-0.5,7.8c0,1.8,0,3.6,0.1,5.4c0,1,0.1,2,0.2,3.1
				c0.1,0.9,0,1.8,0.6,2.6C43.7,30,46,29,47.6,29s3.2,0.3,4.4,1.4c1.8,1.6,2,4.4,1.9,6.7c-0.1,1.3,0.2,2.1,1.3,3
				c1.2,0.9,2.6,1.3,4,1.5c0.8,0.1,1.6-0.1,2.4-0.2c1.1-0.2,2.1-0.3,3.3-0.5c2.6-0.4,5.4-0.8,7.9-1.6c1-0.2,2.3-0.6,2.9-1.5
				c0.4-0.7,0.4-1.6,0.5-2.3c0.2-1.9,0.3-3.9,0.3-5.8c0.1-5.9-0.4-12-2.2-17.7c-0.5-1.5-1.1-3.1-1.7-4.5s-1.4-3-2.4-4.1
				c-0.8-0.9-2.6-0.8-3.8-1.1C63,1.8,59.5,1.2,56.2,0.8c-1.3-0.2-2.8,0.2-4.1,0.3c-1.9,0.2-3.8,0.4-5.7,0.6
				c-0.8,0.1-1.6,0.2-2.1,0.9c-0.8,1,0.7,2.4,1.5,1.5c0.3-0.4,0.7-0.3,1.2-0.3c0.9-0.1,1.7-0.2,2.6-0.2c1.8-0.2,3.6-0.3,5.4-0.5
				c0.7-0.1,1.3,0,2.1,0.1c1.9,0.2,3.7,0.6,5.6,0.8c1.7,0.2,3.4,0.5,5.1,0.7c0.4,0.1,0.7,0.1,1.1,0.3c0.5,0.5,0.8,1.3,1.2,1.9
				c0.4,0.7,0.7,1.4,1.1,2.1c2.4,5.3,3.3,11.1,3.5,16.9c0.1,2.3,0.1,4.6-0.1,6.9c-0.1,0.8-0.1,1.6-0.2,2.5c-0.1,0.4,0,1.3-0.3,1.6
				c-0.6,0.5-1.9,0.7-2.6,0.8c-1.2,0.3-2.5,0.6-3.7,0.7c-2.2,0.4-4.5,0.7-6.7,1.1c-0.9,0.1-1.6,0.2-2.5-0.1
				c-0.7-0.2-2.2-0.7-2.5-1.4c-0.2-0.5,0.1-1.5,0.1-2.1c0-0.7-0.1-1.4-0.2-2.1c-0.2-1.1-0.5-2.2-1.1-3.1c-1.7-3.1-5.4-4-8.7-3.6
				c-0.3,0-1.7,0.4-2,0.2c-0.3-0.2-0.2-2.3-0.2-2.8c-0.1-1-0.1-1.9-0.1-2.9c-0.1-3-0.1-5.9,0.2-8.8c0.2-1.8,0.3-3.6,0.7-5.4
				c0.1-0.6,0.2-1.2,0.4-1.7c0.1-0.2,0.2-0.4,0.2-0.7c0.1-0.2,0.2-0.6,0.2-0.4c0.1-0.2,0.2-0.5,0.4-0.7C46.4,2.7,44.7,1.7,44,2.7z"
				/>
		</g>
		<g>
			<path class="st0" d="M42.6,0.7c-1.4-0.2-2.8-0.3-4.2-0.6c-0.6-0.1-1.1-0.2-1.6,0c-2.1,0.5-4.2,1-6.3,1.5
				C23.6,3.2,16.7,4.8,9.7,6.4C8,6.9,6.2,7.3,4.4,7.7C4,7.8,3.7,8.2,3.7,8.6c0,4.9,0,10,0,14.9c0,0.4,0.3,0.9,0.7,1
				c9.7,1.3,19.4,2.6,29,4c1.3,0.2,2.7,0.3,4,0.6c0.7,0.1,1.3-0.2,1.3-1c0-6.4-0.1-12.7-0.3-19.1c0-0.9,0-1.8-0.1-2.7
				c0-1.3-2.1-1.3-2.1,0c0.2,6.4,0.2,12.7,0.4,19.1c0,0.9,0,1.8,0.1,2.7c0.4-0.3,0.9-0.7,1.3-1c-9.7-1.3-19.4-2.6-29-4
				c-1.3-0.2-2.7-0.3-4-0.6c0.2,0.3,0.5,0.7,0.7,1c0-4.9,0-10,0-14.9C5.5,8.9,5.2,9.3,5,9.6c4.6-1.1,9.3-2.1,13.9-3.2
				c5.9-1.4,12-2.8,17.9-4.1c0.2-0.1,0.5-0.1,0.8-0.2c0,0,0.1,0,0.2,0c-0.6,0.1,0,0.1,0.2,0.1c1.6,0.2,3.1,0.4,4.7,0.6
				C44,2.9,44,0.8,42.6,0.7L42.6,0.7z"/>
		</g>
		<g>
			<path class="st0" d="M61.6,19.7c3.9,0,7.8-0.1,11.6-0.1c0.6,0,1.1,0,1.6,0c-0.3-0.4-0.7-0.9-1-1.3c-0.5,2.6-0.9,5.4-0.7,8
				c0,0.7,0.7,1.2,1.3,1c0.5-0.1,1-0.2,1.4-0.3c1.3-0.3,0.7-2.3-0.6-2c-0.5,0.1-1,0.2-1.4,0.3c0.4,0.3,0.9,0.7,1.3,1
				c-0.1-2.5,0.2-5,0.7-7.5c0.2-0.7-0.2-1.3-1-1.3c-3.9,0-7.8,0.1-11.6,0.1c-0.6,0-1.1,0-1.6,0C60.2,17.7,60.2,19.7,61.6,19.7
				L61.6,19.7z"/>
		</g>
		<g>
			<path class="st0" d="M72.6,9.5C68,9.4,63.3,9.3,58.7,9.3c-0.5,0-1.1,0.5-1,1c0.3,2.7,0.7,5.5,0.9,8.2c0.1,0.5,0.4,1.1,1,1
				c0.5-0.1,1,0.1,1.4,0.4c1.6,1.3,1.3,4.3,1.1,6c0.4-0.2,0.8-0.5,1.2-0.7c-5.1-0.8-10.1-1.6-15.3-2.6c0.2,0.3,0.5,0.7,0.7,1
				c-0.2-1.7-0.3-3.5-0.4-5.2c-0.1-2.5-0.2-5.6,1-7.8c0.7-1.2-1.2-2.2-1.8-1.1c-1.3,2.5-1.3,5.7-1.2,8.4c0,1.9,0.2,3.8,0.4,5.6
				c0.1,0.4,0.2,0.9,0.7,1c5.1,0.8,10.1,1.6,15.3,2.6c0.5,0.1,1.2-0.2,1.2-0.7c0.3-2.6,0.7-6-1.5-8c-0.7-0.7-1.9-1.2-3-1.1
				c0.3,0.3,0.7,0.7,1,1c-0.3-2.7-0.7-5.5-0.9-8.2c-0.3,0.3-0.7,0.7-1,1c4.6,0.1,9.3,0.2,13.9,0.2C73.9,11.6,73.9,9.5,72.6,9.5
				L72.6,9.5z"/>
		</g>
		<path class="st0" d="M59,30.3l3.1,1c0,0,0,2.8,2.3,2.9V36C64.3,36,57.7,37.3,59,30.3z"/>
		<path class="st0" d="M74.9,30.1L73.7,31c0,0,0.4,1.5-0.7,1.8l0.2,1C73.2,33.8,76.5,33.7,74.9,30.1z"/>
		<ellipse transform="matrix(0.9861 -0.1659 0.1659 0.9861 -5.2022 8.7126)" class="st0" cx="49.6" cy="35.5" rx="3.2" ry="4.7"/>
		<ellipse transform="matrix(0.9861 -0.1659 0.1659 0.9861 -4.6268 4.8046)" class="st0" cx="26.4" cy="30.1" rx="1.8" ry="3.1"/>
		<ellipse transform="matrix(0.9861 -0.1659 0.1659 0.9861 -4.7106 5.4122)" class="st0" cx="30" cy="30.9" rx="1.8" ry="3.1"/>
		
			<ellipse transform="matrix(0.9985 -5.530972e-02 5.530972e-02 0.9985 -1.4793 0.5474)" class="st0" cx="9.2" cy="27" rx="0.8" ry="2.1"/>
		
			<ellipse transform="matrix(0.9985 -5.530968e-02 5.530968e-02 0.9985 -1.4651 0.4694)" class="st0" cx="7.7" cy="26.7" rx="0.7" ry="1.9"/>
		<g>
			<path class="st0" d="M11.3,24.5c0,1.6,0,3.1,0,4.8c0,0.2,0.2,0.4,0.4,0.5c3.1,0.7,6.4,1.3,9.5,2c0.4,0.1,0.9,0.2,1.3,0.2
				c0.3,0.1,0.7-0.2,0.7-0.5c-0.1-0.7,0-1.4,0-2.1c0.1-0.8,0.2-2.3,1.2-2.6c0.7-0.2,0.3-1.2-0.2-1c-2.1,0.6-2.1,4-2,5.7
				c0.2-0.2,0.4-0.3,0.7-0.5c-3.1-0.7-6.4-1.3-9.5-2c-0.4-0.1-0.9-0.2-1.3-0.2c0.2,0.2,0.2,0.3,0.4,0.5c0-1.6,0-3.1,0-4.8
				C12.4,23.9,11.3,23.9,11.3,24.5L11.3,24.5z"/>
		</g>
		<g>
			<path class="st0" d="M31.8,27.7C31.9,27.7,31.9,27.7,31.8,27.7s0.2,0.1,0.2,0.2c0.2,0.2,0.3,0.5,0.4,0.8c0.7,1.6,0.6,3.5,0.4,5.3
				c0,0.2,0.2,0.4,0.4,0.5c2.1,0.5,4.2,1,6.3,1.5c0.6,0.2,1.3,0.5,1.9,0.3c1-0.2,2.1-0.6,3.1-0.8c0.3-0.1,0.4-0.3,0.3-0.7
				c0,0,0,0.1,0-0.1s0-0.2,0-0.4c0-0.4,0-0.8,0-1.2c0.1-0.9,0.3-2.1,1.3-2.5c0.6-0.2,0.4-1.2-0.2-1c-0.9,0.2-1.9,0.5-2.8,0.7
				c-0.6,0.2-1.1,0.2-1.6,0.4c-0.5,0.1,0,0,0,0.1l-0.2-0.1c-1.9-0.6-4-1-5.9-1.5c-0.7-0.2-0.9,0.8-0.2,1c2,0.5,4,1.1,5.9,1.5
				c0.7,0.2,1.6-0.2,2.2-0.4c1-0.2,2-0.5,3-0.7c-0.1-0.3-0.2-0.7-0.2-1c-2.1,0.8-2.2,3.5-2,5.4c0.1-0.2,0.2-0.4,0.3-0.7
				c-1,0.2-2.1,0.4-3.1,0.8c-0.3,0.2,0.1-0.1,0.1,0c0,0-0.2-0.1-0.3-0.1c-0.4-0.1-0.9-0.2-1.3-0.3c-2.1-0.5-4-1-6.1-1.4
				c0.2,0.2,0.2,0.3,0.4,0.5c0.2-1.9,0.2-4-0.6-5.7c-0.2-0.5-0.5-1.2-1.1-1.4C31.8,26.5,31.3,27.4,31.8,27.7L31.8,27.7z"/>
		</g>
	</g>
	<g>
		<polygon class="st0" points="58.8,46.1 53.1,47.1 60.5,50.5 65.9,49.3 		"/>
		<path class="st0" d="M33.2,50.7L26,52c-0.2,0-0.3,0.3-0.1,0.4l8.5,3.4c0.2,0.1,0.3,0.1,0.5,0l6.6-1.4L33.2,50.7z"/>
		<polygon class="st0" points="50.4,47.6 44.2,48.7 51.9,52.2 57.9,51 		"/>
		<path class="st0" d="M93.3,43.6l2.9-0.6c0.2-0.1,0.3-0.3,0.1-0.4C95,42,91.9,41,90.9,40.5c-0.2-0.1-0.4-0.1-0.6-0.1l-3,0.5
			L93.3,43.6z"/>
		<polygon class="st0" points="44,53.9 49.3,52.8 41.4,49.2 35.9,50.2 		"/>
		<polygon class="st0" points="67.2,44.6 61.6,45.6 68.6,48.8 74,47.6 		"/>
		<polygon class="st0" points="84.6,41.4 78.3,42.5 84.7,45.4 90.7,44.2 		"/>
		<polygon class="st0" points="75.6,43 70,44 76.7,47.1 82,46 		"/>
	</g>
</g>
</svg>
