<?xml version="1.0" encoding="utf-8"?>
<!-- Generator: Adobe Illustrator 24.0.2, SVG Export Plug-In . SVG Version: 6.00 Build 0)  -->
<svg version="1.1" id="Layer_1" xmlns="http://www.w3.org/2000/svg" xmlns:xlink="http://www.w3.org/1999/xlink" x="0px" y="0px"
	 viewBox="0 0 88.8 43" style="enable-background:new 0 0 88.8 43;" xml:space="preserve">
<style type="text/css">
	.st0{fill:#FFFFFF;}
</style>
<g>
	<g>
		<path class="st0" d="M88.3,26.9c0-0.1,0-0.2,0-0.3c-0.2-4.6-0.7-9.1-2.1-13.5c-0.5-1.4-1-3-1.7-4.3c-0.6-1.4-1.4-2.9-2.3-4
			c-0.9-1-2.5-0.9-3.7-1.1c-3.4-0.5-6.7-1-10-1.4c-1.3-0.2-2.7,0.2-4,0.3c-1.8,0.2-3.7,0.4-5.5,0.6c-0.8,0.1-1.5,0.2-2,0.9l0,0
			c-0.1,0.1-0.1,0.2-0.2,0.2c-1.3,1.8-1.7,4.4-1.9,6.7c-0.3,2.5-0.4,5.1-0.5,7.5c0,1.8,0,3.5,0.1,5.2c0,1,0.1,1.9,0.2,3
			c0.1,0.9,0,1.8,0.6,2.5c1.1,1.4,3.4,0.4,5,0.4s3.1,0.3,4.3,1.4c1.8,1.6,1.9,4.3,1.8,6.5c-0.1,1.3,0.2,2.1,1.3,2.9
			c1.1,0.9,2.6,1.3,3.9,1.4c0.8,0.1,1.6-0.1,2.3-0.2c1-0.2,2.1-0.3,3.2-0.5c2.6-0.4,5.2-0.8,7.7-1.5c1-0.2,2.2-0.6,2.8-1.4
			c0.4-0.6,0.4-1.5,0.5-2.2c0.2-1.8,0.3-3.8,0.3-5.6C88.3,29.1,88.3,28,88.3,26.9z M73.8,18.5c-0.1,0-0.2,0-0.3,0.1
			c-0.2-0.1-0.5-0.2-0.7-0.2c-0.2-2-0.5-4-0.7-6c3.9,0.1,7.9,0.2,11.9,0.2c0.6,1.9,1.2,3.9,1.5,5.9c-3.4,0-6.7,0.1-10.1,0.1
			C74.8,18.5,74.3,18.5,73.8,18.5z M85.8,37.1c-0.6,0.5-1.8,0.6-2.6,0.8c-1.2,0.3-2.4,0.6-3.6,0.7c-2.2,0.4-4.3,0.7-6.5,1
			c-0.9,0.1-1.5,0.2-2.4-0.1c-0.7-0.2-2.2-0.6-2.4-1.4c-0.2-0.5,0.1-1.4,0.1-2c0-0.7-0.1-1.4-0.2-2.1c-0.2-1-0.5-2.2-1-3
			c-1.7-3-5.2-3.9-8.4-3.5c-0.3,0-1.7,0.4-1.9,0.2c-0.3-0.2-0.2-2.2-0.2-2.7c-0.1-1-0.1-1.8-0.1-2.8c-0.1-2.9-0.1-5.7,0.2-8.6
			c0.2-1.8,0.3-3.5,0.7-5.3c0.1-0.6,0.2-1.1,0.4-1.7c0-0.1,0.1-0.2,0.2-0.5c0.1-0.1,0.2-0.4,0.2-0.4c0.1-0.2,0.2-0.4,0.3-0.6
			C58.6,5,59,5,59.4,5c0.9-0.1,1.7-0.2,2.6-0.2c1.8-0.2,3.5-0.3,5.3-0.5c0.7-0.1,1.3,0,2,0.1c1.8,0.2,3.6,0.6,5.5,0.8
			c1.7,0.2,3.3,0.5,5,0.7c0.4,0.1,0.7,0.1,1,0.3c0.5,0.5,0.8,1.3,1.1,1.8c0.4,0.6,0.7,1.4,1,2c0.1,0.2,0.2,0.4,0.2,0.6
			c-4.1-0.1-8.2-0.2-12.2-0.2c-0.5,0-1,0.5-1,1c0.3,2.6,0.6,5.4,0.9,8c0.1,0.5,0.4,1,1,1c0.5-0.1,1,0.1,1.4,0.4
			c1.4,1.1,1.3,3.3,1.1,5c-4.3-0.7-8.7-1.4-13.1-2.2c-0.2-1.4-0.2-2.8-0.3-4.2c-0.1-2.4-0.2-5.5,1-7.6c0.6-1.1-1.1-2.2-1.8-1
			c-1.3,2.4-1.3,5.5-1.2,8.2c0,1.8,0.2,3.7,0.4,5.5c0.1,0.4,0.2,0.9,0.7,1c5,0.8,9.9,1.6,14.8,2.5c0.5,0.1,1.1-0.2,1.2-0.7
			c0.3-2.1,0.5-4.7-0.6-6.7c3.1,0,6.3-0.1,9.5-0.1c0.2,0,0.2,0,0.4,0c-0.4,2.2-0.6,4.3-0.5,6.5c0,0.6,0.6,1.1,1.3,1h0.1c0,1,0,2,0,3
			l-0.8,0.6c0,0,0.4,1.4-0.6,1.8l0.2,1c0,0,0.5,0,1-0.2c0,0.5-0.1,1-0.2,1.5C86,36,86.1,36.8,85.8,37.1z"/>
		<path class="st0" d="M74.2,31.9l-3-1c-1.3,6.7,5.2,5.5,5.2,5.5v-1.8C74.2,34.5,74.2,31.9,74.2,31.9z"/>
		<path class="st0" d="M61.2,31.4c-1.7,0.3-2.7,2.5-2.3,5s2.2,4.3,3.9,3.9c1.7-0.3,2.7-2.5,2.3-5C64.7,32.9,63,31.1,61.2,31.4z"/>
		<path class="st0" d="M58.5,30.2c-0.9,0.2-1.8,0.5-2.7,0.7c-0.6,0.2-1,0.2-1.6,0.4c-0.1,0-0.1,0-0.2,0s-0.1,0-0.2,0
			c-1.8-0.6-3.9-1-5.7-1.4c-0.6-0.2-0.9,0.8-0.2,1c1.9,0.5,3.9,1,5.8,1.4c0.7,0.2,1.5-0.2,2.2-0.4c0.4-0.1,0.7-0.2,1.1-0.3
			c-0.5,1-0.6,2.2-0.5,3.3c-0.8,0.2-1.8,0.4-2.5,0.7c0,0,0.1,0,0.1,0.1H54c-0.2,0.1-0.1,0,0,0c-0.1,0-0.2,0-0.2,0
			c-0.4-0.1-0.9-0.2-1.3-0.3c-1.8-0.4-3.7-0.9-5.5-1.3c0.1-1.6,0.1-3.4-0.5-4.9c1.3,0.2,2.6,0.3,3.9,0.6c0.6,0.1,1.3-0.2,1.3-1
			c-0.2-6.2-0.2-12.4-0.4-18.5c0-0.9,0-1.8-0.1-2.6c0-1.3-2-1.3-2,0c0.2,6.2,0.2,12.4,0.4,18.5c0,0.5,0,1,0,1.5
			c-9-1.2-18-2.4-27-3.7c-1-0.2-2.1-0.3-3.2-0.4c0-4.3,0-8.6,0-12.8c4.3-1,8.6-2,12.8-3c5.8-1.4,11.6-2.7,17.3-4
			c0.2-0.1,0.5-0.1,0.6-0.2c0,0,0.3,0,0.4,0.1c1.7,0,3.2,0.2,4.7,0.4c1.3,0.2,1.3-1.8,0-2c-1.4-0.2-2.7-0.3-4.1-0.6
			c-0.6-0.1-1-0.2-1.6,0c-2,0.5-4.1,1-6.1,1.4C36.8,4.5,30.1,6,23.3,7.6c-1.7,0.4-3.4,0.8-5.1,1.2c-0.4,0.1-0.7,0.6-0.7,1
			c0,4.8,0,9.7,0,14.5c0,0.4,0.3,0.9,0.7,1c1,0.2,1.9,0.2,2.9,0.4c-0.3,0.2-0.5,1-0.5,1.8c0.1,1,0.4,1.8,0.9,1.8
			c0.2,0,0.4-0.2,0.6-0.6c0.2,0.6,0.5,1.1,0.8,1.1c0.5,0,0.8-1,0.7-2.1c-0.1-0.7-0.2-1.4-0.5-1.7c0.6,0.1,1.3,0.2,1.8,0.2
			c0,1.2,0,2.5,0,3.7c0,0.2,0.2,0.4,0.4,0.5c3,0.6,6.2,1.3,9.2,1.9c0.4,0.1,0.9,0.2,1.3,0.2c0.3,0.1,0.6-0.2,0.6-0.5
			c-0.1-0.6,0-1.4,0-2.1c0.1-0.6,0.2-1.6,0.6-2.2c0.4,0.1,0.8,0.1,1.2,0.2c-0.6,0.6-0.8,1.7-0.6,3c0.3,1.7,1.3,2.9,2.2,2.7
			c0.7-0.1,1.1-0.9,1.3-1.9c0.3,1.7,1.3,2.9,2.2,2.7c1-0.2,1.5-1.7,1.3-3.4c-0.2-1.1-0.7-2-1.3-2.5c0.6,0.1,1.2,0.2,1.8,0.2
			c0.1,0.1,0.1,0.2,0.2,0.3c0.6,1.6,0.6,3.4,0.4,5.1c0,0.2,0.2,0.4,0.4,0.5c2,0.5,4.1,1,6.1,1.4c0.6,0.2,1.3,0.5,1.8,0.3
			c1-0.2,2-0.6,3-0.8c0.3-0.1,0.4-0.3,0.3-0.6l0,0c0,0,0,0,0-0.1c0-0.2,0-0.2,0-0.4c0-0.4,0-0.8,0-1.1c0.1-0.9,0.3-2,1.3-2.4
			C59.4,30.9,59.1,30,58.5,30.2z M54.1,31.4L54.1,31.4L54.1,31.4z M22,26.5c-0.1-0.3-0.2-0.6-0.4-0.8c0.2,0,0.5,0.1,0.7,0.1
			C22.1,25.9,22.1,26.2,22,26.5z M35.4,31.4c-2.9-0.6-5.7-1.2-8.6-1.8c-0.3-0.1-0.6-0.2-1-0.2c0-1,0-2.1,0-3.1
			c3.4,0.5,6.7,0.9,10.1,1.4C35.5,28.7,35.4,30.3,35.4,31.4z M41.3,30.3c-0.2-0.9-0.5-1.6-0.9-2.1c0.6,0.1,1.3,0.2,1.9,0.2
			C41.7,28.7,41.4,29.5,41.3,30.3z"/>
		<path class="st0" d="M57.5,35.2C57.5,35.2,57.5,35.2,57.5,35.2L57.5,35.2z"/>
		<path class="st0" d="M54,35.6L54,35.6L54,35.6L54,35.6L54,35.6z"/>
	</g>
	<path class="st0" d="M0.7,30.8c-0.1,0-0.1,0.1,0,0.1L7,32.5c0.1,0,0.3,0,0.4,0l4.9-0.7l-6.2-1.5L0.7,30.8z"/>
	<polygon class="st0" points="14.5,29.3 20.3,30.8 24.6,30.1 19.1,28.7 	"/>
	<polygon class="st0" points="8.1,30 14.2,31.7 18.3,31.1 12.4,29.4 	"/>
</g>
</svg>
