<?xml version="1.0" encoding="utf-8"?>
<!-- Generator: Adobe Illustrator 24.0.2, SVG Export Plug-In . SVG Version: 6.00 Build 0)  -->
<svg version="1.1" id="Layer_1" xmlns="http://www.w3.org/2000/svg" xmlns:xlink="http://www.w3.org/1999/xlink" x="0px" y="0px"
	 viewBox="0 0 78.2 78.2" style="enable-background:new 0 0 78.2 78.2;" xml:space="preserve">
<style type="text/css">
	.st0{fill:none;stroke:#FFFFFF;stroke-width:2;stroke-miterlimit:10;}
	.st1{fill:#FFFFFF;}
</style>
<g>
	<g>
		<path class="st0" d="M43.7,54.6h-9.1c-5.2,0-9.4-4.2-9.4-9.4V28.4c0-5.2,4.2-9.4,9.4-9.4h9.1c5.2,0,9.4,4.2,9.4,9.4v16.8
			C53.1,50.4,48.9,54.6,43.7,54.6z"/>
		<path class="st1" d="M53.1,25.9H25.2v0c0-3.8,3-6.8,6.8-6.8h14.3C50.1,19.1,53.1,22.1,53.1,25.9L53.1,25.9z"/>
		<g>
			<path class="st1" d="M38.6,48.5c-3.5,0-5.7-0.6-7.1-2c-1.7-1.8-1.7-4.3-1.6-7.3l0-0.2c0-1.2-0.3-2.2-1-2.9
				c-1-0.9-2.5-1.1-3.3-1.2h-0.6l0-1.3c0,0,0.3,0,0.7,0H53v1.3H29.5c0.1,0.1,0.2,0.2,0.3,0.2c1,0.9,1.5,2.2,1.4,3.8l0,0.2
				c-0.1,2.7-0.1,5,1.2,6.4c1.1,1.1,3.3,1.7,6.6,1.6l0,1.3C38.9,48.5,38.8,48.5,38.6,48.5z"/>
		</g>
		<g>
			<path class="st1" d="M39.4,48.5c-0.1,0-0.3,0-0.4,0l0-1.3c3.3,0,5.4-0.5,6.6-1.6c1.4-1.4,1.3-3.7,1.2-6.4l0-0.2
				c0-1.6,0.4-2.9,1.4-3.8c0.1-0.1,0.2-0.2,0.3-0.2H25v-1.3h27.3c0.4,0,0.7,0,0.7,0l0,1.3h-0.6c-0.8,0-2.3,0.2-3.3,1.2
				c-0.7,0.7-1,1.6-1,2.9l0,0.2c0.1,3,0.1,5.6-1.6,7.3C45.1,47.8,42.9,48.5,39.4,48.5z"/>
		</g>
		<g>
			<path class="st1" d="M28,46.5l2.4,0.4c0,0,0.3,2.1,2.1,1.9l0.2,1.4C32.8,50.3,27.7,52,28,46.5z"/>
		</g>
		<g>
			<path class="st1" d="M50.3,46.5L47.8,47c0,0-0.3,2.1-2.1,1.9l-0.2,1.4C45.5,50.3,50.6,52,50.3,46.5z"/>
		</g>
		<line class="st0" x1="30.8" y1="39.5" x2="47.5" y2="39.5"/>
		<line class="st0" x1="30.8" y1="41.7" x2="47.5" y2="41.7"/>
		<line class="st0" x1="30.8" y1="44.2" x2="47.5" y2="44.2"/>
		<g>
			<path class="st1" d="M25.6,52.1c0,0.1,0,0.1,0,0.2v3.5c0,0.9,0.8,1.7,1.7,1.7h1.4c0.9,0,1.7-0.8,1.7-1.7v-0.6
				C28.4,54.9,26.6,53.7,25.6,52.1z"/>
		</g>
		<path class="st1" d="M47.5,54.6v1.2c0,0.9,0.8,1.7,1.7,1.7h1.4c0.9,0,1.7-0.8,1.7-1.7v-3.5c0-0.2,0-0.4-0.1-0.6
			C51.2,53.3,49.5,54.4,47.5,54.6z"/>
		<g>
			<path class="st1" d="M22.6,31.8L22.6,31.8c-0.7,0-1.3-0.6-1.3-1.3v-3.3c0-0.7,0.6-1.3,1.3-1.3h0c0.7,0,1.3,0.6,1.3,1.3v3.3
				C23.8,31.2,23.3,31.8,22.6,31.8z"/>
			<g>
				<path class="st1" d="M25.5,34.7h-1.8c-0.6,0-1.1-0.5-1.1-1.1V27h0.6v6.7c0,0.3,0.2,0.5,0.5,0.5h1.8V34.7z"/>
			</g>
			<g>
				<path class="st1" d="M25.5,25h-1.8c-0.6,0-1.1,0.5-1.1,1.1v6.7h0.6v-6.7c0-0.3,0.2-0.5,0.5-0.5h1.8V25z"/>
			</g>
		</g>
		<g>
			<path class="st1" d="M55.7,31.8L55.7,31.8c0.7,0,1.3-0.6,1.3-1.3v-3.3c0-0.7-0.6-1.3-1.3-1.3l0,0c-0.7,0-1.3,0.6-1.3,1.3v3.3
				C54.4,31.2,55,31.8,55.7,31.8z"/>
			<g>
				<path class="st1" d="M52.7,34.7h1.8c0.6,0,1.1-0.5,1.1-1.1V27H55v6.7c0,0.3-0.2,0.5-0.5,0.5h-1.8V34.7z"/>
			</g>
			<g>
				<path class="st1" d="M52.7,25h1.8c0.6,0,1.1,0.5,1.1,1.1v6.7H55v-6.7c0-0.3-0.2-0.5-0.5-0.5h-1.8V25z"/>
			</g>
		</g>
	</g>
	<g>
		<path class="st1" d="M39.1,70.5c-17.3,0-31.4-14.1-31.4-31.4S21.8,7.8,39.1,7.8s31.4,14.1,31.4,31.4S56.4,70.5,39.1,70.5z
			 M39.1,10c-16,0-29.1,13-29.1,29.1s13,29.1,29.1,29.1s29.1-13,29.1-29.1S55.2,10,39.1,10z"/>
	</g>
	<g>
		<path class="st1" d="M39.1,78.2C17.6,78.2,0,60.7,0,39.1C0,17.6,17.6,0,39.1,0s39.1,17.6,39.1,39.1C78.2,60.7,60.7,78.2,39.1,78.2
			z M39.1,3C19.2,3,3,19.2,3,39.1C3,59,19.2,75.2,39.1,75.2S75.2,59,75.2,39.1C75.2,19.2,59,3,39.1,3z"/>
	</g>
</g>
</svg>
