<?xml version="1.0" encoding="utf-8"?>
<!-- Generator: Adobe Illustrator 25.2.3, SVG Export Plug-In . SVG Version: 6.00 Build 0)  -->
<svg version="1.1" id="Capa_1" xmlns="http://www.w3.org/2000/svg" xmlns:xlink="http://www.w3.org/1999/xlink" x="0px" y="0px"
	 viewBox="0 0 81.4 81.4" style="enable-background:new 0 0 81.4 81.4;" xml:space="preserve">
<style type="text/css">
	.st0{fill:#FFFFFF;}
</style>
<g>
	<path class="st0" d="M57.3,49.6c-5.1,0-10.2,0-15.2,0c-0.6,0-1.5,0-2,0c-1.7-0.2-3.1-1.2-3.8-2.9c-0.2-0.5-0.4-1.3-0.4-2
		c0-0.3,0-0.5,0-0.8c0-1.3,0-2.7,0-4c0-1.7,0-3.4,0-5.1h5.5c1.4,0,2.2-1.6,1.3-2.7L34,21.8c-0.7-0.8-1.9-0.8-2.5,0l-8.6,10.3
		c-0.9,1.1-0.1,2.7,1.3,2.7h5.6c0,1.4,0,2.9,0,4.3c0,2.8-0.4,6,0.4,8.6c1.4,4.8,5.8,7.7,10.7,7.8c2.7,0,5.5,0,8.3,0
		c2.7,0,5.4,0,8.1,0C61.1,55.6,61.1,49.6,57.3,49.6z"/>
	<path class="st0" d="M40.7,0C18.3,0,0,18.3,0,40.7s18.3,40.7,40.7,40.7s40.7-18.3,40.7-40.7S63.2,0,40.7,0z M40.7,76.4
		C21,76.4,5,60.4,5,40.7S21,5,40.7,5s35.7,16,35.7,35.7S60.4,76.4,40.7,76.4z"/>
</g>
</svg>
