<?xml version="1.0" encoding="utf-8"?>
<!-- Generator: Adobe Illustrator 25.2.3, SVG Export Plug-In . SVG Version: 6.00 Build 0)  -->
<svg version="1.1" id="Capa_1" xmlns="http://www.w3.org/2000/svg" xmlns:xlink="http://www.w3.org/1999/xlink" x="0px" y="0px"
	 viewBox="0 0 127.7 125.5" style="enable-background:new 0 0 127.7 125.5;" xml:space="preserve">
<style type="text/css">
	.st0{fill-rule:evenodd;clip-rule:evenodd;fill:#FFFFFF;}
	.st1{fill:#FFFFFF;}
</style>
<g>
	<g>
		<g>
			<path class="st0" d="M9.7,19.4c0,0.8-0.6,1.4-1.4,1.4s-1.4-0.6-1.4-1.4c0-0.8,0.6-1.4,1.4-1.4S9.7,18.7,9.7,19.4"/>
			<path class="st0" d="M26.4,19.4c0,0.8-0.6,1.4-1.4,1.4c-0.8,0-1.4-0.6-1.4-1.4c0-0.8,0.6-1.4,1.4-1.4
				C25.8,18.1,26.4,18.7,26.4,19.4"/>
			<path class="st0" d="M16.7,23.6c2.3,0,4.3,0.4,5.6,1c-1.6,1.1-3.6,1.8-5.6,1.8c-2,0-4-0.6-5.6-1.8C12.4,24,14.4,23.6,16.7,23.6z
				 M7.8,23.6c-0.5,0.6-0.4,1.4,0.1,1.9c2.3,2.3,5.5,3.6,8.8,3.6c3.3,0,6.5-1.3,8.8-3.6c0.5-0.5,0.5-1.3,0.1-1.9
				c-1.5-1.8-5-2.8-8.9-2.8C12.7,20.8,9.3,21.9,7.8,23.6z M7.4,13.9c1.2-4,4.9-6.9,9.3-6.9c4.4,0,8.1,2.9,9.3,6.9H7.4z M16.7,4.2
				c-6.3,0-11.6,4.7-12.4,10.9c-0.1,0.8,0.5,1.6,1.4,1.6h22c0.8,0,1.5-0.7,1.4-1.6C28.3,8.9,23,4.2,16.7,4.2z M16.7,0
				C7.5,0,0,7.5,0,16.7s7.5,16.7,16.7,16.7s16.7-7.5,16.7-16.7S25.9,0,16.7,0z M16.7,2.8c7.7,0,13.9,6.2,13.9,13.9
				s-6.2,13.9-13.9,13.9S2.8,24.3,2.8,16.7S9,2.8,16.7,2.8z"/>
		</g>
	</g>
	<path class="st1" d="M126.6,94.7c0.5-1.1,0.8-2.3,0.8-3.6c0-4.9-4-8.8-8.8-8.8c-4.6,0-8.4,3.5-8.8,8.1c-1.5,0.4-2.8,1.2-3.9,2.3
		c-2.5,2.5-3.3,6.1-2.2,9.3l-3.7,3.7l-0.6-0.6c-0.6-0.6-1.6-0.6-2.3,0l-3.9,3.9c-0.3,0.3-0.5,0.7-0.5,1.1s0.2,0.8,0.5,1.1l0.6,0.6
		l-2,2c-0.6,0.6-0.6,1.6,0,2.3l3.5,3.5c0.3,0.3,0.7,0.5,1.1,0.5s0.8-0.2,1.1-0.5l11.9-11.9c0.9,0.3,1.9,0.5,2.9,0.5
		c0.8,0,1.5-0.1,2.2-0.3v4.4h-0.9c-0.9,0-1.6,0.7-1.6,1.6v5.5c0,0.9,0.7,1.6,1.6,1.6h0.9v2.9c0,0.9,0.7,1.6,1.6,1.6h4.9
		c0.9,0,1.6-0.7,1.6-1.6v-16.8c3-1.5,5-4.7,5-8.1C127.7,97.4,127.3,96,126.6,94.7z M118.6,85.5c3.1,0,5.6,2.5,5.6,5.6
		c0,0.2,0,0.5,0,0.7c-1.5-1.2-3.5-1.9-5.6-1.9c-1.2,0-2.4,0.2-3.4,0.7c-0.7-0.2-1.4-0.4-2.1-0.5C113.6,87.4,115.8,85.5,118.6,85.5z
		 M107.9,104.7l-11.5,11.5l-1.2-1.2l2-2.1c0.3-0.3,0.5-0.7,0.5-1.1c0-0.4-0.2-0.8-0.5-1.1l-0.6-0.6l1.6-1.6l0.6,0.6
		c0.6,0.6,1.6,0.6,2.3,0l5.6-5.6c0.5-0.5,0.6-1.2,0.3-1.8c-1.1-2.3-0.6-5,1.1-6.7c0.9-0.9,2.1-1.5,3.3-1.6c-1.2,1.5-2,3.5-2,5.6
		c0,2.3,0.9,4.4,2.3,6c-0.7,0-1.5-0.2-2.1-0.5C109.1,104.1,108.4,104.2,107.9,104.7z M120.5,104.5c-0.6,0.2-1.1,0.8-1.1,1.5v16.3
		h-1.7v-2.9c0-0.9-0.7-1.6-1.6-1.6h-0.9v-2.3h0.9c0.9,0,1.6-0.7,1.6-1.6V106c0-0.7-0.5-1.3-1.1-1.5c-2.4-0.8-4-3-4-5.5
		c0-3.2,2.6-5.9,5.9-5.9c1.6,0,3.1,0.7,4.2,1.8c-1,1.2-2.5,1.9-4.2,1.9c-0.9,0-1.6,0.7-1.6,1.6s0.7,1.6,1.6,1.6
		c2.2,0,4.2-0.8,5.8-2.1c0.1,0.4,0.1,0.8,0.1,1.1C124.5,101.4,122.9,103.7,120.5,104.5z"/>
	<g>
		<g>
			<path class="st0" d="M64.9,44c-8.6-0.9-16.5,5.6-17.3,14.2c-0.9,8.7,5.6,16.5,14.2,17.3c8.7,0.8,16.5-5.6,17.3-14.3
				C80,52.7,73.6,44.8,64.9,44z M63.5,58.9c-0.5-0.1-1,0.3-1,0.9c-0.1,0.5,0.3,0.9,0.9,1c0.5,0.1,0.9-0.3,1-0.8
				C64.4,59.4,64,58.9,63.5,58.9z M64.2,51.4c4.7,0.5,8.1,4.6,7.6,9.2c-0.4,4.7-4.6,8.1-9.2,7.6c-4.6-0.4-8-4.6-7.6-9.2
				C55.5,54.3,59.6,50.9,64.2,51.4z M68.1,56.6l0.8-1c0.6,0.8,1,1.7,1.3,2.7l-1.3-0.1L68.1,56.6z M65.6,53.3l-0.7,1.1L63,54.2
				l-0.4-1.3C63.6,52.8,64.6,52.9,65.6,53.3z M58.8,54.7l0.7,1.1l-1.1,1.5L57,57.1C57.5,56.2,58.1,55.3,58.8,54.7z M56.7,61.2H58
				l0.8,1.7l-0.8,1C57.3,63.2,56.9,62.2,56.7,61.2z M61.3,66.4l0.7-1.1l1.9,0.2l0.4,1.2C63.3,66.8,62.3,66.7,61.3,66.4z M68,64.9
				l-0.6-1.1l1.1-1.5l1.3,0.2C69.4,63.4,68.8,64.2,68,64.9z M63.1,62.6c-1.5-0.1-2.6-1.5-2.5-3c0.2-1.5,1.5-2.6,3-2.5
				c1.5,0.2,2.7,1.5,2.5,3C66.1,61.6,64.7,62.7,63.1,62.6z M62.3,71.2C56,70.6,51.4,65,52,58.7c0.6-6.3,6.2-10.9,12.5-10.3
				c6.3,0.6,11,6.2,10.4,12.5C74.2,67.2,68.6,71.8,62.3,71.2z"/>
		</g>
		<g>
			<path class="st1" d="M52,75.7h-9c-0.9,0-1.7-0.7-1.7-1.7v-8.8c0-0.7,0.4-1.3,1-1.5c0.6-0.3,1.3-0.1,1.8,0.3l9,8.8
				c0.5,0.5,0.6,1.2,0.4,1.8C53.2,75.3,52.6,75.7,52,75.7z M43,65c0,0-0.1,0-0.1,0c-0.1,0-0.2,0.1-0.2,0.3V74c0,0.2,0.1,0.3,0.3,0.3
				h9c0.2,0,0.2-0.1,0.3-0.2c0-0.1,0.1-0.2-0.1-0.3l-9-8.8C43.1,65,43.1,65,43,65z"/>
		</g>
		<g>
			<path class="st1" d="M73.3,74.6c-0.3-0.6-0.1-1.3,0.4-1.8l9-8.8c0.5-0.5,1.2-0.6,1.8-0.3c0.6,0.3,1,0.9,1,1.5V74
				c0,0.9-0.7,1.7-1.7,1.7h-9C74.1,75.7,73.5,75.3,73.3,74.6z M83.6,65l-9,8.8c-0.1,0.1-0.1,0.3-0.1,0.3c0,0.1,0.1,0.2,0.3,0.2h9
				c0.2,0,0.3-0.1,0.3-0.3v-8.8c0-0.2-0.1-0.2-0.2-0.3c0,0-0.1,0-0.1,0C83.7,65,83.6,65,83.6,65z"/>
		</g>
	</g>
	<path class="st1" d="M63.1,13.4H45c-0.9,0-1.7,0-2.6,0c-3.4,0-3.4,5.3,0,5.3h16.8c0.7,0,1.2,0.6,1.2,1.2v13c0,0.8,0,1.6,0,2.4
		c0,3.4,5.3,3.4,5.3,0c0-5.6,0-11.3,0-16.9v-2.4C65.8,14.6,64.6,13.4,63.1,13.4z"/>
	<path class="st1" d="M84,100.3H67.1c-0.6,0-1.1-0.5-1.1-1.1V86c0-0.8,0-1.6,0-2.4c0-3.4-5.3-3.4-5.3,0c0,5.6,0,11.3,0,16.9v2.4
		c0,1.5,1.2,2.7,2.7,2.7h18.1c0.9,0,1.7,0,2.6,0C87.5,105.6,87.5,100.3,84,100.3z"/>
</g>
</svg>
