<?xml version="1.0" encoding="utf-8"?>
<!-- Generator: Adobe Illustrator 25.2.3, SVG Export Plug-In . SVG Version: 6.00 Build 0)  -->
<svg version="1.1" id="Capa_1" xmlns="http://www.w3.org/2000/svg" xmlns:xlink="http://www.w3.org/1999/xlink" x="0px" y="0px"
	 viewBox="0 0 127.7 119" style="enable-background:new 0 0 127.7 119;" xml:space="preserve">
<style type="text/css">
	.st0{fill:#FFFFFF;}
</style>
<g>
	<path class="st0" d="M67.1,8.5L67.1,8.5c-1.3,0-2.5,0.5-3.4,1.4c-0.9,0.9-1.4,2.1-1.4,3.4c0,1.3,0.5,2.5,1.4,3.4
		c0.9,0.9,2.1,1.4,3.4,1.4c23.9,0,43.3,19.3,43.3,43.3c0,23.9-19.3,43.2-43.3,43.2c-23.9,0-43.2-19.3-43.2-43.2
		c0-1.3-0.5-2.5-1.4-3.4c-0.9-0.9-2.1-1.4-3.4-1.4c-1.3,0-2.5,0.5-3.4,1.4c-0.9,0.9-1.4,2.1-1.4,3.4c0,29.1,23.7,52.8,52.8,52.8
		S120,90.5,120,61.4C120,32.3,96.3,8.5,67.1,8.5z"/>
	<path class="st0" d="M62.4,32.6v25.8l-16.6,8.3c-1.1,0.6-2,1.6-2.4,2.8c-0.4,1.2-0.3,2.5,0.3,3.7c0.6,1.1,1.6,2,2.8,2.4
		c1.2,0.4,2.5,0.3,3.7-0.3v0l19.2-9.6c0.8-0.4,1.5-1,1.9-1.8c0.5-0.8,0.7-1.6,0.7-2.5V32.5c0-1.3-0.5-2.5-1.4-3.4
		c-0.9-0.9-2.1-1.4-3.4-1.4v0l0,0c-1.3,0-2.5,0.5-3.4,1.4C62.9,30.1,62.4,31.3,62.4,32.6z"/>
	<path class="st0" d="M50.5,26.2c0-11.8-9.6-21.4-21.4-21.4S7.7,14.4,7.7,26.2c0,11.8,9.6,21.4,21.4,21.4S50.5,38,50.5,26.2z
		 M16,26.2c0-7.2,5.9-13.1,13.1-13.1S42.2,19,42.2,26.2c0,7.2-5.9,13.1-13.1,13.1S16,33.4,16,26.2z"/>
	<path class="st0" d="M36.4,19.2c-0.9-0.7-2.2-0.5-2.9,0.4l-7.1,9.1c-0.2,0.3-0.7,0.3-1,0l-1.4-1.7c-0.7-0.9-2-1-2.9-0.3l0,0
		c-0.9,0.7-1,2-0.3,2.9l3.5,4.3c0.8,1,2.4,1,3.2,0l9.1-11.7C37.5,21.2,37.3,19.9,36.4,19.2z"/>
</g>
</svg>
