<?xml version="1.0" encoding="utf-8"?>
<!-- Generator: Adobe Illustrator 25.2.3, SVG Export Plug-In . SVG Version: 6.00 Build 0)  -->
<svg version="1.1" id="Capa_1" xmlns="http://www.w3.org/2000/svg" xmlns:xlink="http://www.w3.org/1999/xlink" x="0px" y="0px"
	 viewBox="0 0 112.5 103.2" style="enable-background:new 0 0 112.5 103.2;" xml:space="preserve">
<style type="text/css">
	.st0{fill:#FFFFFF;}
</style>
<g>
	<g>
		<path class="st0" d="M60.9,103.2c-28.5,0-51.6-23.1-51.6-51.6c0-5.4,0.8-10.7,2.5-15.8l-7.8,4.3C2.6,40.8,1,40.3,0.3,39
			c-0.7-1.3-0.2-2.9,1.1-3.6l13.3-7.3c0.7-0.4,1.5-0.4,2.2-0.2c0.7,0.3,1.3,0.8,1.6,1.5l5.8,15.2c0.5,1.4-0.2,2.9-1.6,3.4
			c-1.4,0.5-2.9-0.2-3.4-1.6l-2.9-7.7c-1.2,4.1-1.8,8.4-1.8,12.7c0,25.5,20.8,46.3,46.3,46.3s46.3-20.8,46.3-46.3
			c0-25.5-20.8-46.3-46.3-46.3c-5.3,0-10.4,0.9-15.3,2.6c-1.4,0.5-2.9-0.2-3.4-1.6s0.2-2.9,1.6-3.4C49.3,1,55,0,60.9,0
			c28.5,0,51.6,23.2,51.6,51.6S89.3,103.2,60.9,103.2z"/>
	</g>
	<g>
		<path class="st0" d="M51.1,55.9L39.7,67.4c-0.5,0.5-0.5,1.2,0,1.7c0.2,0.2,0.5,0.3,0.8,0.3s0.6-0.1,0.8-0.3l11.4-11.4
			c0.5-0.5,0.5-1.2,0-1.7C52.3,55.5,51.6,55.5,51.1,55.9z"/>
		<path class="st0" d="M43,72.3c0.2,0.2,0.5,0.3,0.8,0.3s0.6-0.1,0.8-0.3l11.4-11.4c0.5-0.5,0.5-1.2,0-1.7c-0.5-0.5-1.2-0.5-1.7,0
			L43,70.7C42.6,71.1,42.6,71.8,43,72.3z"/>
		<path class="st0" d="M84.7,60.8c-2.5-2.5-6.3-3.5-9.8-2.5L66.8,50l12.6-12.6l2.9-0.6c0.5-0.1,0.9-0.4,1.1-0.8l3.7-6
			c0.5-0.7,0.3-1.6-0.3-2.2l-2.6-2.6c-0.6-0.6-1.5-0.7-2.2-0.3L76,28.6c-0.4,0.3-0.7,0.7-0.8,1.1l-0.6,3L62,45.3l-8.2-8.2
			c0.2-0.9,0.4-1.8,0.4-2.7c0-2.6-1-5.2-2.9-7.1c-2.9-2.9-7.5-3.7-11.2-2c-0.3,0.2-0.6,0.5-0.7,0.9c-0.1,0.4,0.1,0.7,0.3,1l3.7,3.7
			c0.5,0.5,0.8,1.1,0.8,1.9s-0.3,1.4-0.8,1.9c-1,1-2.8,1-3.8,0L36,30.9c-0.3-0.3-0.7-0.4-1-0.3c-0.4,0.1-0.7,0.3-0.9,0.7
			c-0.6,1.3-0.9,2.7-0.9,4.2c0,2.6,1.1,5.2,2.9,7.1c2.5,2.6,6.3,3.5,9.7,2.5l4.5,4.5L34.8,65c-0.8,0.8-1.3,1.9-1.3,3
			c0,1.1,0.5,2.2,1.3,3l6.1,6.1c0.8,0.8,1.9,1.3,3,1.3c1.1,0,2.2-0.5,3-1.3l15.5-15.5l4.5,4.5c-0.2,0.9-0.3,1.8-0.3,2.7
			c0,2.7,1,5.2,2.9,7.1c1.9,1.9,4.5,2.9,7.1,2.9c1.4,0,2.8-0.3,4.1-0.9c0.3-0.2,0.6-0.5,0.7-0.9c0.1-0.4-0.1-0.7-0.3-1l-3.7-3.8
			c-0.5-0.5-0.8-1.1-0.8-1.9c0-0.7,0.3-1.4,0.8-1.9c1-1,2.8-1,3.8,0l3.7,3.7c0.3,0.3,0.6,0.4,1,0.3s0.7-0.3,0.9-0.6
			c0.6-1.3,0.9-2.7,0.9-4.2C87.6,65.2,86.6,62.7,84.7,60.8z M76.5,34.1c0.2-0.2,0.3-0.3,0.3-0.6l0.7-3l5.4-3.3l2.1,2.1l-3.3,5.4
			l-3.1,0.7c-0.2,0.1-0.4,0.2-0.6,0.3L65.1,48.4l-1.5-1.5L76.5,34.1z M45.3,75.6c-0.7,0.7-2.1,0.7-2.8,0l-6-6.1
			c-0.4-0.4-0.6-0.9-0.6-1.4s0.2-1,0.6-1.4L52,51.2l8.9,8.9L45.3,75.6z M85.2,69.3l-2.4-2.4c-1.9-1.8-5.3-1.8-7.1,0
			c-1,0.9-1.5,2.2-1.5,3.6s0.5,2.6,1.5,3.6l2.4,2.4c-2.5,0.5-5.1-0.3-6.9-2.1C69.8,72.9,69,71,69,68.9c0-0.9,0.2-1.8,0.5-2.6
			c0.2-0.4,0.1-0.9-0.3-1.2L47,42.9c-0.2-0.2-0.5-0.3-0.8-0.3c-0.1,0-0.3,0-0.4,0.1c-2.8,1-6,0.3-8-1.8c-1.4-1.4-2.2-3.3-2.2-5.4
			c0-0.5,0.1-1,0.1-1.5l2.4,2.4l0,0c1.9,1.9,5.2,1.9,7.1,0c1-0.9,1.5-2.2,1.5-3.6c0-1.4-0.5-2.6-1.5-3.5l-2.4-2.4
			c2.5-0.5,5,0.2,6.9,2.1c1.4,1.5,2.2,3.4,2.2,5.4c0,0.9-0.2,1.8-0.5,2.6c-0.2,0.5-0.1,0.9,0.3,1.3l22.1,22.1
			c0.3,0.3,0.8,0.4,1.2,0.3c2.8-1,6-0.3,8,1.7c1.4,1.5,2.2,3.4,2.2,5.4C85.3,68.3,85.2,68.8,85.2,69.3z"/>
	</g>
</g>
</svg>
