<?xml version="1.0" encoding="utf-8"?>
<!-- Generator: Adobe Illustrator 25.2.3, SVG Export Plug-In . SVG Version: 6.00 Build 0)  -->
<svg version="1.1" id="Capa_1" xmlns="http://www.w3.org/2000/svg" xmlns:xlink="http://www.w3.org/1999/xlink" x="0px" y="0px"
	 viewBox="0 0 80.3 95.6" style="enable-background:new 0 0 80.3 95.6;" xml:space="preserve">
<style type="text/css">
	.st0{fill:#FFFFFF;}
</style>
<path class="st0" d="M80.2,24.6c-0.1-2.5-0.1-5-0.1-7.3c0-1.9-1.5-3.3-3.3-3.3C62.5,13.8,51.5,9.7,42.5,1c-1.3-1.3-3.4-1.3-4.7,0
	c-9.1,8.8-20,12.9-34.2,12.9c-1.9,0-3.3,1.5-3.3,3.3c0,2.3,0,4.8-0.1,7.4c-0.5,24.1-1.2,57,38.9,70.8c0.4,0.1,0.7,0.2,1.1,0.2
	c0.4,0,0.8-0.1,1.1-0.2C81.3,81.5,80.6,48.7,80.2,24.6z M40.1,88.7c-8.6-3.1-15-7.2-19.8-11.8h0.5c0-10.6,8.6-19.3,19.3-19.3
	c10.6,0,19.3,8.6,19.3,19.3h0.5C55.1,81.5,48.7,85.5,40.1,88.7z M29.4,43.2c0-5.9,4.8-10.5,10.6-10.5c5.9,0,10.6,4.8,10.6,10.6
	c0,5.9-4.8,10.5-10.6,10.5C34.2,53.8,29.4,49,29.4,43.2z M63,73.4c-1.3-8.4-7.2-15.3-15-18.2c3.9-2.6,6.5-7,6.5-12
	c0-7.9-6.5-14.4-14.4-14.4s-14.4,6.5-14.4,14.4c0,5.1,2.6,9.4,6.4,12c-7.8,2.9-13.6,9.8-14.8,18.2C6.1,59.7,6.4,41.4,6.7,24.8
	c0-1.5,0.1-2.8,0.1-4.2c13.4-0.7,24.1-4.7,33.3-12.7c9.2,8,19.9,12.1,33.3,12.6c0,1.4,0,2.7,0.1,4.2C73.8,41.4,74.2,59.6,63,73.4z"
	/>
</svg>
