<?xml version="1.0" encoding="utf-8"?>
<!-- Generator: Adobe Illustrator 25.2.3, SVG Export Plug-In . SVG Version: 6.00 Build 0)  -->
<svg version="1.1" id="Capa_1" xmlns="http://www.w3.org/2000/svg" xmlns:xlink="http://www.w3.org/1999/xlink" x="0px" y="0px"
	 viewBox="0 0 103.8 101.6" style="enable-background:new 0 0 103.8 101.6;" xml:space="preserve">
<style type="text/css">
	.st0{fill:none;stroke:#FFFFFF;stroke-width:2;stroke-miterlimit:10;}
	.st1{fill:#FFFFFF;}
</style>
<g>
	<g>
		<path class="st0" d="M65.1,95H18.6c-5.2,0-9.4-4.2-9.4-9.4V21.2c0-5.2,4.2-9.4,9.4-9.4h46.5c5.2,0,9.4,4.2,9.4,9.4v64.4
			C74.5,90.8,70.3,95,65.1,95z"/>
		<path class="st1" d="M74.5,27.7H9.2V20c0-4.5,3.7-8.2,8.2-8.2h49c4.5,0,8.2,3.7,8.2,8.2V27.7z"/>
		<g>
			<path class="st1" d="M40.7,80.7c-8.1,0-13.4-1.5-16.6-4.7c-4.1-4.1-3.9-10.2-3.8-17.2l0-0.4c0.1-2.9-0.7-5.1-2.4-6.7
				c-2.3-2.2-5.8-2.7-7.6-2.8H9l-0.1-3c0.1,0,0.7,0,1.6,0h63.8v3H19.3c0.2,0.2,0.4,0.4,0.6,0.6c2.3,2.2,3.4,5.2,3.3,9l0,0.4
				c-0.2,6.3-0.3,11.8,2.9,15c2.6,2.7,7.7,3.9,15.4,3.8l0,3C41.3,80.7,41,80.7,40.7,80.7z"/>
		</g>
		<g>
			<path class="st1" d="M42.4,80.7c-0.3,0-0.6,0-1,0l0-3c7.7,0.1,12.8-1.1,15.4-3.8c3.2-3.2,3.1-8.7,2.9-15l0-0.4
				c-0.1-3.8,1-6.8,3.3-9c0.2-0.2,0.4-0.4,0.6-0.6H8.9v-3h63.8c0.9,0,1.5,0,1.6,0l-0.1,3h-1.4c-1.8,0.1-5.3,0.6-7.6,2.8
				c-1.6,1.6-2.4,3.8-2.4,6.7l0,0.4c0.2,7,0.3,13.1-3.8,17.2C55.9,79.2,50.6,80.7,42.4,80.7z"/>
		</g>
		<g>
			<path class="st1" d="M15.8,76.1l5.7,1c0,0,0.7,5,4.9,4.5l0.5,3.3C26.9,85,15.1,89,15.8,76.1z"/>
		</g>
		<g>
			<path class="st1" d="M67.9,76.1l-5.7,1c0,0-0.7,5-4.9,4.5L56.8,85C56.8,85,68.5,89,67.9,76.1z"/>
		</g>
		<line class="st0" x1="22.3" y1="59.5" x2="61.4" y2="59.5"/>
		<line class="st0" x1="22.3" y1="64.8" x2="61.4" y2="64.8"/>
		<line class="st0" x1="22.3" y1="70.6" x2="61.4" y2="70.6"/>
		<g>
			<path class="st1" d="M10.1,89.1c0,0.2,0,0.3,0,0.5v8.1c0,2.2,1.8,4,4,4h3.4c2.2,0,4-1.8,4-4v-1.3C16.6,95.7,12.5,93,10.1,89.1z"
				/>
		</g>
		<path class="st1" d="M61.4,94.9v2.8c0,2.2,1.8,4,4,4h3.4c2.2,0,4-1.8,4-4v-8.1c0-0.5-0.1-0.9-0.2-1.3C70.1,92,66,94.6,61.4,94.9z"
			/>
		<g>
			<path class="st1" d="M4.5,41.6H1.5C0.7,41.6,0,40.9,0,40l0-10.8c0-0.9,0.7-1.5,1.5-1.5h2.9c0.9,0,1.5,0.7,1.5,1.5V40
				C6,40.9,5.3,41.6,4.5,41.6z"/>
			<g>
				<path class="st1" d="M10,48.4H5.8c-1.4,0-2.6-1.1-2.6-2.6V30.3h1.5v15.6c0,0.6,0.5,1.1,1.1,1.1H10V48.4z"/>
			</g>
			<g>
				<path class="st1" d="M10,25.7H5.8c-1.4,0-2.6,1.1-2.6,2.6v15.6h1.5V28.3c0-0.6,0.5-1.1,1.1-1.1H10V25.7z"/>
			</g>
		</g>
		<g>
			<path class="st1" d="M79.1,41.6H82c0.9,0,1.5-0.7,1.5-1.5V29.3c0-0.9-0.7-1.5-1.5-1.5h-2.9c-0.9,0-1.5,0.7-1.5,1.5V40
				C77.5,40.9,78.2,41.6,79.1,41.6z"/>
			<g>
				<path class="st1" d="M73.6,48.4h4.2c1.4,0,2.6-1.1,2.6-2.6V30.3h-1.5v15.6c0,0.6-0.5,1.1-1.1,1.1h-4.2V48.4z"/>
			</g>
			<g>
				<path class="st1" d="M73.6,25.7h4.2c1.4,0,2.6,1.1,2.6,2.6v15.6h-1.5V28.3c0-0.6-0.5-1.1-1.1-1.1h-4.2V25.7z"/>
			</g>
		</g>
	</g>
	<g>
		<path class="st1" d="M91.6,0c-6.7,0-12.2,5.5-12.2,12.2s5.5,12.2,12.2,12.2c6.7,0,12.2-5.5,12.2-12.2S98.3,0,91.6,0z M91.6,21.1
			c-4.9,0-8.9-4-8.9-8.9s4-8.9,8.9-8.9s8.9,4,8.9,8.9S96.5,21.1,91.6,21.1z"/>
		<path class="st1" d="M97,8.7c-0.4-0.4-1.1-0.3-1.4,0.1l-4.7,5.2c-0.2,0.2-0.4,0.2-0.6,0l-1-1.2c-0.4-0.4-1-0.5-1.4-0.1l-0.3,0.3
			c-0.4,0.4-0.5,1-0.1,1.4l1.6,1.9c0.4,0.4,0.9,0.7,1.5,0.7h0.2c0.6,0,1.1-0.2,1.5-0.7l5.2-5.7c0.4-0.4,0.3-1.1-0.1-1.4L97,8.7z"/>
	</g>
</g>
</svg>
