<?xml version="1.0" encoding="utf-8"?>
<!-- Generator: Adobe Illustrator 25.2.3, SVG Export Plug-In . SVG Version: 6.00 Build 0)  -->
<svg version="1.1" id="Capa_1" xmlns="http://www.w3.org/2000/svg" xmlns:xlink="http://www.w3.org/1999/xlink" x="0px" y="0px"
	 viewBox="0 0 145.1 105.6" style="enable-background:new 0 0 145.1 105.6;" xml:space="preserve">
<style type="text/css">
	.st0{fill:#FFFFFF;}
</style>
<g>
	<g>
		<path class="st0" d="M99.8,15.1c-24.9,0-45.2,20.3-45.2,45.2s20.3,45.2,45.2,45.2s45.2-20.3,45.2-45.2
			C145,35.4,124.8,15.1,99.8,15.1z M141.2,62.3c-0.1,3-0.6,6.1-1.4,9l-2.8-0.9l-1.2,3.7l2.8,0.9c-1.1,2.8-2.5,5.6-4.1,8.1l-2.4-1.7
			l-2.3,3.1l2.4,1.7c-1.9,2.4-4.1,4.5-6.4,6.4l-1.7-2.4l-3.1,2.3l1.7,2.4c-2.5,1.7-5.3,3.1-8.1,4.1l-0.9-2.8l-3.7,1.2l0.9,2.8
			c-2.9,0.8-6,1.3-9,1.4v-2.9h-3.9v2.9c-3-0.1-6.1-0.6-9-1.4l0.9-2.8l-3.7-1.2l-0.9,2.8c-2.8-1.1-5.6-2.5-8.1-4.1l1.7-2.4l-3.1-2.3
			L74,92.6c-2.4-1.9-4.5-4.1-6.4-6.4l2.4-1.7l-2.3-3.1l-2.4,1.7c-1.7-2.5-3.1-5.3-4.1-8.1l2.8-0.9l-1.2-3.7l-2.8,0.9
			c-0.8-2.9-1.3-6-1.4-9h2.9v-3.9h-2.9c0.1-3,0.6-6.1,1.4-9l2.8,0.9l1.2-3.7l-2.8-0.9c1.1-2.8,2.5-5.6,4.1-8.1l2.4,1.7l2.3-3.1
			l-2.4-1.7c1.9-2.4,4.1-4.5,6.4-6.4l1.7,2.4l3.1-2.3l-1.7-2.4c2.5-1.7,5.3-3.1,8.1-4.1l0.9,2.8l3.7-1.2l-0.9-2.8
			c2.9-0.8,6-1.3,9-1.4V22h3.9V19c3,0.1,6.1,0.6,9,1.4l-0.9,2.8l3.7,1.2l0.9-2.8c2.8,1.1,5.6,2.5,8.1,4.1l-1.7,2.4l3.1,2.3l1.7-2.4
			c2.4,1.9,4.5,4.1,6.4,6.4l-2.4,1.7l2.3,3.1l2.4-1.7c1.7,2.5,3.1,5.3,4.1,8.1l-2.8,0.9l1.2,3.7l2.8-0.9c0.8,2.9,1.3,6,1.4,9h-2.9
			v3.9H141.2z"/>
		<path class="st0" d="M99.8,27.1c-18.4,0-33.3,14.9-33.3,33.3s14.9,33.3,33.3,33.3s33.3-14.9,33.3-33.3
			C133.1,42,118.2,27.1,99.8,27.1z M129.3,60.3c0,16.2-13.2,29.4-29.4,29.4c-16.2,0-29.4-13.2-29.4-29.4s13.2-29.4,29.4-29.4
			S129.3,44.1,129.3,60.3z"/>
		<path class="st0" d="M99.8,34.5C85.6,34.5,74,46.1,74,60.3s11.6,25.8,25.8,25.8s25.8-11.6,25.8-25.8
			C125.6,46.1,114.1,34.5,99.8,34.5z M107,70.9c0.1-0.2,0.4-0.4,0.7-0.5c0.1,0,0.2,0,0.2,0c0.2,0,0.4,0.1,0.5,0.2l7.5,4.6
			c-2,2.2-4.4,3.9-7.1,5.2l-2.1-8.6C106.8,71.4,106.9,71.1,107,70.9z M103.7,68.9c-0.7,1.1-0.9,2.4-0.6,3.7l2.1,9
			c-3.6,0.9-7.3,0.9-10.9,0l2.1-9c0.6-2.6-1-5.3-3.6-5.9c-1.3-0.3-2.6-0.1-3.7,0.6l-7.9,4.8c-2-3.1-3.1-6.7-3.3-10.3l9.2-0.7
			c1.3-0.1,2.5-0.7,3.4-1.7c0.9-1,1.3-2.3,1.2-3.6c-0.1-1.3-0.7-2.5-1.7-3.3l-7-6c2.3-2.8,5.4-5,8.8-6.4l3.6,8.5
			c1,2.5,3.9,3.7,6.4,2.7c1.2-0.5,2.1-1.4,2.6-2.7l3.6-8.5c3.4,1.4,6.4,3.6,8.8,6.4l-7,6c-2.1,1.8-2.3,4.9-0.5,6.9
			c0.9,1,2,1.6,3.3,1.7l9.2,0.7c-0.2,3.7-1.4,7.2-3.3,10.3l-7.9-4.8c-1.1-0.7-2.4-0.9-3.7-0.6C105.5,67,104.4,67.8,103.7,68.9z
			 M92,70.4c0.3,0.1,0.5,0.2,0.7,0.5c0.1,0.2,0.2,0.5,0.1,0.8l-2,8.6c-2.7-1.2-5.1-3-7.1-5.2l7.5-4.6C91.4,70.4,91.7,70.4,92,70.4z
			 M100.8,47c-0.2,0.5-0.8,0.8-1.4,0.6c-0.3-0.1-0.5-0.3-0.6-0.6l-3.4-8.2c2.9-0.6,5.9-0.6,8.8,0L100.8,47z M112.8,57.2
			c-0.3,0-0.5-0.2-0.7-0.4c-0.2-0.2-0.3-0.5-0.2-0.8c0-0.3,0.2-0.5,0.4-0.7l6.7-5.8c1.5,2.5,2.4,5.4,2.7,8.3L112.8,57.2z M78,57.9
			c0.3-2.9,1.3-5.8,2.7-8.3l6.7,5.8c0.2,0.2,0.3,0.4,0.4,0.7c0,0.3-0.1,0.6-0.2,0.8c-0.2,0.2-0.4,0.3-0.7,0.4L78,57.9z"/>
		<path class="st0" d="M99.8,53.9c-3.5,0-6.4,2.9-6.4,6.4s2.9,6.4,6.4,6.4s6.4-2.9,6.4-6.4S103.4,53.9,99.8,53.9z M102.4,60.3
			c0,1.4-1.1,2.5-2.5,2.5s-2.5-1.1-2.5-2.5s1.1-2.5,2.5-2.5S102.4,58.9,102.4,60.3z"/>
	</g>
	<g>
		<path class="st0" d="M51,2.1c-1.2-2-3.7-2.7-5.7-1.5c-0.6,0.4-1.2,0.9-1.5,1.5L32.6,21.3c-1.2,2-0.5,4.6,1.5,5.8
			c0.6,0.4,1.4,0.6,2.1,0.6h22.1c2.3,0,4.2-1.9,4.2-4.2c0-0.7-0.2-1.5-0.6-2.1L51,2.1z M59.3,23.9c-0.2,0.3-0.5,0.5-0.9,0.5H36.3
			c-0.6,0-1-0.4-1-1c0-0.2,0-0.3,0.1-0.5L46.5,3.7c0.3-0.5,0.9-0.6,1.4-0.4c0.2,0.1,0.3,0.2,0.4,0.4l11.1,19.2
			C59.5,23.2,59.5,23.6,59.3,23.9z"/>
		<path class="st0" d="M47.4,8.6c-0.9,0-1.6,0.7-1.6,1.6v5.6c0,0.9,0.7,1.6,1.6,1.6c0.9,0,1.6-0.7,1.6-1.6v-5.6
			C49,9.4,48.2,8.6,47.4,8.6z"/>
		<path class="st0" d="M47.4,19.3c-0.9,0-1.6,0.7-1.6,1.6V21c0,0.9,0.7,1.6,1.6,1.6c0.9,0,1.6-0.7,1.6-1.6v-0.1
			C49,20,48.2,19.3,47.4,19.3z"/>
	</g>
	<g>
		<path class="st0" d="M46.2,42.5c-13,0-26,0-39,0c-1.8,0-3.7,0-5.5,0c-2.3,0-2.3,3.5,0,3.5c13,0,26,0,39,0c1.8,0,3.7,0,5.5,0
			C48.5,46,48.5,42.5,46.2,42.5L46.2,42.5z"/>
	</g>
	<g>
		<path class="st0" d="M52.1,84.6c-10.2,0-20.5,0-30.7,0c-1.5,0-3,0-4.4,0c-2.3,0-2.3,3.5,0,3.5c10.2,0,20.5,0,30.7,0
			c1.5,0,3,0,4.4,0C54.3,88.2,54.3,84.6,52.1,84.6L52.1,84.6z"/>
	</g>
	<g>
		<path class="st0" d="M43.9,63.6c-7.2,0-14.4,0-21.6,0c-1,0-2,0-3,0c-2.3,0-2.3,3.5,0,3.5c7.2,0,14.4,0,21.6,0c1,0,2,0,3,0
			C46.1,67.1,46.1,63.6,43.9,63.6L43.9,63.6z"/>
	</g>
</g>
</svg>
