<?xml version="1.0" encoding="utf-8"?>
<!-- Generator: Adobe Illustrator 25.2.3, SVG Export Plug-In . SVG Version: 6.00 Build 0)  -->
<svg version="1.1" id="Capa_1" xmlns="http://www.w3.org/2000/svg" xmlns:xlink="http://www.w3.org/1999/xlink" x="0px" y="0px"
	 viewBox="0 0 127.7 119" style="enable-background:new 0 0 127.7 119;" xml:space="preserve">
<style type="text/css">
	.st0{fill:#FFFFFF;}
</style>
<g>
	<path class="st0" d="M97.3,42.6l3.7-3.7c0.8-0.8,1.1-1.9,0.8-3c-0.3-1.1-1.1-1.9-2.2-2.2c-1.1-0.3-2.2,0-3,0.8l-3.7,3.7v0
		c-6.2-5.3-13.9-8.5-22.1-9.2c0,0,0-0.1,0-0.1v-3.7c9.7-3.5,7.4-18-3.1-18.1c-10.5,0.1-12.8,14.6-3.1,18.1v3.7c0,0,0,0.1,0,0.1
		c-9.4,0.7-18.3,4.9-24.8,11.7c-0.8,0.8-1.1,1.9-0.8,3c0.3,1.1,1.2,1.9,2.2,2.2c1.1,0.3,2.2-0.1,3-0.9c3-3.2,6.7-5.7,10.7-7.4
		c4-1.7,8.4-2.6,12.7-2.6c43.3,1.8,43.3,63.5,0,65.3h0c-4.4,0-8.7-0.9-12.7-2.6c-4-1.7-7.7-4.2-10.7-7.4c-0.8-0.8-1.9-1.1-3-0.9
		s-1.9,1.1-2.2,2.2c-0.3,1.1,0,2.2,0.8,3c3.6,3.8,7.9,6.7,12.7,8.8c4.8,2,10,3.1,15.2,3.1C100.7,106.8,118.7,67.3,97.3,42.6z
		 M70.3,18c-0.5,1-1.6,1.6-2.7,1.6c-1.1,0-2.1-0.6-2.7-1.6c-0.5-1-0.5-2.1,0-3.1s1.6-1.6,2.7-1.6c1.1,0,2.1,0.6,2.7,1.6
		C70.9,15.9,70.9,17.1,70.3,18z"/>
	<path class="st0" d="M20,54.8h23.3c1.1,0,2.1-0.6,2.7-1.6c0.5-1,0.5-2.1,0-3.1c-0.5-1-1.6-1.6-2.7-1.6H20c-1.1,0-2.1,0.6-2.7,1.6
		c-0.5,1-0.5,2.1,0,3.1C17.9,54.2,18.9,54.8,20,54.8z"/>
	<path class="st0" d="M45.5,88.5c0.6-0.6,0.9-1.4,0.9-2.2c0-0.8-0.3-1.6-0.9-2.2c-0.6-0.6-1.4-0.9-2.2-0.9H20
		c-1.1,0-2.1,0.6-2.7,1.6c-0.6,1-0.6,2.1,0,3.1c0.6,1,1.6,1.6,2.7,1.6h23.3C44.2,89.4,44.9,89.1,45.5,88.5z"/>
	<polygon class="st0" points="46.4,86.3 46.4,86.3 46.4,86.3 	"/>
	<polygon class="st0" points="36.2,69 36.2,69 36.2,69 	"/>
	<path class="st0" d="M35.3,71.2c0.6-0.6,0.9-1.4,0.9-2.2c0-0.8-0.3-1.6-0.9-2.2c-0.6-0.6-1.4-0.9-2.2-0.9H12.9
		c-1.1,0-2.1,0.6-2.7,1.6c-0.6,1-0.6,2.1,0,3.1c0.6,1,1.6,1.6,2.7,1.6h20.2C34,72.1,34.7,71.8,35.3,71.2z"/>
	<path class="st0" d="M58.4,69.6L58.4,69.6c0,3.2,1.7,6.2,4.4,7.9c2.7,1.7,6.1,1.9,9,0.6l10.9,10.9c0.8,0.8,1.9,1.1,3,0.8
		c1.1-0.3,1.9-1.1,2.2-2.2c0.3-1.1,0-2.2-0.8-3L76.1,73.6c1.2-2.6,1.2-5.5,0-8.1c-1.2-2.6-3.6-4.4-6.3-5c-2.8-0.6-5.7,0-7.9,1.8
		C59.7,64.1,58.4,66.8,58.4,69.6z M65,68.1c0.5-1,1.6-1.6,2.7-1.6v0c1.1,0,2.1,0.6,2.7,1.6c0.5,1,0.5,2.1,0,3.1
		c-0.5,1-1.6,1.6-2.7,1.6c-1.1,0-2.1-0.6-2.7-1.6C64.5,70.2,64.5,69,65,68.1z"/>
	<path class="st0" d="M68.6,45.7c1-0.5,1.6-1.6,1.6-2.7c0-1.1-0.6-2.1-1.6-2.7c-1-0.5-2.1-0.5-3.1,0S64,42,64,43.1
		c0,1.1,0.6,2.1,1.6,2.7C66.5,46.3,67.7,46.3,68.6,45.7z"/>
	<path class="st0" d="M120.8,93.4c-0.5-0.6-1.3-0.9-2.1-0.9l-6.8-0.1l3.4-5.1c0.8-1.1,0.5-2.7-0.7-3.5l0,0c-1.1-0.8-2.7-0.5-3.5,0.7
		l-5.9,8.7c-0.7,1-0.6,2.3,0.2,3.3c0.5,0.6,1.3,0.9,2.1,0.9l6.8,0.1l-7.4,11.1c-0.8,1.1-0.5,2.7,0.7,3.5c1.1,0.8,2.7,0.5,3.5-0.7
		l9.8-14.6C121.7,95.7,121.7,94.4,120.8,93.4z"/>
</g>
</svg>
