<?xml version="1.0" encoding="utf-8"?>
<!-- Generator: Adobe Illustrator 25.2.3, SVG Export Plug-In . SVG Version: 6.00 Build 0)  -->
<svg version="1.1" id="Capa_1" xmlns="http://www.w3.org/2000/svg" xmlns:xlink="http://www.w3.org/1999/xlink" x="0px" y="0px"
	 viewBox="0 0 99.9 100.2" style="enable-background:new 0 0 99.9 100.2;" xml:space="preserve">
<style type="text/css">
	.st0{fill:#FFFFFF;}
</style>
<g>
	<path class="st0" d="M98.8,72.1l-9.3-3.4c-0.9-0.3-1.8,0.1-2.1,1c0,0,0,0,0,0l-0.6,1.6L76,67.3c-0.3-0.1-0.6-0.1-0.9-0.1l-22.5,4
		c-2,0.4-3.8,1.7-4.7,3.5L37.6,71c-1.6-0.6-3.5-0.5-5.1,0.2c-2,0.9-3.4,2.8-3.8,5c-0.4,3.2,1.5,6.2,4.5,7.3l34,12.4
		c0.2,0.1,0.4,0.1,0.6,0.1c0.2,0,0.4,0,0.5-0.1l9.5-3.2l1,0.4l-0.6,1.6c-0.3,0.9,0.1,1.8,1,2.1c0,0,0,0,0,0l9.3,3.4
		c0.2,0.1,0.4,0.1,0.6,0.1c0.7,0,1.3-0.4,1.6-1.1l9.1-24.9C100.1,73.4,99.6,72.4,98.8,72.1z M77.3,89.3l-9.5,3.2L34.4,80.4
		c-1.5-0.5-2.5-2-2.4-3.7c0.3-1.8,1.9-3.1,3.7-2.8c0.2,0,0.5,0.1,0.7,0.2L47.2,78c0,0.3,0,0.6,0.1,0.9c0.6,3.6,4.1,6,7.7,5.4
		L73.5,81L73,77.7L54.3,81c-1.8,0.3-3.5-0.9-3.8-2.7c-0.1-0.4-0.1-0.8,0-1.1c0-0.1,0-0.1,0-0.2c0-0.1,0.1-0.3,0.1-0.4
		c0.4-1.1,1.4-1.9,2.5-2.1l22-3.9l10.4,3.8L80,89.9l-1.6-0.6C78.1,89.2,77.7,89.2,77.3,89.3z M88.2,96.4l-6.2-2.3l7.9-21.8l6.2,2.3
		L88.2,96.4z"/>
	<path class="st0" d="M38.5,26.7c0.5,2,1.5,3.8,2.9,5.3c0,0.1,0,0.3-0.1,0.4v9c0,2.7,2.2,5,5,5v16.5c0,0.6,0.4,1.2,0.9,1.5l3.3,1.7
		c0.5,0.2,1,0.2,1.5,0l3.3-1.7c0.6-0.3,0.9-0.9,0.9-1.5V46.3c2.7,0,5-2.2,5-5v-9c0-0.1,0-0.3-0.1-0.4c1.1-1.2,2-2.6,2.5-4.2
		c2.4,0.4,4.9-0.7,6.2-2.8c1.6-2.6,1.1-5.9-1-8.1L55.4,3.4C53.2,1.2,50.2,0,47.2,0H29.8c-0.2,0-0.4,0-0.7,0.1L17.9,5h-1.3V1.7
		c0-0.9-0.7-1.7-1.7-1.7H1.7C0.7,0,0,0.7,0,1.7v26.5c0,0.9,0.7,1.7,1.7,1.7h13.2c0.9,0,1.7-0.7,1.7-1.7v-3.3h0.2
		c1.2,4,6.5,6.6,11.3,6.6C32.1,31.5,36,29.8,38.5,26.7z M13.2,26.5H3.3V3.3h9.9V26.5z M52.9,61.8l-1.7,0.8l-1.7-0.8V46.3h3.3V61.8z
		 M57.9,41.4c0,0.9-0.7,1.7-1.7,1.7h-9.9c-0.9,0-1.7-0.7-1.7-1.7v-6.8c1.1,0.6,2.3,1.1,3.6,1.4c0.7,1.7,2.6,2.5,4.3,1.8
		c1.7-0.7,2.5-2.6,1.8-4.3c-0.7-1.7-2.6-2.5-4.3-1.8c-0.5,0.2-1,0.6-1.4,1c-0.9-0.2-1.8-0.6-2.6-1.1c1.6-1,3.4-1.6,5.2-1.8
		c2.4,0.3,4.6,1.2,6.6,2.6V41.4z M59.1,29.2c-2.4-1.5-5.1-2.5-7.8-2.8c-2.8,0.3-5.5,1.2-7.8,2.8c-1-1.3-1.7-2.8-1.9-4.4h8.1
		c2.4,0,4.7-1.3,5.8-3.5L60,26c0.2,0.2,0.4,0.3,0.6,0.5C60.3,27.5,59.8,28.4,59.1,29.2z M56.2,17.4c-0.2-1.4-0.7-2.6-1.6-3.6
		c3.7,1.3,6.4,4.7,6.6,8.6L56.2,17.4z M36.4,23.2c0,2.5-4.1,5-8.3,5s-8.3-2.5-8.3-5c0-0.9-0.7-1.7-1.7-1.7h-1.7V8.3h1.7
		c0.2,0,0.4,0,0.7-0.1l11.3-4.8h17.1c2.2,0,4.3,0.9,5.9,2.4l13.5,13.5c1.1,1,1.3,2.6,0.6,3.9c-0.6,0.9-1.5,1.4-2.6,1.4
		c0,0-0.1,0-0.1,0c0-0.5,0.1-0.9,0.1-1.4c0-7.3-5.9-13.2-13.2-13.2c-2.2,0-4.4,0.6-6.3,1.7H31.4v3.3h18.2c1.8,0,3.3,1.5,3.3,3.3
		s-1.5,3.3-3.3,3.3H38C37.1,21.5,36.4,22.2,36.4,23.2z"/>
</g>
</svg>
