<?xml version="1.0" encoding="utf-8"?>
<!-- Generator: Adobe Illustrator 25.2.3, SVG Export Plug-In . SVG Version: 6.00 Build 0)  -->
<svg version="1.1" id="Capa_1" xmlns="http://www.w3.org/2000/svg" xmlns:xlink="http://www.w3.org/1999/xlink" x="0px" y="0px"
	 viewBox="0 0 93.2 116.8" style="enable-background:new 0 0 93.2 116.8;" xml:space="preserve">
<style type="text/css">
	.st0{fill:#FFFFFF;}
</style>
<g>
	<path class="st0" d="M65.3,16.4c0.3-0.8-0.1-1.6-0.8-1.9L29.2,0.1C28.8,0,28.4,0,28,0.1c-0.4,0.2-0.7,0.4-0.8,0.8l-6.1,15
		c-1,2.6-4,3.8-6.6,2.8c-0.8-0.3-1.6,0.1-1.9,0.8L0.2,50.2c-0.1,0.4-0.1,0.8,0,1.1C0.4,51.7,0.7,52,1,52.1l16.5,6.7
		c3,1.2,6.3,0.8,8.9-1c0.6,3.1,2.7,5.7,5.7,6.9l16.5,6.7c0.2,0.1,0.4,0.1,0.6,0.1c0.2,0,0.4,0,0.6-0.1c0.4-0.2,0.7-0.4,0.8-0.8
		L62.9,40c0.1-0.4,0.1-0.8,0-1.1c-0.2-0.4-0.4-0.7-0.8-0.8c-2.6-1-3.8-4-2.8-6.6L65.3,16.4z M56.6,47.6l-0.3,0.9l-21-8.5l0.3-0.9
		L56.6,47.6z M59.6,40.1l-1.9,4.7l-21-8.5l3.1-7.7c2.8-0.8,14-4.4,15.7-14.5l6.5,2.6l-5.5,13.7C55,33.9,56.4,38,59.6,40.1z
		 M39.5,25.5c-2.4-4.2-5.4-11.9-0.8-18.3l14.1,5.7C51.7,20.7,44.2,24.1,39.5,25.5z M37.1,27.4l-3.1,7.8l-21-8.5l1.9-4.7
		c3.8,0.8,7.6-1.3,9.1-4.9l5.5-13.7l6.5,2.6C30.1,14.5,35.6,24.9,37.1,27.4z M55.1,51.2l-1.6,4l-21-8.5l1.6-4L55.1,51.2z M11.5,30.3
		l0.3-0.9l21,8.5l-0.3,0.9L11.5,30.3z M52.4,57.9L52,58.8l-21-8.5l0.4-0.9L52.4,57.9z M8.7,37l1.6-4l21,8.5l-1.6,4L8.7,37z
		 M7.2,40.7l0.4-0.9l21,8.5l-0.4,0.9L7.2,40.7z M50.9,61.6L48.3,68l-15.1-6.1c-3.2-1.3-4.8-5-3.5-8.2l0.2-0.6L50.9,61.6z M19.5,56.3
		c-0.3-0.1-0.6-0.2-0.8-0.3L3.5,49.9l2.6-6.5l21,8.5C26.2,55.2,22.8,57.1,19.5,56.3z"/>
	<g>
		<path class="st0" d="M3.7,86.3c-1.2,1-1.4,2.8-0.5,4.1c-0.3,0.1-0.7,0.3-0.9,0.5C1.1,91.9,0.9,93.8,2,95c-0.3,0.1-0.6,0.3-0.9,0.5
			c-1.3,1.1-1.4,3-0.3,4.2l13.8,15.4c1.7,1.9,4.6,2.1,6.5,0.5l7.1-6c1.7-1.4,2.1-3.9,1.1-5.8l-2.6-7.1l5.1-4.3
			c1.7-1.4,2.2-3.9,1.1-5.8l-7-16.9c-0.1-0.4-0.3-0.7-0.5-0.9c-0.7-0.8-1.8-1.2-2.8-1c-0.8,0.2-1.4,0.6-1.8,1.3
			c-0.4,0.7-0.5,1.5-0.3,2.2l0.8,3L19.9,73c0,0,0,0,0,0l-5.7-6.7c-1.1-1.3-3-1.4-4.2-0.4c-0.3,0.3-0.6,0.6-0.8,1
			c-1.1-0.6-2.4-0.5-3.4,0.3c-1.2,1-1.4,2.8-0.5,4.1c-0.3,0.1-0.7,0.3-0.9,0.5C3.2,72.9,3,74.8,4.1,76c-0.3,0.1-0.6,0.3-0.9,0.5
			c-1.3,1.1-1.4,3-0.3,4.2l4.4,4.9c0,0.1-0.1,0.2-0.1,0.2C6,85.4,4.7,85.4,3.7,86.3z M27.4,104.6c0,0.1,0,0.1,0.1,0.1
			c0.6,1.1,0.4,2.6-0.6,3.4l-7.1,6c-1.1,1-2.8,0.8-3.8-0.3L2.2,98.5c-0.4-0.4-0.3-1.1,0.1-1.5c0.4-0.4,1.1-0.3,1.5,0.1l4.6,5.4
			l1.4,1.7c0.3,0.4,1,0.5,1.4,0.1s0.5-1,0.1-1.4l-1.4-1.7l-4.6-5.4l-1.8-2.1c-0.4-0.4-0.3-1.1,0.1-1.5s1.1-0.3,1.5,0.1l5.5,6.5
			l0.8,1c0.3,0.4,1,0.5,1.4,0.1s0.5-1,0.1-1.4l-0.8-1l-5.5-6.5l-1.7-2c-0.4-0.4-0.3-1.1,0.1-1.5s1.1-0.3,1.5,0.1l1.1,1.2l5.7,6.7
			l0.4,0.5c0.3,0.4,1,0.5,1.4,0.1c0.4-0.3,0.5-1,0.1-1.4l-0.4-0.5L9,87.9c-0.4-0.4-0.3-1.1,0.1-1.5c0,0,0,0,0,0c0,0,0,0,0,0
			c0.4-0.4,1.1-0.3,1.4,0.1l5.7,6.7l4,4.7c0.3,0.3,0.8,0.4,1.2,0.2c0.4-0.2,0.6-0.7,0.5-1.1L20.1,90c-0.1-0.2,0-0.5,0.1-0.7
			c0.1-0.2,0.3-0.4,0.6-0.4c0.5-0.1,0.9,0.2,1.1,0.6L27.4,104.6z M4.4,78c0.2-0.2,0.5-0.3,0.7-0.2c0.2,0,0.5,0.1,0.7,0.4l4.6,5.4
			l0,0c0.3,0.4,1,0.5,1.4,0.1c0.4-0.3,0.5-1,0.1-1.4l0,0l-4.6-5.4l-1.8-2.1c-0.4-0.4-0.3-1.1,0.1-1.5C6.1,73,6.8,73,7.2,73.4
			l5.5,6.5l0.8,1c0.3,0.4,1,0.5,1.4,0.1c0.4-0.3,0.5-1,0.1-1.4l-0.8-1l-5.5-6.5l-1.7-2c-0.4-0.4-0.3-1.1,0.1-1.5
			c0.4-0.4,1.1-0.3,1.5,0.1l1.1,1.2l5.7,6.7l0.4,0.5c0.3,0.4,1,0.5,1.4,0.1c0.4-0.3,0.5-1,0.1-1.4l-0.4-0.5l-5.7-6.7
			c-0.4-0.4-0.3-1.1,0.1-1.5c0.4-0.4,1.1-0.3,1.5,0.1l5.7,6.7c0,0,0,0,0,0l4,4.7c0.3,0.3,0.8,0.4,1.2,0.2c0.4-0.2,0.6-0.7,0.5-1.1
			L22.3,71c-0.1-0.3,0-0.5,0.1-0.7c0.1-0.2,0.3-0.4,0.6-0.4c0.3-0.1,0.7,0,0.9,0.3c0.1,0.1,0.1,0.2,0.2,0.4l7,17c0,0,0,0.1,0.1,0.1
			c0.6,1.1,0.4,2.6-0.6,3.4L26,94.9l-2.2-6c-0.5-1.4-1.9-2.2-3.3-1.9c-0.8,0.2-1.4,0.6-1.8,1.3c-0.4,0.7-0.5,1.5-0.3,2.2l0.8,3
			L17.8,92l-5.7-6.7c-0.8-1-2.2-1.3-3.4-0.8l-4.4-4.9C3.9,79.1,4,78.4,4.4,78z"/>
		<path class="st0" d="M93.2,65.9c0-2.2-1.8-3.9-3.9-3.9c-0.7,0-1.3,0.2-1.9,0.5c-0.6-1.7-2-3-3.9-3.3L71,57.3v-0.1h-1.1
			c-1.3-0.1-2.5,0.3-3.5,1.2c-0.2,0.2-0.4,0.4-0.6,0.6c-0.1,0.1-0.1,0.2-0.2,0.2c0,0-0.1,0.1-0.1,0.1c-0.1,0.1-0.2,0.3-0.2,0.4
			c0,0,0,0,0,0c-0.1,0.1-0.1,0.3-0.2,0.4c0,0,0,0,0,0c-0.1,0.1-0.1,0.3-0.2,0.4c0,0,0,0,0,0c-0.1,0.5-0.2,0.9-0.2,1.4V75
			c0,2.9-2.3,5.2-5.2,5.2h-0.8c-5,0-9.1,4.1-9.1,9.1v3.6v2.3v5.5H71v-1.9c0-0.1,0.1-0.2,0.1-0.3c0.1-0.1,0.2-0.1,0.3-0.1
			c0.3,0,0.4,0.2,0.4,0.4v1.9h15.8v-5.5v-2.3V77.8v-2.4l4.1-5.3C92.7,68.9,93.2,67.4,93.2,65.9z M90.9,65.9c0,1-0.3,2-1,2.8
			l-2.3,2.9v-5.8c0-0.9,0.7-1.6,1.6-1.6S90.9,65,90.9,65.9z M85.4,92.9h-7.6l2.6-8.3c0.7-2.3,2.6-4,5-4.4V92.9z M85.4,98.4H74.2
			C74,97.1,72.8,96,71.5,96c-1.4,0-2.5,1-2.7,2.4h-2.5v-1.6H64v1.6h-2.5v-1.6h-2.3v1.6h-2.5v-1.6h-2.3v1.6H52v-3.2h22.6h10.7V98.4z
			 M64.5,89.6C64.5,89.6,64.5,89.6,64.5,89.6c1.5,0,2.9,0.7,3.7,1.9l1,1.4H52v-3.6c0-3.3,2.4-6.1,5.6-6.7v0.1
			C57.6,86.5,60.7,89.6,64.5,89.6z M78.2,83.9l-2.8,9H72l-1.9-2.7c-1.3-1.8-3.4-2.9-5.6-2.9c0,0,0,0,0,0c-2.5,0-4.6-2.1-4.6-4.6
			v-0.2c3.6-0.2,6.6-2.9,7.1-6.4c2.3-0.5,4-2.5,4-5v-3.6h2.5v7.2c0,2.2,1.8,3.9,3.9,3.9h0c2.2,0,3.9-1.8,3.9-3.9v-7.2h4v10.5
			C82,78.3,79.2,80.6,78.2,83.9z M75.8,60.4l3.2,0.5v13.8c0,0.9-0.7,1.6-1.6,1.6c-0.9,0-1.6-0.7-1.6-1.6V60.4z M67.1,62.1
			c0-1,0.6-1.9,1.5-2.3c0,0,0.1,0,0.1,0c0,0,0.1,0,0.1,0V71c0,1.1-0.7,2.1-1.7,2.6V62.1z M85.4,65.1h-4v-4l1.8,0.3
			c1.3,0.2,2.2,1.2,2.2,2.5V65.1z M73.5,65.1H71v-5.5l2.5,0.4V65.1z"/>
	</g>
</g>
</svg>
