<?xml version="1.0" encoding="utf-8"?>
<!-- Generator: Adobe Illustrator 25.2.3, SVG Export Plug-In . SVG Version: 6.00 Build 0)  -->
<svg version="1.1" id="Capa_1" xmlns="http://www.w3.org/2000/svg" xmlns:xlink="http://www.w3.org/1999/xlink" x="0px" y="0px"
	 viewBox="0 0 125.7 127.6" style="enable-background:new 0 0 125.7 127.6;" xml:space="preserve">
<style type="text/css">
	.st0{fill:#FFFFFF;}
</style>
<g>
	<g>
		<path class="st0" d="M28.8,50.5l-0.1-0.2c-0.5-0.7-1.5-0.9-2.4-0.5l-6.6,3c-4.2,1.9-8,4.4-11.4,7.5l-5.3,4.9
			c-0.8,0.7-1,1.7-0.5,2.4l0.1,0.2c-2.5,2-3.3,5.3-1.8,7.6l0.7,1c1.5,2.3,4.8,2.9,7.7,1.3L9.3,78c0.5,0.7,1.5,0.9,2.4,0.5l6.6-3
			c2.1-0.9,4.1-2,6-3.3c1.9-1.3,3.7-2.7,5.4-4.2l5.3-4.9c0.8-0.7,1-1.7,0.5-2.4l-0.1-0.2c2.5-2,3.3-5.3,1.8-7.6l-0.7-1
			C35,49.5,31.6,49,28.8,50.5z M8.5,76.8c-2.2,1.1-4.7,0.6-5.9-1.1l-0.7-1c-1.1-1.7-0.6-4.2,1.3-5.8L8.5,76.8z M34.3,61.4
			c0.2,0.2,0.1,0.6-0.2,0.8l-5.3,4.9c-3.2,3-6.9,5.4-10.9,7.2l-6.6,3c-0.3,0.1-0.6,0.1-0.8-0.2L3.6,66.8c-0.2-0.2-0.1-0.6,0.2-0.8
			l5.3-4.9c3.2-3,6.9-5.4,10.9-7.2l6.6-3c0.3-0.1,0.6-0.1,0.8,0.2L34.3,61.4z M36,53.6c1.1,1.7,0.6,4.2-1.3,5.8l-5.2-7.9
			c2.2-1.1,4.7-0.6,5.9,1.1L36,53.6z"/>
		<path class="st0" d="M27.6,57.7L9.7,69.5c-0.3,0.2-0.4,0.6-0.3,0.9s0.6,0.3,0.9,0.1l17.9-11.8c0.3-0.2,0.4-0.6,0.3-0.9
			C28.3,57.6,27.9,57.5,27.6,57.7z"/>
		<path class="st0" d="M25.6,54.7L7.7,66.5c-0.3,0.2-0.4,0.6-0.3,0.9s0.6,0.3,0.9,0.1l17.9-11.8c0.3-0.2,0.4-0.6,0.3-0.9
			C26.3,54.6,25.9,54.5,25.6,54.7z"/>
		<path class="st0" d="M29.5,60.7L11.7,72.5c-0.3,0.2-0.4,0.6-0.3,0.9s0.6,0.3,0.9,0.1l17.9-11.8c0.3-0.2,0.4-0.6,0.3-0.9
			C30.3,60.6,29.9,60.5,29.5,60.7z"/>
	</g>
	<g>
		<path class="st0" d="M61.8,11.9c-0.3,0.5-0.3,1-0.1,1.5l6.9,13.5c0.1,0.2,0.3,0.4,0.5,0.6l9.2,5.9c0.6,0.4,1.4,0.3,1.9-0.2
			l5.7-5.4l1.7,1.1l-2.5,7.4c-0.2,0.7,0,1.4,0.6,1.8L95,44c0.2,0.1,0.3,0.2,0.5,0.2c0.1,0,0.2,0,0.2,0l15.2,0.6c0.5,0,1-0.2,1.3-0.7
			l2.1-3.3l3.7,2.4l1.6-2.6l-3.7-2.4l0.7-1.1l3.7,2.4L122,37L64.3,0l-1.6,2.6l3.7,2.4L65.6,6l-3.7-2.4l-1.6,2.6l3.7,2.4L61.8,11.9z
			 M90.3,27l-3.7-2.4c-0.6-0.4-1.4-0.3-1.9,0.2L79,30.2l-7.9-5l-6.3-12.4l4-6.3l45.3,29l-4,6.3l-13.9-0.6l-7.9-5l2.5-7.4
			C91.1,28.1,90.8,27.4,90.3,27z"/>
		<rect x="69.6" y="13.8" transform="matrix(0.9767 -0.2145 0.2145 0.9767 -1.5726 16.0424)" class="st0" width="7" height="3"/>
		<rect x="75.1" y="17.3" transform="matrix(0.9767 -0.2145 0.2145 0.9767 -2.2018 17.3123)" class="st0" width="7" height="3"/>
	</g>
	<path class="st0" d="M31.2,97.1c-1.2,1-1.4,2.8-0.5,4.1c-0.3,0.1-0.7,0.3-0.9,0.5c-1.3,1.1-1.4,2.9-0.4,4.2
		c-0.3,0.1-0.6,0.3-0.9,0.5c-1.3,1.1-1.4,3-0.3,4.2L42,126c1.7,1.9,4.6,2.1,6.5,0.5l7.1-6c1.7-1.4,2.1-3.9,1.1-5.8l-2.6-7.1l5.1-4.3
		c1.7-1.4,2.2-3.9,1.1-5.8l-7-16.9c-0.1-0.4-0.3-0.7-0.5-0.9c-0.7-0.8-1.8-1.2-2.8-1c-0.8,0.2-1.4,0.6-1.8,1.3
		c-0.4,0.7-0.5,1.5-0.3,2.2l0.8,3l-1.3-1.5c0,0,0,0,0,0l-5.7-6.7c-1.1-1.3-3-1.4-4.2-0.4c-0.3,0.3-0.6,0.6-0.8,1
		c-1.1-0.6-2.4-0.5-3.4,0.3c-1.2,1-1.4,2.8-0.5,4.1c-0.3,0.1-0.7,0.3-0.9,0.5c-1.3,1.1-1.4,2.9-0.4,4.2c-0.3,0.1-0.6,0.3-0.9,0.5
		c-1.3,1.1-1.4,3-0.3,4.2l4.4,4.9c0,0.1-0.1,0.2-0.1,0.2C33.5,96.2,32.1,96.3,31.2,97.1z M54.9,115.4c0,0.1,0,0.1,0.1,0.1
		c0.6,1.1,0.4,2.6-0.6,3.4l-7.1,6c-1.1,1-2.8,0.8-3.8-0.3l-13.8-15.4c-0.4-0.4-0.3-1.1,0.1-1.5s1.1-0.3,1.5,0.1l4.6,5.4l1.4,1.7
		c0.3,0.4,1,0.5,1.4,0.1c0.4-0.3,0.5-1,0.1-1.4l-1.4-1.7l-4.6-5.4l-1.8-2.1c-0.4-0.4-0.3-1.1,0.1-1.5s1.1-0.3,1.5,0.1l5.5,6.5l0.8,1
		c0.3,0.4,1,0.5,1.4,0.1c0.4-0.3,0.5-1,0.1-1.4l-0.8-1L34,102l-1.7-2c-0.4-0.4-0.3-1.1,0.1-1.5s1.1-0.3,1.5,0.1l1.1,1.2l5.7,6.7
		l0.4,0.5c0.3,0.4,1,0.5,1.4,0.1s0.5-1,0.1-1.4l-0.4-0.5l-5.7-6.7c-0.4-0.4-0.3-1.1,0.1-1.5c0,0,0,0,0,0c0,0,0,0,0,0
		c0.4-0.4,1.1-0.3,1.4,0.1l5.7,6.7l4,4.7c0.3,0.3,0.8,0.4,1.2,0.2c0.4-0.2,0.6-0.7,0.5-1.1l-1.8-7.1c-0.1-0.2,0-0.5,0.1-0.7
		c0.1-0.2,0.3-0.4,0.6-0.4c0.5-0.1,0.9,0.2,1.1,0.6L54.9,115.4z M31.9,88.8c0.2-0.2,0.5-0.3,0.7-0.2c0.2,0,0.5,0.1,0.7,0.4l4.6,5.4
		l0,0c0.3,0.4,1,0.5,1.4,0.1c0.4-0.3,0.5-1,0.1-1.4l0,0l-4.6-5.4L33,85.6c-0.4-0.4-0.3-1.1,0.1-1.5c0.4-0.4,1.1-0.3,1.5,0.1l5.5,6.5
		l0.8,1c0.3,0.4,1,0.5,1.4,0.1c0.4-0.3,0.5-1,0.1-1.4l-0.8-1L36.1,83l-1.7-2c-0.4-0.4-0.3-1.1,0.1-1.5s1.1-0.3,1.5,0.1l1.1,1.2
		l5.7,6.7l0.4,0.5c0.3,0.4,1,0.5,1.4,0.1s0.5-1,0.1-1.4l-0.4-0.5l-5.7-6.7c-0.4-0.4-0.3-1.1,0.1-1.5s1.1-0.3,1.5,0.1l5.7,6.7
		c0,0,0,0,0,0l4,4.7c0.3,0.3,0.8,0.4,1.2,0.2c0.4-0.2,0.6-0.7,0.5-1.1l-1.8-7.1c-0.1-0.3,0-0.5,0.1-0.7c0.1-0.2,0.3-0.4,0.6-0.4
		c0.3-0.1,0.7,0,0.9,0.3c0.1,0.1,0.1,0.2,0.2,0.4l7,17c0,0,0,0.1,0.1,0.1c0.6,1.1,0.4,2.6-0.6,3.4l-4.6,3.9l-2.2-6
		c-0.5-1.4-1.9-2.2-3.3-1.9c-0.8,0.2-1.4,0.6-1.8,1.3c-0.4,0.7-0.5,1.5-0.3,2.2l0.8,3l-1.3-1.5l-5.7-6.7c-0.8-1-2.2-1.3-3.4-0.8
		l-4.4-4.9C31.4,89.9,31.4,89.2,31.9,88.8z"/>
	<path class="st0" d="M125.7,67.9c0-2.5-2-4.5-4.5-4.5c-0.8,0-1.5,0.2-2.1,0.5c-0.6-2-2.3-3.4-4.4-3.8l-14.2-2.1V58h-1.3
		c-1.5-0.1-2.9,0.4-4,1.4c-0.2,0.2-0.4,0.4-0.6,0.7c-0.1,0.1-0.1,0.2-0.2,0.3c0,0.1-0.1,0.1-0.1,0.2c-0.1,0.1-0.2,0.3-0.3,0.4
		c0,0,0,0,0,0c-0.1,0.1-0.2,0.3-0.2,0.5c0,0,0,0,0,0c-0.1,0.2-0.1,0.3-0.2,0.5c0,0,0,0,0,0c-0.2,0.5-0.3,1.1-0.3,1.6v14.7
		c0,3.3-2.6,5.9-5.9,5.9h-0.9c-5.7,0-10.3,4.6-10.3,10.3v4.1v2.6v6.3h24.3v-2.2c0-0.1,0.1-0.3,0.2-0.4c0.1-0.1,0.2-0.1,0.3-0.1
		c0.3,0,0.5,0.2,0.5,0.5v2.2h17.9v-6.3v-2.6V81.5v-2.8l4.6-6C125.1,71.4,125.7,69.6,125.7,67.9z M123,67.9c0,1.2-0.4,2.3-1.1,3.2
		l-2.6,3.3v-6.6c0-1,0.8-1.8,1.8-1.8C122.2,66,123,66.9,123,67.9z M116.7,98.6h-8.6l3-9.4c0.8-2.6,3-4.5,5.7-5V98.6z M116.7,104.9
		H104c-0.2-1.5-1.5-2.7-3.1-2.7s-2.9,1.2-3.1,2.7H95v-1.8h-2.6v1.8h-2.8v-1.8H87v1.8h-2.8v-1.8h-2.6v1.8h-2.8v-3.7h25.8h12.2V104.9z
		 M93,94.9C93,94.9,93,94.9,93,94.9c1.7,0,3.3,0.8,4.3,2.2l1.1,1.5H78.8v-4.1c0-3.8,2.8-7,6.4-7.6V87C85.2,91.4,88.7,94.9,93,94.9z
		 M108.6,88.4l-3.2,10.2h-3.8l-2.1-3c-1.5-2.1-3.9-3.3-6.4-3.3c0,0,0,0,0,0c-2.9,0-5.2-2.4-5.2-5.2v-0.3c4.1-0.2,7.5-3.3,8-7.3
		c2.6-0.6,4.6-2.9,4.6-5.7v-4.1h2.8v8.2c0,2.5,2,4.5,4.5,4.5h0c2.5,0,4.5-2,4.5-4.5v-8.2h4.6v11.9C112.9,82,109.7,84.7,108.6,88.4z
		 M105.8,61.6l3.7,0.5v15.7c0,1-0.8,1.8-1.8,1.8c-1,0-1.8-0.8-1.8-1.8V61.6z M95.9,63.5c0-1.2,0.7-2.2,1.7-2.6c0,0,0.1,0,0.1-0.1
		c0,0,0.1,0,0.1,0v12.9c0,1.3-0.8,2.4-1.9,2.9V63.5z M116.7,67h-4.6v-4.5l2.1,0.3c1.4,0.2,2.5,1.4,2.5,2.9V67z M103.2,67h-2.8v-6.2
		l2.8,0.4V67z"/>
	<g>
		<path class="st0" d="M56.4,52.5v5.1h1.2v-4.3c0-0.6,0.5-1.1,1.1-1.1h13.1c0.6,0,1.1,0.5,1.1,1.1v4.3h1.2v-5.1
			c0-0.8-0.7-1.5-1.5-1.5H57.9C57,51,56.4,51.7,56.4,52.5L56.4,52.5z M56.4,59.9v0.9c5.9,0,11.8,0,17.7,0v-0.9
			C68.2,59.9,62.3,59.9,56.4,59.9L56.4,59.9z M56.4,63v5.1c0,0.8,0.7,1.5,1.5,1.5h14.7c0.8,0,1.5-0.7,1.5-1.5V63h-1.2v4.3
			c0,0.6-0.5,1.1-1.1,1.1H58.7c-0.6,0-1.1-0.5-1.1-1.1V63H56.4L56.4,63z M70.6,63H59.8v3.1h10.8V63z M70.6,54.5H59.8v3.1h10.8V54.5z
			 M54.1,52.6h-5.9c-1.1,0-2.2-0.4-3.2-1v13c0,1.9,1.5,3.4,3.4,3.4h5.7C54.1,62.9,54.1,57.8,54.1,52.6z M54.8,70.3h-6.4
			c-3.1,0-5.6-2.5-5.6-5.6V48c0-2.8,2-5.9,5.1-5.6L77.4,43c5.1,0.1,6.2,5,7.2,8.9c7,5.1,4.8,18.4-5.9,18.4h-3.2
			c-0.7,1-1.8,1.6-3,1.6H57.9C56.6,71.9,55.5,71.3,54.8,70.3L54.8,70.3z M76.3,68.1h2.5c10.5,0,9.4-15.4,1.1-15.4h-3.6
			C76.3,57.8,76.3,62.9,76.3,68.1z M75.6,50.4h4.3c0.7,0,1.4,0.1,2.1,0.3c-0.6-2.4-1.7-5.3-4.6-5.4l-29.5-0.6
			c-4.1,0.3-3.6,5.7,0.3,5.7h6.6c0.7-1,1.8-1.6,3.1-1.6h14.7C73.8,48.8,74.9,49.4,75.6,50.4L75.6,50.4z"/>
	</g>
</g>
</svg>
