<?xml version="1.0" encoding="utf-8"?>
<!-- Generator: Adobe Illustrator 25.2.3, SVG Export Plug-In . SVG Version: 6.00 Build 0)  -->
<svg version="1.1" id="Capa_1" xmlns="http://www.w3.org/2000/svg" xmlns:xlink="http://www.w3.org/1999/xlink" x="0px" y="0px"
	 viewBox="0 0 169.9 114.2" style="enable-background:new 0 0 169.9 114.2;" xml:space="preserve">
<style type="text/css">
	.st0{fill:#FFFFFF;}
	.st1{fill:none;}
	.st2{fill-rule:evenodd;clip-rule:evenodd;fill:#FFFFFF;}
</style>
<g>
	<path class="st0" d="M72.5,33c-0.1,0-0.3,0-0.4,0l-6.4,0.8c-0.2,0-0.3,0.1-0.5,0.1v0l0,0c-0.2,0.1-0.3,0.1-0.5,0.2l-5.6,2.3v1.2
		l4.2-1.2c0.1,1.3,1.2,2.4,2.7,2.4h6.4c1.5,0,2.7-1.1,2.7-2.5v-0.6h3.7v0.6c0,1.4,1.2,2.5,2.7,2.5h6.4c1.5,0,2.6-1.1,2.7-2.4
		l4.2,1.2v-1.2l-5.6-2.3c-0.2-0.1-0.3-0.1-0.5-0.2l0,0v0c-0.1,0-0.3-0.1-0.5-0.1L82,33c-0.2,0-0.3,0-0.5,0"/>
	<g>
		<g>
			<g>
				<path class="st0" d="M135.1,45.9v-1c0-4-3.3-7.2-7.2-7.2c-4,0-7.2,3.3-7.2,7.2v1c0,6.9-5.6,12.4-12.4,12.4c0,0,0,0,0,0H87.5
					v-2.8c6.2-3.6,10.4-10.3,10.4-17.9V23.1c0-5-3.6-9.2-8.3-10.1V6.5c0-1.1-0.9-2.1-2.1-2.1H75c-10.3,0-18.6,8.4-18.6,18.6v6.3
					c0,0,0,0,0,0v8.2c0,7.6,4.2,14.3,10.4,17.9v2.8H46.1c0,0,0,0,0,0c-6.9,0-12.4-5.6-12.4-12.4v-1c0-4-3.3-7.2-7.2-7.2
					c-4,0-7.2,3.3-7.2,7.2v1c0,14.8,12.1,26.9,26.9,26.9h1c-0.6,2-1,4-1,6.2v4.1c0,8-6.5,14.5-14.5,14.5h-1c-4,0-7.2,3.3-7.2,7.2
					c0,4,3.3,7.2,7.2,7.2h1c10.5,0,19.8-5.6,24.9-14.1v14.1c0,1.1,0.9,2.1,2.1,2.1c1.1,0,2.1-0.9,2.1-2.1v-29c0-1.1-0.9-2.1-2.1-2.1
					c-1.1,0-2.1,0.9-2.1,2.1c0,13.7-11.1,24.9-24.9,24.9h-1c-1.7,0-3.1-1.4-3.1-3.1c0-1.7,1.4-3.1,3.1-3.1h1
					c10.3,0,18.6-8.4,18.6-18.6V79c0-9.1,7.4-16.6,16.6-16.6H68l3.5,3.5c0.1,0.1,0.2,0.2,0.4,0.3c0,0,0.1,0,0.1,0.1
					c0.1,0.1,0.2,0.1,0.4,0.2c0,0,0.1,0,0.1,0c0.2,0,0.3,0.1,0.5,0.1c0,0,0,0,0,0c0,0,0,0,0,0c0,0,0,0,0,0c0.1,0,0.3,0,0.4,0
					c0,0,0.1,0,0.1,0c0.1,0,0.2-0.1,0.3-0.1c0,0,0,0,0.1,0l3.2-1.6l3.2,1.6c0,0,0,0,0.1,0c0.1,0,0.2,0.1,0.3,0.1c0,0,0.1,0,0.1,0
					c0.1,0,0.3,0,0.4,0c0,0,0,0,0,0c0,0,0,0,0,0c0,0,0,0,0,0c0.2,0,0.3,0,0.5-0.1c0,0,0.1,0,0.1,0c0.1,0,0.3-0.1,0.4-0.2
					c0,0,0.1,0,0.1-0.1c0.1-0.1,0.3-0.2,0.4-0.3l0,0c0,0,0,0,0,0l3.5-3.5h1.2c9.1,0,16.6,7.4,16.6,16.6v4.1
					c0,10.3,8.4,18.6,18.6,18.6h1c1.7,0,3.1,1.4,3.1,3.1c0,1.7-1.4,3.1-3.1,3.1h-1c-13.7,0-24.9-11.1-24.9-24.9
					c0-1.1-0.9-2.1-2.1-2.1c-1.1,0-2.1,0.9-2.1,2.1v29c0,1.1,0.9,2.1,2.1,2.1c1.1,0,2.1-0.9,2.1-2.1V98.1
					c5.1,8.4,14.3,14.1,24.9,14.1h1c4,0,7.2-3.3,7.2-7.2c0-4-3.3-7.2-7.2-7.2h-1c-8,0-14.5-6.5-14.5-14.5V79c0-2.2-0.3-4.3-1-6.2h1
					C123,72.8,135.1,60.7,135.1,45.9z M75,8.6h10.4v6.2c0,1.1,0.9,2.1,2.1,2.1c3.4,0,6.2,2.8,6.2,6.2v2.4l-3-2c0,0-0.1,0-0.1-0.1
					c0,0,0,0-0.1,0c-0.1-0.1-0.2-0.1-0.3-0.1c0,0,0,0,0,0c-0.1,0-0.2-0.1-0.3-0.1c0,0,0,0-0.1,0c-0.1,0-0.2,0-0.3,0c0,0-0.1,0-0.1,0
					c-0.1,0-0.2,0-0.3,0c0,0-0.1,0-0.1,0c-0.1,0-0.2,0.1-0.3,0.1c0,0,0,0-0.1,0c0,0-3.9,1.9-10.5,1.9c-6.8,0-12.7-1.9-12.8-2
					c0,0-0.1,0-0.1,0c-0.1,0-0.1,0-0.2,0c-0.1,0-0.2,0-0.2,0c-0.1,0-0.1,0-0.2,0c-0.1,0-0.2,0-0.2,0c-0.1,0-0.1,0-0.2,0
					c-0.1,0-0.2,0-0.2,0.1c-0.1,0-0.1,0-0.2,0.1c-0.1,0-0.1,0.1-0.2,0.1c0,0-0.1,0-0.1,0.1l-3,2v-2.4C60.6,15.1,67.1,8.6,75,8.6z
					 M60.6,37.6v-7.1l4.5-3c2.1,0.6,7.3,1.9,13.1,1.9c5.5,0,9.3-1.1,11.2-1.8l4.4,3v7.1c0,9.1-7.4,16.6-16.6,16.6
					C68,54.2,60.6,46.7,60.6,37.6z M77.1,58.3c2.2,0,4.3-0.3,6.2-1v2.2L80.9,62L78,60.6c0,0-0.1,0-0.1-0.1c-0.1,0-0.1-0.1-0.2-0.1
					c-0.1,0-0.1,0-0.2,0c-0.1,0-0.1,0-0.2,0c-0.1,0-0.1,0-0.2,0c-0.1,0-0.2,0-0.3,0c0,0-0.1,0-0.1,0c-0.1,0-0.2,0-0.3,0.1
					c0,0-0.1,0-0.1,0c-0.1,0-0.1,0-0.2,0.1L73.4,62l-2.5-2.5v-2.2C72.9,58,75,58.3,77.1,58.3z M48.8,68.7h-2.8
					c-12.6,0-22.8-10.2-22.8-22.8v-1c0-1.7,1.4-3.1,3.1-3.1c1.7,0,3.1,1.4,3.1,3.1v1c0,9.1,7.4,16.5,16.5,16.6c0,0,0,0,0,0h8.3
					C52.1,64.1,50.2,66.2,48.8,68.7z M108.2,62.5C108.2,62.5,108.2,62.5,108.2,62.5c9.2,0,16.6-7.4,16.6-16.6v-1
					c0-1.7,1.4-3.1,3.1-3.1c1.7,0,3.1,1.4,3.1,3.1v1c0,12.6-10.2,22.8-22.8,22.8h-2.8c-1.4-2.4-3.3-4.5-5.5-6.2H108.2z"/>
				<path class="st0" d="M39.8,33.5v-29c0-1.1-0.9-2.1-2.1-2.1h-4.1c0,0,0,0,0,0H12.9c-1.1,0-2.1,0.9-2.1,2.1v29
					c0,1.1,0.9,2.1,2.1,2.1h24.9C38.9,35.5,39.8,34.6,39.8,33.5z M28.4,8.6h-6.1l-1.4-2.1h8.8L28.4,8.6z M35.7,31.4H15V6.5h1
					l3.5,5.3c0,0,0,0,0,0c0.1,0.1,0.2,0.2,0.3,0.4c0,0,0.1,0.1,0.1,0.1c0.1,0.1,0.2,0.1,0.3,0.2c0,0,0.1,0.1,0.1,0.1
					c0.1,0,0.2,0.1,0.3,0.1c0,0,0.1,0,0.1,0c0.1,0,0.3,0.1,0.5,0.1h8.3c0.2,0,0.3,0,0.5-0.1c0,0,0.1,0,0.1,0c0.1,0,0.2-0.1,0.3-0.1
					c0,0,0.1,0,0.1-0.1c0.1-0.1,0.2-0.1,0.3-0.2c0,0,0.1-0.1,0.1-0.1c0.1-0.1,0.2-0.2,0.3-0.4c0,0,0,0,0,0l3.5-5.3h1V31.4z"/>
				<path class="st0" d="M29.5,16.9h-8.3c-1.1,0-2.1,0.9-2.1,2.1c0,1.1,0.9,2.1,2.1,2.1h8.3c1.1,0,2.1-0.9,2.1-2.1
					C31.6,17.8,30.6,16.9,29.5,16.9z"/>
				<path class="st0" d="M29.5,23.1h-8.3c-1.1,0-2.1,0.9-2.1,2.1c0,1.1,0.9,2.1,2.1,2.1h8.3c1.1,0,2.1-0.9,2.1-2.1
					C31.6,24,30.6,23.1,29.5,23.1z"/>
			</g>
			<g transform="matrix(1,0,0,1,0,-160)">
				<g transform="matrix(1,0,0,1,0,160)">
					
						<rect x="119.6" y="8" transform="matrix(0.8486 -0.529 0.529 0.8486 5.8871 78.8473)" class="st1" width="42.3" height="42.3"/>
					<path class="st2" d="M134,18l-3.5-1.9c-0.4-0.2-0.7-0.6-0.7-1.1c0-0.4,0.1-0.9,0.5-1.2c0.7-0.6,1.6-1,2.6-1.3
						c4.2-1.3,8.6,1.1,9.8,5.2c0.4,1.3,0.4,2.6,0.2,3.8c-0.3,1.6,0,3.3,0.9,4.8c0.2,0.4,0.5,0.8,0.7,1.2c0.9,1.5,2.3,2.5,4,2.9
						c0.7,0.2,1.1,0.9,0.9,1.6c-0.2,0.7-0.9,1.1-1.6,0.9c-2.3-0.6-4.3-2.1-5.5-4.1c-0.2-0.4-0.5-0.8-0.7-1.2c-1.2-2-1.7-4.4-1.2-6.6
						c0.2-0.8,0.1-1.7-0.1-2.5c-0.8-2.6-3.5-4.2-6.1-3.6l2.4,1.3c0.6,0.3,0.9,1.1,0.5,1.8l-2.5,4.7c-0.3,0.6-1.1,0.9-1.8,0.5
						l-2.4-1.3c0.6,1.6,2,2.7,3.5,3.1c2.3,0.6,4.2,2.1,5.4,4l0,0c0,0,0.3,0.5,0.7,1.2c1.3,2,1.7,4.4,1.2,6.7c-0.3,1.3,0,2.6,0.7,3.8
						c1.5,2.5,4.8,3.2,7.3,1.7s3.2-4.8,1.7-7.3c-0.4-0.6-0.2-1.4,0.4-1.8s1.4-0.2,1.8,0.4c2.3,3.7,1.2,8.6-2.5,10.9
						c-3.7,2.3-8.6,1.2-10.9-2.5c-1.1-1.8-1.4-3.8-1-5.7c0.3-1.7,0-3.4-0.9-4.8c-0.4-0.7-0.7-1.2-0.7-1.2c-0.9-1.4-2.3-2.4-3.9-2.9
						c-2.5-0.7-4.7-2.6-5.5-5.3c-0.3-1-0.4-1.9-0.3-2.9c0-0.4,0.3-0.8,0.7-1.1c0.4-0.2,0.9-0.2,1.3,0l3.5,1.9L134,18z M144.9,34.5
						c-0.5,0-0.9,0.3-1.1,0.7l-1.2,2.3c-0.2,0.4-0.2,0.9,0,1.3l1.4,2.2c0.2,0.4,0.7,0.6,1.2,0.6l2.6-0.1c0.5,0,0.9-0.3,1.1-0.7
						l1.2-2.3c0.2-0.4,0.2-0.9,0-1.3l-1.4-2.2c-0.2-0.4-0.7-0.6-1.2-0.6L144.9,34.5z M145.2,38.1l0.6,0.9l1.1,0l0.5-1l-0.6-0.9
						l-1.1,0L145.2,38.1z"/>
				</g>
			</g>
			<g>
				<path class="st0" d="M32.8,71.6l-1.2-1.2c-0.4-0.4-0.9-0.4-1.4-0.2l-4.7,2.4c-0.3,0.2-0.6,0.5-0.6,0.9c-0.1,0.4,0.1,0.8,0.3,1
					l0.9,0.9l-9,9l-3.3-3.3c-0.5-0.5-1.2-0.5-1.7,0l-2.6,2.5c-0.3,0.3-0.4,0.8-0.3,1.2c0.3,0.8,0,1.8-0.6,2.4
					c-0.6,0.6-1.5,0.8-2.4,0.6c-0.4-0.1-0.9,0-1.2,0.3l-3.1,3.1c-2.8,2.8-2.8,7.2,0,10c2.8,2.8,7.2,2.8,10,0l3.1-3.1
					c0.3-0.3,0.4-0.8,0.3-1.2c-0.3-0.8,0-1.8,0.6-2.4c0.6-0.6,1.5-0.8,2.4-0.6c0.4,0.1,0.9,0,1.2-0.3l2.5-2.6c0.5-0.5,0.5-1.2,0-1.7
					l-3.3-3.3l9-9l0.9,0.9c0.3,0.3,0.6,0.4,1,0.3c0.4-0.1,0.7-0.3,0.9-0.6L33,73C33.3,72.5,33.2,72,32.8,71.6z M19.7,90.2l-1.3,1.3
					c-1.5-0.2-2.9,0.3-4,1.3c0,0,0,0,0,0c-1.1,1.1-1.5,2.5-1.3,4l-2.7,2.7c-1.8,1.8-4.9,1.8-6.6,0c-1.8-1.8-1.8-4.8,0-6.6l2.7-2.7
					c1.5,0.2,2.9-0.3,4-1.3c1.1-1.1,1.5-2.5,1.3-4l1.3-1.3L19.7,90.2z"/>
				<path class="st0" d="M5.1,96.5c-0.5,0.5-0.5,1.2,0,1.7c0.5,0.5,1.2,0.5,1.7,0l7.1-7.1c0.5-0.5,0.5-1.2,0-1.7s-1.2-0.5-1.7,0
					L5.1,96.5z"/>
			</g>
			<g>
				<path class="st0" d="M139.6,70.4c-8.1,0-14.7,6.6-14.7,14.8s6.6,14.7,14.7,14.7s14.7-6.6,14.7-14.7S147.7,70.4,139.6,70.4z
					 M139.6,96.9c-6.5,0-11.8-5.3-11.8-11.8c0-6.5,5.3-11.8,11.8-11.8c6.5,0,11.8,5.3,11.8,11.8C151.4,91.7,146.1,96.9,139.6,96.9z"
					/>
				<path class="st0" d="M145.5,85.1C145.5,85.1,145.5,85.1,145.5,85.1h-4.4v-5.9c0-0.8-0.7-1.5-1.5-1.5c0,0,0,0,0,0
					c-0.8,0-1.5,0.7-1.5,1.5c0,0,0,0,0,0v7.4c0,0.8,0.7,1.5,1.5,1.5h5.9c0.8,0,1.5-0.7,1.5-1.5C147,85.7,146.3,85.1,145.5,85.1z"/>
			</g>
			<g>
				<path class="st0" d="M73.8,84.2H62.9c-0.5,0-0.8-0.4-0.8-0.8v-3.8c0-0.5,0.4-0.8,0.8-0.8h10.8c0.5,0,0.8,0.4,0.8,0.8v3.8
					C74.6,83.8,74.2,84.2,73.8,84.2z"/>
				<path class="st0" d="M91,84.2H80.1c-0.5,0-0.8-0.4-0.8-0.8v-3.8c0-0.5,0.4-0.8,0.8-0.8H91c0.5,0,0.8,0.4,0.8,0.8v3.8
					C91.8,83.8,91.4,84.2,91,84.2z"/>
			</g>
		</g>
		<path class="st0" d="M100.3,15.8c-0.3,0.3-0.1,0.8,0.3,0.9c0.9,0.3,1.8,0.6,2.8,0.9c1.2,0.4,2.4,0.7,3.7,0.6
			c1.2,0,2.5-0.4,3.5-1.2c1.9-1.6,1.5-5-1-5.8c-2-0.7-4.9,1.1-6.4,2.1C102.1,14,101.2,14.8,100.3,15.8z"/>
		<path class="st0" d="M98,13c0,0.3,0.4,0.4,0.6,0.3c0.6-0.4,1.2-0.7,1.8-1c0.8-0.5,1.5-1,2.1-1.7c0.6-0.7,1-1.5,1-2.4
			c0-1.8-1.9-3.2-3.6-2.3c-1.3,0.7-1.8,3.1-2,4.5C97.9,11.2,97.8,12.1,98,13z"/>
		<path class="st0" d="M101.8,20.7c-0.2,0-0.3,0.1-0.2,0.3c0.1,0.4,0.2,0.7,0.4,1.1c0.2,0.5,0.4,0.9,0.7,1.3
			c0.3,0.4,0.7,0.7,1.2,0.8c1,0.2,1.9-0.7,1.6-1.7c-0.3-0.8-1.5-1.3-2.2-1.5C102.8,20.9,102.3,20.8,101.8,20.7z"/>
	</g>
</g>
</svg>
