<?xml version="1.0" encoding="utf-8"?>
<!-- Generator: Adobe Illustrator 25.2.3, SVG Export Plug-In . SVG Version: 6.00 Build 0)  -->
<svg version="1.1" id="Capa_1" xmlns="http://www.w3.org/2000/svg" xmlns:xlink="http://www.w3.org/1999/xlink" x="0px" y="0px"
	 viewBox="0 0 127.7 119" style="enable-background:new 0 0 127.7 119;" xml:space="preserve">
<style type="text/css">
	.st0{fill-rule:evenodd;clip-rule:evenodd;fill:#FFFFFF;}
	.st1{fill:#FFFFFF;}
</style>
<g>
	<g>
		<g>
			<path class="st0" d="M54.5,66.4c0,0.7-0.6,1.3-1.3,1.3c-0.7,0-1.3-0.6-1.3-1.3c0-0.7,0.6-1.3,1.3-1.3
				C53.9,65.1,54.5,65.6,54.5,66.4"/>
			<path class="st0" d="M70.1,66.4c0,0.7-0.6,1.3-1.3,1.3c-0.7,0-1.3-0.6-1.3-1.3c0-0.7,0.6-1.3,1.3-1.3
				C69.5,65.1,70.1,65.6,70.1,66.4"/>
			<path class="st0" d="M61,70.3c2.1,0,4,0.4,5.2,0.9c-1.5,1.1-3.3,1.7-5.2,1.7c-1.9,0-3.7-0.6-5.2-1.7C57,70.7,58.9,70.3,61,70.3z
				 M52.7,70.3c-0.4,0.5-0.4,1.3,0.1,1.8c2.2,2.2,5.1,3.4,8.3,3.4c3.1,0,6.1-1.2,8.3-3.4c0.5-0.5,0.5-1.2,0.1-1.8
				c-1.4-1.6-4.7-2.6-8.3-2.6C57.3,67.7,54.1,68.7,52.7,70.3z M52.3,61.2c1.1-3.8,4.6-6.5,8.7-6.5c4.1,0,7.6,2.7,8.7,6.5H52.3z
				 M61,52.1c-5.9,0-10.9,4.4-11.6,10.2c-0.1,0.8,0.5,1.5,1.3,1.5h20.6c0.8,0,1.4-0.7,1.3-1.5C71.9,56.5,66.9,52.1,61,52.1z
				 M61,48.2c-8.6,0-15.6,7-15.6,15.6s7,15.6,15.6,15.6s15.6-7,15.6-15.6S69.6,48.2,61,48.2z M61,50.8c7.2,0,13,5.8,13,13
				s-5.8,13-13,13s-13-5.8-13-13S53.8,50.8,61,50.8z"/>
		</g>
	</g>
	<path class="st1" d="M33.1,11.7c0.5-1,0.7-2.2,0.7-3.4c0-4.6-3.7-8.3-8.3-8.3c-4.3,0-7.9,3.3-8.2,7.6c-1.4,0.4-2.6,1.1-3.7,2.2
		c-2.3,2.3-3.1,5.7-2,8.7L8.1,22l-0.6-0.6c-0.6-0.6-1.5-0.6-2.1,0L1.8,25c-0.3,0.3-0.4,0.7-0.4,1.1c0,0.4,0.2,0.8,0.4,1.1l0.6,0.6
		l-1.9,1.9c-0.6,0.6-0.6,1.5,0,2.1L3.7,35c0.3,0.3,0.7,0.4,1.1,0.4s0.8-0.2,1.1-0.4L17,23.8c0.9,0.3,1.8,0.4,2.7,0.4
		c0.7,0,1.4-0.1,2.1-0.3v4.1H21c-0.8,0-1.5,0.7-1.5,1.5v5.2c0,0.8,0.7,1.5,1.5,1.5h0.8V39c0,0.8,0.7,1.5,1.5,1.5h4.6
		c0.8,0,1.5-0.7,1.5-1.5V23.2c2.9-1.4,4.7-4.4,4.7-7.6C34,14.2,33.6,12.9,33.1,11.7z M25.5,3c2.9,0,5.3,2.3,5.3,5.3
		c0,0.2,0,0.4,0,0.6c-1.4-1.1-3.2-1.8-5.2-1.8c-1.1,0-2.2,0.2-3.2,0.6c-0.6-0.2-1.3-0.3-2-0.4C20.8,4.9,22.9,3,25.5,3z M15.5,21
		L4.7,31.8l-1.1-1.1l1.9-2c0.3-0.3,0.4-0.6,0.4-1.1c0-0.4-0.2-0.8-0.4-1.1L5,26.1l1.5-1.5L7,25.1c0.6,0.6,1.5,0.6,2.1,0l5.2-5.2
		c0.5-0.5,0.6-1.1,0.3-1.7c-1-2.1-0.6-4.6,1.1-6.3c0.9-0.9,2-1.4,3.1-1.5c-1.1,1.4-1.8,3.3-1.8,5.2c0,2.1,0.8,4.1,2.2,5.7
		c-0.7,0-1.4-0.2-2-0.5C16.7,20.5,16,20.6,15.5,21z M27.3,20.8c-0.6,0.2-1,0.8-1,1.4v15.3h-1.6v-2.7c0-0.8-0.7-1.5-1.5-1.5h-0.8
		v-2.2h0.8c0.8,0,1.5-0.7,1.5-1.5v-7.4c0-0.6-0.4-1.2-1-1.4C21.5,20,20,18,20,15.6c0-3,2.5-5.5,5.5-5.5c1.5,0,2.9,0.6,3.9,1.7
		c-1,1.1-2.4,1.8-3.9,1.8c-0.8,0-1.5,0.7-1.5,1.5c0,0.8,0.7,1.5,1.5,1.5c2,0,4-0.8,5.4-2c0.1,0.3,0.1,0.7,0.1,1.1
		C31,18,29.5,20,27.3,20.8z"/>
	<g>
		<g>
			<path class="st0" d="M108.5,89.4c-8.1-0.8-15.4,5.2-16.2,13.3c-0.8,8.1,5.2,15.5,13.3,16.2c8.1,0.8,15.5-5.2,16.2-13.4
				C122.6,97.5,116.6,90.1,108.5,89.4z M107.2,103.3c-0.5-0.1-0.9,0.3-1,0.8c-0.1,0.5,0.3,0.9,0.8,0.9c0.5,0.1,0.9-0.3,0.9-0.8
				C108,103.8,107.6,103.3,107.2,103.3z M107.8,96.2c4.4,0.5,7.6,4.3,7.1,8.7c-0.4,4.4-4.3,7.6-8.7,7.1c-4.3-0.4-7.5-4.3-7.1-8.7
				C99.6,99,103.5,95.8,107.8,96.2z M111.5,101.2l0.8-0.9c0.6,0.8,1,1.6,1.2,2.5l-1.2-0.1L111.5,101.2z M109.1,98l-0.7,1l-1.7-0.2
				l-0.4-1.2C107.2,97.6,108.2,97.7,109.1,98z M102.7,99.4l0.6,1.1l-1,1.4l-1.2-0.2C101.5,100.8,102.1,100,102.7,99.4z M100.7,105.5
				h1.2l0.7,1.6l-0.8,1C101.4,107.3,101,106.4,100.7,105.5z M105.1,110.3l0.6-1l1.8,0.2l0.4,1.1C107,110.7,106,110.6,105.1,110.3z
				 M111.4,109l-0.6-1.1l1-1.4l1.2,0.2C112.7,107.5,112.1,108.3,111.4,109z M106.8,106.7c-1.4-0.1-2.4-1.4-2.3-2.9
				c0.2-1.4,1.4-2.4,2.9-2.3c1.4,0.2,2.5,1.4,2.3,2.9C109.6,105.8,108.3,106.9,106.8,106.7z M106,114.9c-5.9-0.6-10.2-5.8-9.6-11.7
				c0.6-5.9,5.8-10.2,11.7-9.6c5.9,0.6,10.3,5.8,9.7,11.7C117.2,111.1,112,115.4,106,114.9z"/>
		</g>
		<g>
			<path class="st1" d="M96.3,119H88c-0.9,0-1.6-0.7-1.6-1.6v-8.2c0-0.6,0.4-1.2,1-1.4c0.6-0.2,1.2-0.1,1.7,0.3l8.4,8.2
				c0.5,0.4,0.6,1.1,0.4,1.7C97.5,118.6,97,119,96.3,119z M88,109c0,0-0.1,0-0.1,0c-0.1,0-0.2,0.1-0.2,0.3v8.2
				c0,0.2,0.1,0.3,0.3,0.3h8.4c0.2,0,0.2-0.1,0.3-0.2c0-0.1,0.1-0.2-0.1-0.3l-8.4-8.2C88.1,109,88,109,88,109z"/>
		</g>
		<g>
			<path class="st1" d="M116.3,118c-0.2-0.6-0.1-1.3,0.4-1.7l8.4-8.2c0.5-0.4,1.1-0.6,1.7-0.3c0.6,0.2,1,0.8,1,1.4v8.2
				c0,0.9-0.7,1.6-1.6,1.6h-8.4C117.1,119,116.5,118.6,116.3,118z M125.9,109.1l-8.4,8.2c-0.1,0.1-0.1,0.2-0.1,0.3
				c0,0.1,0.1,0.2,0.3,0.2h8.4c0.2,0,0.3-0.1,0.3-0.3v-8.2c0-0.2-0.1-0.2-0.2-0.3c0,0-0.1,0-0.1,0C126.1,109,126,109,125.9,109.1z"
				/>
		</g>
	</g>
	<path class="st1" d="M60.9,20.5h-17c-0.8,0-1.6,0-2.4,0c-3.2,0-3.2,5,0,5h15.7c0.6,0,1.2,0.5,1.2,1.2v12.2c0,0.7,0,1.5,0,2.2
		c0,3.2,5,3.2,5,0c0-5.3,0-10.6,0-15.9V23C63.4,21.7,62.2,20.5,60.9,20.5z"/>
	<path class="st1" d="M80.4,101.8H64.6c-0.6,0-1-0.5-1-1V88.5c0-0.7,0-1.5,0-2.2c0-3.2-5-3.2-5,0c0,5.3,0,10.6,0,15.9v2.2
		c0,1.4,1.1,2.5,2.5,2.5h17c0.8,0,1.6,0,2.4,0C83.6,106.8,83.7,101.8,80.4,101.8z"/>
</g>
</svg>
