<?xml version="1.0" encoding="utf-8"?>
<!-- Generator: Adobe Illustrator 25.2.3, SVG Export Plug-In . SVG Version: 6.00 Build 0)  -->
<svg version="1.1" id="Capa_1" xmlns="http://www.w3.org/2000/svg" xmlns:xlink="http://www.w3.org/1999/xlink" x="0px" y="0px"
	 viewBox="0 0 99.5 96.5" style="enable-background:new 0 0 99.5 96.5;" xml:space="preserve">
<style type="text/css">
	.st0{fill:#FFFFFF;}
</style>
<path class="st0" d="M75.4,30.5l-3.3-6.7c-0.4-0.8-1.4-1.2-2.3-0.8l-2.9,1.4l-2.5-5.2C59,8.4,47.4,2,35.4,3.2l-1-2.4
	c-0.2-0.4-0.5-0.8-1-1c-0.4-0.2-0.9-0.1-1.4,0.1l-3,1.5l-0.3-0.6c-0.2-0.4-0.5-0.8-1-0.9c-0.4-0.2-0.9-0.1-1.4,0.1L10.9,7.6
	c-0.4,0.2-0.7,0.6-0.9,1C9.9,9.1,10,9.6,10.2,10l0.3,0.6l-3,1.5c-0.4,0.2-0.7,0.6-0.9,1c-0.1,0.5-0.1,0.9,0.2,1.4l1.3,2.2
	c-8.2,8.8-10.2,21.9-4.9,32.7l2.5,5.2L2.8,56c-0.4,0.2-0.7,0.6-0.9,1c-0.1,0.4-0.1,0.9,0.1,1.3l3.3,6.7c0.2,0.4,0.6,0.7,1,0.9
	c0.2,0.1,0.4,0.1,0.6,0.1c0.3,0,0.5-0.1,0.8-0.2l67-33C75.5,32.3,75.8,31.3,75.4,30.5z M71.6,30.4L7.7,61.9l-1.8-3.6l63.9-31.5
	L71.6,30.4z M27.7,43.7l-17-29.4l1.5-0.7L29.1,43L27.7,43.7z M9.9,19.7l14.7,25.5L8.8,53l-2.5-5.2C1.7,38.5,3.1,27.6,9.9,19.7z
	 M32.2,41.5L14.1,9.9l12.4-6.1l14,33.7L32.2,41.5z M43.5,35.9L30.5,4.6L32,3.8l12.9,31.4L43.5,35.9z M48,33.7L36.8,6.5
	c10.3-0.6,19.9,5,24.5,14.3l2.5,5.2L48,33.7z"/>
<path class="st0" d="M99.5,51.3c0-2.8-2.3-5.1-5.1-5.1c-0.9,0-1.7,0.2-2.4,0.6c-0.7-2.2-2.6-3.9-5.1-4.3l-16.2-2.4V40h-1.4
	c-1.7-0.1-3.3,0.5-4.5,1.6c-0.3,0.2-0.5,0.5-0.7,0.7c-0.1,0.1-0.2,0.2-0.2,0.3c0,0.1-0.1,0.1-0.1,0.2c-0.1,0.2-0.2,0.3-0.3,0.5
	c0,0,0,0,0,0c-0.1,0.2-0.2,0.3-0.3,0.5c0,0,0,0,0,0c-0.1,0.2-0.1,0.4-0.2,0.6c0,0,0,0,0,0c-0.2,0.6-0.3,1.2-0.3,1.9v16.8
	c0,3.7-3,6.7-6.7,6.7h-1c-6.5,0-11.8,5.3-11.8,11.8v4.7v3v7.2h27.7V94c0-0.2,0.1-0.3,0.2-0.4c0.1-0.1,0.2-0.2,0.4-0.2
	c0.3,0,0.6,0.2,0.6,0.6v2.5h20.5v-7.2v-3V66.7v-3.1l5.3-6.8C98.8,55.2,99.5,53.2,99.5,51.3z M96.5,51.3c0,1.3-0.5,2.6-1.3,3.7
	l-3,3.8v-7.5c0-1.2,0.9-2.1,2.1-2.1C95.5,49.1,96.5,50.1,96.5,51.3z M89.3,86.3h-9.8l3.4-10.7c0.9-3,3.4-5.2,6.5-5.7V86.3z
	 M89.3,93.5H74.7c-0.2-1.7-1.7-3.1-3.5-3.1c-1.8,0-3.3,1.3-3.5,3.1h-3.2v-2.1h-3v2.1h-3.2v-2.1h-3v2.1h-3.2v-2.1h-3v2.1h-3.2v-4.2
	h29.4h13.9V93.5z M62.2,82.1C62.2,82.1,62.2,82.1,62.2,82.1c1.9,0,3.7,0.9,4.9,2.5l1.2,1.8H45.9v-4.7c0-4.3,3.2-7.9,7.3-8.7v0.2
	C53.3,78.1,57.3,82.1,62.2,82.1z M80,74.7l-3.7,11.6H72l-2.4-3.4c-1.7-2.4-4.4-3.8-7.3-3.8c0,0,0,0,0,0c-3.3,0-6-2.7-6-6v-0.3
	c4.7-0.2,8.5-3.8,9.2-8.4c3-0.6,5.3-3.3,5.3-6.5v-4.7h3.2v9.3c0,2.8,2.3,5.1,5.1,5.1h0c2.8,0,5.1-2.3,5.1-5.1v-9.3h5.2v13.6
	C84.9,67.4,81.3,70.4,80,74.7z M76.8,44.1l4.2,0.6v17.9c0,1.2-0.9,2.1-2.1,2.1s-2.1-0.9-2.1-2.1V44.1z M65.5,46.3
	c0-1.3,0.8-2.5,1.9-3c0,0,0.1,0,0.1-0.1c0,0,0.1,0,0.1,0v14.8c0,1.5-0.9,2.7-2.2,3.3V46.3z M89.3,50.3H84v-5.2l2.4,0.3
	c1.6,0.2,2.8,1.6,2.8,3.3V50.3z M73.8,50.3h-3.2v-7.1l3.2,0.5V50.3z"/>
</svg>
