<?xml version="1.0" encoding="utf-8"?>
<!-- Generator: Adobe Illustrator 25.2.3, SVG Export Plug-In . SVG Version: 6.00 Build 0)  -->
<svg version="1.1" id="Capa_1" xmlns="http://www.w3.org/2000/svg" xmlns:xlink="http://www.w3.org/1999/xlink" x="0px" y="0px"
	 viewBox="0 0 101.3 109.8" style="enable-background:new 0 0 101.3 109.8;" xml:space="preserve">
<style type="text/css">
	.st0{fill-rule:evenodd;clip-rule:evenodd;fill:#FFFFFF;}
	.st1{fill-rule:evenodd;clip-rule:evenodd;fill:#FFFFFA;}
	.st2{fill:#FFFFFF;}
</style>
<g>
	<g>
		<path class="st0" d="M49.2,73.7l0-3.5c-1.9,0-3.8-0.3-5.7-0.7l-0.8,3.4C44.8,73.4,47,73.7,49.2,73.7z"/>
		<path class="st0" d="M60.6,71.3l-1.4-3.2c-0.9,0.3-1.8,0.8-2.7,1l-1.4,0.4l-1.4,0.3l0.6,3.5l1.6-0.3l1.6-0.5
			C58.6,72.2,59.6,71.7,60.6,71.3z"/>
		<path class="st0" d="M70.1,64.5l-2.6-2.4c-0.7,0.7-1.3,1.4-2,2L64.3,65c-0.4,0.3-0.7,0.6-1.2,0.8l2,2.9c0.5-0.3,0.9-0.6,1.3-1
			l1.3-1C68.5,66.1,69.3,65.3,70.1,64.5z"/>
		<path class="st0" d="M22.5,54.2l3.3-1.1c-0.3-0.9-0.6-1.8-0.7-2.8c-0.1-0.5-0.2-0.9-0.3-1.4l-0.1-1.4l-3.5,0.3l0.2,1.6
			c0.1,0.5,0.2,1.1,0.3,1.6C21.9,52.1,22.2,53.1,22.5,54.2z"/>
		<path class="st0" d="M28.3,64.3l2.6-2.3c-0.6-0.7-1.2-1.5-1.8-2.2c-0.5-0.8-1.1-1.6-1.5-2.4L24.6,59c0.5,1,1.1,1.9,1.7,2.8
			C26.9,62.6,27.6,63.5,28.3,64.3z"/>
		<path class="st0" d="M37.7,71.2l1.4-3.2c-0.9-0.4-1.7-0.9-2.5-1.3c-0.8-0.6-1.6-1-2.4-1.6l-2.1,2.8c0.9,0.7,1.8,1.2,2.7,1.9
			C35.8,70.2,36.7,70.8,37.7,71.2z"/>
		<path class="st0" d="M32.8,22.8l2.1,2.8c1.6-1.1,3.2-2.1,5-2.8l-1.3-3.2C36.5,20.4,34.6,21.6,32.8,22.8z"/>
		<path class="st0" d="M25,31.5l3,1.8c0.5-0.8,1.1-1.6,1.6-2.4c0.6-0.7,1.2-1.5,1.9-2.2l-2.5-2.4c-0.8,0.8-1.4,1.7-2.1,2.5
			C26.2,29.6,25.5,30.5,25,31.5z"/>
		<path class="st0" d="M21.4,42.5l3.5,0.4c0-1,0.3-1.9,0.5-2.8c0.2-0.9,0.5-1.8,0.8-2.8l-3.3-1.2c-0.3,1-0.7,2.1-0.9,3.1
			C21.7,40.3,21.4,41.4,21.4,42.5z"/>
		<path class="st0" d="M65.9,22.9l-2.1,2.8c0.8,0.6,1.5,1.2,2.2,1.8c0.7,0.7,1.4,1.3,2,2.1l2.7-2.3c-0.7-0.8-1.5-1.6-2.3-2.4
			C67.5,24.3,66.7,23.5,65.9,22.9z"/>
		<path class="st0" d="M55.2,18.1l-0.7,3.4c1,0.1,1.8,0.5,2.8,0.8c0.9,0.3,1.8,0.7,2.7,1.1l1.5-3.2c-1-0.4-2-0.9-3-1.2
			C57.3,18.7,56.3,18.3,55.2,18.1z"/>
		<path class="st0" d="M43.6,18.1l0.7,3.4l1.4-0.3c0.5-0.1,1-0.1,1.4-0.1C48.1,21,49,21,50,21l0.1-3.5c-1.1,0-2.2,0-3.3,0.1
			c-0.5,0.1-1.1,0.1-1.6,0.2L43.6,18.1z"/>
		<path class="st0" d="M76,54.3l-3.3-1.1c-0.2,0.9-0.7,1.8-1,2.7c-0.4,0.8-0.9,1.7-1.4,2.5l3,1.8c0.6-0.9,1.1-1.9,1.6-2.9
			C75.2,56.4,75.7,55.4,76,54.3z"/>
		<path class="st0" d="M77.2,42.7l-3.5,0.4c0,0.5,0.1,1,0.1,1.4l0,1.4c0,1-0.1,1.9-0.2,2.9l3.5,0.5c0.1-1.1,0.3-2.2,0.2-3.3l0-1.6
			C77.3,43.8,77.3,43.3,77.2,42.7z"/>
		<path class="st0" d="M73.7,31.7l-3,1.7c0.9,1.7,1.7,3.4,2.2,5.3l3.4-1C75.7,35.6,74.7,33.6,73.7,31.7z"/>
		
			<rect x="9.8" y="79.2" transform="matrix(0.5997 -0.8002 0.8002 0.5997 -59.7432 42.3172)" class="st0" width="5.2" height="3.4"/>
		
			<rect x="15.4" y="71.7" transform="matrix(0.5997 -0.8002 0.8002 0.5997 -51.4884 43.8127)" class="st0" width="5.2" height="3.4"/>
		<rect x="21" y="64.2" transform="matrix(0.5997 -0.8002 0.8002 0.5997 -43.2607 45.3034)" class="st0" width="5.2" height="3.4"/>
		<path class="st0" d="M3.6,103.1l-3.4,0.2l0.1,1.3l0,0.7l0,0.3c0,0.2,0,0.4,0.1,0.6c0.3,1.6,1.3,3,2.8,3.6l1.4-3.1
			c-0.4-0.2-0.8-0.6-0.8-1.1l0-0.2l0-0.3l0-0.7L3.6,103.1z"/>
		<path class="st0" d="M4.3,94.6l-3.2-1.3c-0.3,0.4-0.6,0.8-0.8,1.2C0.1,94.9,0,95.4,0,95.9c0,1,0,1.9,0.1,2.9l3.4,0.3l-0.1-2.4
			c0-0.4,0.1-0.8,0.2-1.2C3.7,95.2,4,94.9,4.3,94.6z"/>
		<polygon class="st0" points="9.7,87.3 7,85.3 3.8,89.5 6.5,91.5 		"/>
		<path class="st0" d="M23.3,99.5l2.8,2.1c0.2-0.4,0.4-0.9,0.4-1.3c0-0.5,0-0.9,0-1.4c0-0.5-0.1-0.9,0-1.4c0-0.2,0.1-0.5,0.1-0.7
			l0-0.1c0,0,0,0,0,0c0,0,0,0,0-0.1l-2.7-2c-0.2,0.2-0.4,0.6-0.4,0.8c-0.1,0.2-0.1,0.4-0.2,0.6c-0.1,0.4,0,0.8,0.1,1.2
			c0,0.4,0.1,0.8,0.1,1.2C23.6,98.7,23.5,99.1,23.3,99.5z"/>
		<path class="st0" d="M16.4,104.3l1.9,2.8l1.8-2.3l0.5-0.6c0.1-0.1,0.2-0.2,0.2-0.2c0,0,0,0,0,0c0.1,0,0.1,0.1,0.2,0
			c0.4-0.3,0.9-0.5,1.3-0.6l-2.4-2.6c-0.4,0.1-0.8,0.2-1.1,0.4c-0.2,0.1-0.5,0.4-0.6,0.5c-0.1,0.2-0.2,0.3-0.4,0.5L16.4,104.3z"/>
		<polygon class="st0" points="8.1,106.4 8.6,109.7 14.2,108.9 13,105.7 		"/>
		
			<rect x="35.8" y="75.2" transform="matrix(0.5997 -0.8002 0.8002 0.5997 -46.1595 61.5698)" class="st1" width="5.2" height="3.4"/>
		<path class="st1" d="M30.1,86.1l3.4,1c0-0.1,0-0.2,0-0.4l0-0.2c0-0.1-0.1-0.1-0.1-0.1c0,0,0-0.1,0-0.1l0.7-0.9l1.6-2.1l-2.7-2
			l-1.6,2.1l-0.4,0.5c-0.1,0.2-0.3,0.3-0.4,0.6c-0.2,0.3-0.3,0.6-0.4,0.9C30.2,85.7,30.2,85.8,30.1,86.1z"/>
		<path class="st1" d="M27.8,93l2.6,2.4c0.4-0.1,0.9-0.2,1.3-0.4c0.4-0.2,0.8-0.5,1.1-0.8c0.7-0.7,1-1.7,0.8-2.6l-3.1-1.7
			c0.2,0.8,0,1.7-0.6,2.3c-0.3,0.3-0.6,0.5-1,0.6C28.6,92.9,28.2,92.9,27.8,93z"/>
	</g>
	<g>
		<g>
			<path class="st2" d="M29,8.8c-0.4-2.2-0.9-4.5-1.3-6.7c-0.1-0.3-0.1-0.6-0.2-1c-0.1-0.6-0.7-1.2-1.4-1.1
				c-0.6,0.1-1.2,0.7-1.1,1.4c0.4,2.2,0.9,4.5,1.3,6.7c0.1,0.3,0.1,0.6,0.2,1c0.1,0.6,0.7,1.2,1.4,1.1C28.5,10,29.1,9.4,29,8.8
				L29,8.8z"/>
		</g>
		<g>
			<path class="st2" d="M12.4,31.6c-2.3,0.4-4.5,0.7-6.8,1.1c-0.3,0.1-0.6,0.1-1,0.2C4,33,3.5,33.6,3.6,34.3
				c0.1,0.6,0.7,1.2,1.4,1.1c2.3-0.4,4.5-0.7,6.8-1.1c0.3-0.1,0.6-0.1,1-0.2c0.6-0.1,1.2-0.7,1.1-1.4C13.7,32.1,13.1,31.5,12.4,31.6
				L12.4,31.6z"/>
		</g>
		<g>
			<path class="st2" d="M16.7,16.6c-3.3-2.2-6.6-4.3-10-6.5c-0.5-0.3-1-0.6-1.4-0.9C4.8,8.9,3.9,9.2,3.6,9.8
				c-0.3,0.6-0.1,1.3,0.5,1.7c3.3,2.2,6.6,4.3,10,6.5c0.5,0.3,1,0.6,1.4,0.9c0.6,0.4,1.4,0.1,1.7-0.5C17.5,17.7,17.3,17,16.7,16.6
				L16.7,16.6z"/>
		</g>
	</g>
	<g>
		<g>
			<path class="st2" d="M86.3,40.1c1.8-1.4,3.6-2.8,5.3-4.3c0.3-0.2,0.5-0.4,0.8-0.6c0.5-0.4,1.3-0.5,1.7,0.1
				c0.4,0.5,0.5,1.3-0.1,1.7c-1.8,1.4-3.6,2.8-5.3,4.3c-0.3,0.2-0.5,0.4-0.8,0.6c-0.5,0.4-1.3,0.5-1.7-0.1
				C85.8,41.4,85.8,40.5,86.3,40.1L86.3,40.1z"/>
		</g>
		<g>
			<path class="st2" d="M80.5,70c1.5,1.7,3,3.5,4.5,5.2c0.2,0.3,0.4,0.5,0.6,0.8c0.4,0.5,0.5,1.3-0.1,1.7c-0.5,0.4-1.3,0.5-1.7-0.1
				c-1.5-1.7-3-3.5-4.5-5.2c-0.2-0.3-0.4-0.5-0.6-0.8c-0.4-0.5-0.5-1.3,0.1-1.7C79.2,69.5,80,69.4,80.5,70L80.5,70z"/>
		</g>
		<g>
			<path class="st2" d="M87.1,55.3c3.9,0.8,7.7,1.6,11.6,2.4c0.6,0.1,1.1,0.2,1.7,0.3c0.7,0.1,1,0.9,0.8,1.5c-0.2,0.7-0.9,1-1.5,0.8
				c-3.9-0.8-7.7-1.6-11.6-2.4c-0.6-0.1-1.1-0.2-1.7-0.3c-0.7-0.1-1-0.9-0.8-1.5C85.8,55.4,86.4,55.2,87.1,55.3L87.1,55.3z"/>
		</g>
	</g>
</g>
</svg>
