<?xml version="1.0" encoding="utf-8"?>
<!-- Generator: Adobe Illustrator 24.0.2, SVG Export Plug-In . SVG Version: 6.00 Build 0)  -->
<svg version="1.1" id="Layer_1" xmlns="http://www.w3.org/2000/svg" xmlns:xlink="http://www.w3.org/1999/xlink" x="0px" y="0px"
	 viewBox="0 0 51.4 54.7" style="enable-background:new 0 0 51.4 54.7;" xml:space="preserve">
<style type="text/css">
	.st0{clip-path:url(#SVGID_2_);}
	.st1{fill:#FFFFFF;}
</style>
<g>
	<defs>
		<rect id="SVGID_1_" width="51.4" height="53.8"/>
	</defs>
	<clipPath id="SVGID_2_">
		<use xlink:href="#SVGID_1_"  style="overflow:visible;"/>
	</clipPath>
	<g class="st0">
		<g>
			<g>
				<g>
					<g>
						<path class="st1" d="M28.3,24.1c0.1-0.7-0.4-1.4-1.1-1.6c-1.8-0.4-5.4-1-9.8-1.2l0,0l0,0l0,0c-4.3,0.1-8,0.8-9.8,1.2
							c-0.7,0.2-1.2,0.8-1.1,1.6c0.9,9.6,10.3,9.9,10.9,10l0,0l0,0l0,0C18,34.1,27.4,33.7,28.3,24.1z"/>
					</g>
					<g>
						
							<rect x="3.6" y="18.7" transform="matrix(0.3894 -0.9211 0.9211 0.3894 -17.853 17.6726)" class="st1" width="1.6" height="7.2"/>
					</g>
					<g>
						
							<rect x="26.9" y="21.6" transform="matrix(0.921 -0.3895 0.3895 0.921 -6.2904 13.6918)" class="st1" width="7.4" height="1.6"/>
					</g>
					<g>
						
							<rect x="6.3" y="31.6" transform="matrix(0.9696 -0.2445 0.2445 0.9696 -7.5928 3.1762)" class="st1" width="5.4" height="1.2"/>
					</g>
					<g>
						
							<rect x="25.3" y="29.6" transform="matrix(0.2444 -0.9697 0.9697 0.2444 -11.6831 49.3943)" class="st1" width="1.2" height="5.1"/>
					</g>
					<g>
						<path class="st1" d="M17.6,8.9C7.5,8.7,2.4,13.6,0.8,15.5c-0.3,0.4-0.4,1-0.2,1.4l0.1,0.2c0.4,0.9,1.7,1,2.3,0.2
							c4.3-5.8,12.5-5.9,14.4-5.9l0,0c0,0,0.1,0,0.2,0s0.2,0,0.2,0l0,0c1.8-0.1,10,0,14.4,5.9c0.6,0.8,1.8,0.7,2.3-0.2l0.1-0.2
							c0.2-0.5,0.2-1-0.2-1.4C32.8,13.6,27.7,8.7,17.6,8.9z"/>
					</g>
					<g>
						<g>
							<path class="st1" d="M17.6,8.2c6.7-0.1,11.5,1.7,14.7,3.6c0.2,0.1,0.4-0.1,0.4-0.3c-2.2-6.4-8.2-11-15.3-11
								c-7.2,0-13.3,4.8-15.3,11.4c-0.1,0.2,0.2,0.4,0.4,0.3C5.6,10.1,10.6,8.1,17.6,8.2z"/>
						</g>
					</g>
					<g>
						<path class="st1" d="M32.1,19.2c0.1,0.6,0.1,1.1,0.1,1.7c0,8.1-6.6,14.8-14.8,14.8S2.6,29.1,2.6,20.9c0-0.6,0-1.2,0.1-1.7H0.3
							c-0.1,0.6-0.1,1.1-0.1,1.7c0,9.5,7.7,17.2,17.2,17.2s17.2-7.7,17.2-17.2c0-0.6,0-1.2-0.1-1.7C34.5,19.2,32.1,19.2,32.1,19.2z"
							/>
					</g>
					<g>
						<path class="st1" d="M27.8,67.5H6.9l-0.2-0.3C2.8,61,5.3,55.3,5.8,54.3C5.9,42.6,8,39,9.3,38c0.3-0.3,0.6-0.4,0.6-0.4l0.3-0.1
							l0.2,0.2c2.4,2.1,6.5,2.3,6.8,2.3c0.4,0,4.5-0.2,6.8-2.3l0.2-0.2l0.3,0.1c0.1,0,0.3,0.1,0.6,0.4c1.2,1.1,3.4,4.6,3.5,16.3
							c0.5,1,3,6.7-0.9,12.9L27.8,67.5z M7.6,66.3h19.6c3.6-6,0.6-11.5,0.6-11.6l-0.1-0.1v-0.2c-0.1-11.9-2.3-14.9-3-15.6
							c-2.7,2.1-6.8,2.3-7.3,2.3l0,0l0,0c-0.5,0-4.5-0.2-7.3-2.3c-0.8,0.7-3,3.7-3.1,15.6v0.2l-0.1,0.1C6.8,54.9,4,60.3,7.6,66.3z"
							/>
					</g>
					<g>
						<path class="st1" d="M24.3,37.7c0,0-1.5,1.2-6.9,1.8c-5.4-0.7-6.9-1.8-6.9-1.8l-1.4,1.8l1.6,1.6l1.5-1.1l5.2,2.3l5.2-2.3
							l1.5,1.1l1.6-1.6L24.3,37.7z"/>
					</g>
					<g>
						<polygon class="st1" points="6.4,53.5 28.2,53.5 28.9,56.1 29.5,59.4 5.2,59.4 5.8,56.1 6.4,54.4 						"/>
					</g>
					<g>
						<g>
							<path class="st1" d="M13.9,51.7h-3.3C9.7,51.7,9,51,9,50.1v-6.2c0-0.9,0.7-1.6,1.6-1.6h3.3c0.9,0,1.6,0.7,1.6,1.6v6.2
								C15.5,51,14.8,51.7,13.9,51.7z M10.5,43.1c-0.4,0-0.8,0.4-0.8,0.8v6.2c0,0.4,0.4,0.8,0.8,0.8h3.3c0.4,0,0.8-0.4,0.8-0.8v-6.2
								c0-0.4-0.4-0.8-0.8-0.8H10.5z"/>
						</g>
					</g>
					<g>
						<g>
							<rect x="9.1" y="44.9" class="st1" width="6" height="0.8"/>
						</g>
					</g>
					<g>
						<g>
							<circle class="st1" cx="12.1" cy="44.6" r="0.8"/>
						</g>
					</g>
					<g>
						<g>
							<path class="st1" d="M24,51.7h-3.3c-0.9,0-1.6-0.7-1.6-1.6v-6.2c0-0.9,0.7-1.6,1.6-1.6H24c0.9,0,1.6,0.7,1.6,1.6v6.2
								C25.6,51,24.9,51.7,24,51.7z M20.7,43.1c-0.4,0-0.8,0.4-0.8,0.8v6.2c0,0.4,0.4,0.8,0.8,0.8H24c0.4,0,0.8-0.4,0.8-0.8v-6.2
								c0-0.4-0.4-0.8-0.8-0.8H20.7z"/>
						</g>
					</g>
					<g>
						<g>
							<rect x="19.2" y="44.9" class="st1" width="6" height="0.8"/>
						</g>
					</g>
					<g>
						<g>
							<circle class="st1" cx="22.2" cy="44.6" r="0.8"/>
						</g>
					</g>
				</g>
			</g>
		</g>
		<g>
			<path class="st1" d="M51,41.6C51,41.5,50.9,41.5,51,41.6L51,41.6c0-0.1,0-0.2,0-0.2v-0.1c0,0,0,0,0-0.1l0,0
				c0-0.1-0.1-0.1-0.1-0.2c0,0,0-0.1-0.1-0.1c0,0,0-0.1-0.1-0.1l0,0c0,0,0,0-0.1-0.1l0,0l-0.1-0.1l0,0c0,0,0,0-0.1-0.1l0,0l-0.1-0.1
				l-0.1-0.1c0,0,0,0-0.1,0s0,0-0.1,0s-0.1-0.1-0.2-0.1l0,0h-0.1c0.2-0.4,0.4-0.9,0.3-1.3c-0.1-1.2-1.2-2-2.4-1.9l-2.4,0.3
				c0,0,0,0,0-0.1c1.3-2.2,1.7-4,1-5.2c-0.3-0.6-1.1-1.4-2.9-1.6c-0.3,0-0.5,0.1-0.6,0.4c-0.1,0.2-0.1,0.4-0.2,0.7
				c-0.1,0.6-0.2,1.3-0.8,2c-0.7,0.9-1.4,1.7-1.8,2c-1,0.9-3.3,3.3-3.9,3.9l-3.3,0.1c-0.3,0-0.6,0.3-0.6,0.7l0.9,8.1
				c0,0.3,0.3,0.6,0.7,0.6l3.2-0.3c0.7,0.7,3,2.7,5.4,2.4c1.1-0.1,6-0.6,6-0.6c1.2-0.1,2-1.1,1.9-2.3c0-0.4-0.2-0.8-0.4-1.1
				c0.7-0.4,1.2-1.2,1.1-2.1c-0.1-0.5-0.3-0.9-0.6-1.3l0,0c0,0,0,0,0.1-0.1l0,0c0,0,0-0.1,0.1-0.1l0.1-0.1l0,0c0,0,0-0.1,0.1-0.1
				l0.1-0.1c0,0,0,0,0-0.1s0.1-0.1,0.1-0.2c0-0.1,0.1-0.1,0.1-0.2v-0.1c0,0,0,0,0-0.1l0,0v-0.1l0,0v-0.1v-0.1l0,0V42v-0.1v-0.1
				C51,41.6,51,41.6,51,41.6z M47.9,38c0.5-0.1,0.9,0.3,1,0.8s-0.3,0.9-0.8,1l-3.6,0.4c-0.4,0-0.7-0.1-0.9-0.4
				c-0.1-0.1-0.1-0.2-0.1-0.4s0-0.4,0.1-0.5c0.1-0.2,0.4-0.4,0.7-0.4C44.3,38.4,47.9,38,47.9,38z M43.9,49.5
				c-0.6,0.1-1.1,0.1-1.7,0.2c-2.2,0.2-4.6-2.2-4.6-2.2c-0.1-0.1-0.3-0.2-0.5-0.2l-2.9,0.3l-0.7-6.9l3.2-0.3c0.1,0,0.3-0.1,0.4-0.2
				c0,0,2.9-3,4-4c0.5-0.4,1.2-1.3,1.9-2.2c0.8-1,0.9-1.9,1.1-2.6c0.6,0.1,1.1,0.4,1.3,0.8c0.4,0.8,0.1,2.3-1,4
				c-0.2,0.3-0.3,0.6-0.4,0.9c-1,0.2-1.8,1.2-1.6,2.3c0,0.1,0,0.3,0.1,0.4l0,0v0.1c0.1,0.8-0.1,1.7-0.6,2.4s-1.2,1.2-2.1,1.3
				c-0.4,0.2-0.6,0.5-0.6,0.9c0.1,0.3,0.4,0.5,0.7,0.5l0,0c1.1-0.2,2-0.7,2.7-1.6l0.1,0.1c0,0,0,0.1,0.1,0.1l0,0c0,0,0,0,0.1,0.1
				l0,0c0.1,0.1,0.1,0.1,0.1,0.1s0,0,0.1,0c0,0,0,0,0.1,0.1l0,0c0,0,0,0,0.1,0c0,0,0,0,0.1,0l0,0c0,0,0.1,0,0.1,0.1
				c-0.3,0.4-0.5,1-0.4,1.5c0.1,0.7,0.5,1.3,1.1,1.7c-0.3,0.4-0.4,0.9-0.3,1.4C43.6,49,43.7,49.3,43.9,49.5z M48.2,49.1l-2.3,0.2
				c-0.1,0-0.1,0-0.2,0c-0.4-0.1-0.7-0.4-0.8-0.8c-0.1-0.5,0.3-0.9,0.8-1l2.3-0.2c0.5-0.1,0.9,0.3,1,0.8C49,48.6,48.7,49,48.2,49.1z
				 M48.8,45.9l-3.7,0.4c-0.5,0.1-0.9-0.3-1-0.8c0-0.4,0.2-0.8,0.6-0.9c0.1,0,0.1,0,0.2,0l3.7-0.4c0.5-0.1,0.9,0.3,1,0.8
				C49.7,45.4,49.3,45.8,48.8,45.9z M48.9,42.8l-4.4,0.5c-0.1,0-0.2,0-0.3,0c-0.4-0.1-0.6-0.4-0.7-0.8c0-0.3,0.1-0.6,0.3-0.8
				c0.1-0.1,0.3-0.2,0.5-0.2l4.4-0.5c0.5-0.1,0.9,0.3,1,0.8S49.4,42.7,48.9,42.8z"/>
			<path class="st1" d="M45.5,37.7"/>
		</g>
	</g>
</g>
</svg>
