<?xml version="1.0" encoding="utf-8"?>
<!-- Generator: Adobe Illustrator 24.0.2, SVG Export Plug-In . SVG Version: 6.00 Build 0)  -->
<svg version="1.1" id="Layer_1" xmlns="http://www.w3.org/2000/svg" xmlns:xlink="http://www.w3.org/1999/xlink" x="0px" y="0px"
	 viewBox="0 0 106.8 55.6" style="enable-background:new 0 0 106.8 55.6;" xml:space="preserve">
<style type="text/css">
	.st0{fill:#FFFFFF;}
</style>
<g>
	<path class="st0" d="M97.5,31.8c0-0.1,0-0.3,0-0.4c-0.2-5.7-0.9-11.4-2.6-16.8c-0.6-1.8-1.3-3.7-2.1-5.4c-0.8-1.7-1.7-3.6-2.9-5
		c-1.1-1.3-3.2-1.2-4.7-1.5C81,2.1,76.8,1.4,72.7,0.9c-1.6-0.2-3.4,0.2-5,0.4c-2.3,0.2-4.6,0.5-6.9,0.7c-1,0.1-1.9,0.3-2.5,1.1l0,0
		c-0.1,0.1-0.1,0.2-0.2,0.3c-1.5,2.5-1.9,5.7-2.3,8.5c-0.4,3.1-0.6,6.2-0.6,9.4c0,2.2,0,4.4,0.1,6.5c0,1.2,0.1,2.4,0.2,3.7
		c0.1,1.1,0,2.2,0.7,3.1c1.4,1.7,4.3,0.5,6.2,0.5s3.9,0.4,5.3,1.7c2.2,2,2.4,5.3,2.3,8.1c-0.1,1.6,0.3,2.6,1.6,3.6
		c1.4,1.1,3.2,1.6,4.9,1.8c1,0.1,2-0.1,2.9-0.3c1.3-0.2,2.6-0.4,4-0.6c3.2-0.5,6.5-1,9.6-1.9c1.2-0.3,2.8-0.7,3.5-1.8
		c0.5-0.8,0.5-1.9,0.6-2.8c0.2-2.3,0.4-4.7,0.4-7C97.5,34.6,97.5,33.2,97.5,31.8z M79.4,21.4c-0.1,0-0.3,0-0.4,0.1
		c-0.3-0.1-0.6-0.2-0.9-0.3c-0.3-2.5-0.6-5-0.9-7.5c4.9,0.1,9.9,0.2,14.8,0.3c0.8,2.4,1.5,4.8,1.9,7.3c-4.2,0-8.4,0.1-12.6,0.1
		C80.7,21.4,80,21.4,79.4,21.4z M94.3,44.5c-0.7,0.6-2.3,0.8-3.2,1c-1.5,0.4-3,0.7-4.5,0.9c-2.7,0.5-5.4,0.9-8.1,1.3
		c-1.1,0.1-1.9,0.2-3-0.1c-0.9-0.2-2.7-0.8-3-1.7c-0.2-0.6,0.1-1.8,0.1-2.5c0-0.9-0.1-1.7-0.2-2.6c-0.2-1.3-0.6-2.7-1.3-3.8
		c-2.1-3.8-6.5-4.8-10.5-4.4c-0.4,0-2.1,0.5-2.4,0.3c-0.4-0.3-0.2-2.8-0.3-3.4c-0.1-1.2-0.1-2.3-0.1-3.5c-0.1-3.6-0.1-7.1,0.2-10.7
		c0.2-2.2,0.4-4.4,0.9-6.6C59,8,59.2,7.3,59.4,6.6c0.1-0.3,0.2-0.5,0.3-0.8c0.1-0.1,0.2-0.5,0.2-0.5c0.1-0.2,0.2-0.5,0.4-0.7
		c0.3-0.3,0.8-0.3,1.3-0.3c1.1-0.1,2.1-0.2,3.2-0.3c2.2-0.2,4.4-0.4,6.6-0.6c0.9-0.1,1.6,0,2.5,0.1c2.3,0.3,4.5,0.7,6.8,1
		c2.1,0.3,4.1,0.6,6.2,0.9c0.5,0.1,0.9,0.1,1.3,0.4c0.6,0.6,1,1.6,1.4,2.3c0.5,0.8,0.9,1.7,1.3,2.5c0.1,0.3,0.2,0.5,0.3,0.8
		c-5.1-0.1-10.2-0.2-15.2-0.3c-0.6,0-1.3,0.6-1.2,1.2c0.4,3.3,0.8,6.7,1.1,10c0.1,0.6,0.5,1.3,1.2,1.2c0.6-0.1,1.2,0.1,1.7,0.5
		c1.7,1.4,1.6,4.1,1.4,6.2c-5.4-0.9-10.9-1.8-16.3-2.7c-0.2-1.7-0.3-3.5-0.4-5.2c-0.1-3-0.3-6.8,1.2-9.5c0.8-1.4-1.4-2.7-2.2-1.3
		c-1.6,3-1.6,6.9-1.5,10.2c0,2.3,0.2,4.6,0.5,6.8c0.1,0.5,0.3,1.1,0.9,1.2c6.2,1,12.3,2,18.5,3.1c0.6,0.1,1.4-0.2,1.5-0.9
		c0.4-2.6,0.6-5.9-0.7-8.3c3.9,0,7.8-0.1,11.8-0.1c0.2,0,0.3,0,0.5,0c-0.5,2.7-0.8,5.4-0.6,8.1c0,0.8,0.8,1.4,1.6,1.2h0.1
		c0,1.3,0,2.5,0,3.8l-1,0.7c0,0,0.5,1.8-0.8,2.2l0.3,1.2c0,0,0.6,0,1.2-0.3c0,0.6-0.1,1.3-0.2,1.9C94.6,43.1,94.7,44.2,94.3,44.5z"
		/>
	<path class="st0" d="M79.9,38l-3.7-1.3c-1.6,8.4,6.5,6.9,6.5,6.9v-2.2C79.9,41.3,79.9,38,79.9,38z"/>
	<path class="st0" d="M63.7,37.4c-2.1,0.4-3.4,3.1-2.9,6.2c0.5,3.1,2.7,5.3,4.8,4.9c2.1-0.4,3.4-3.1,2.9-6.2
		C68,39.3,65.9,37.1,63.7,37.4z"/>
	<path class="st0" d="M32,38.8c0.4,0.1,0.8-0.2,0.8-0.6c-0.1-0.8,0-1.7,0-2.6c0.1-0.8,0.2-2,0.8-2.7c0.5,0.1,1,0.1,1.5,0.2
		c-0.7,0.7-1,2.1-0.7,3.7c0.4,2.1,1.6,3.6,2.8,3.4c0.9-0.1,1.4-1.1,1.6-2.4c0.4,2.1,1.6,3.6,2.8,3.4c1.2-0.2,1.9-2.1,1.6-4.2
		c-0.2-1.4-0.9-2.5-1.6-3.1c0.8,0.1,1.5,0.2,2.3,0.3c0.1,0.1,0.1,0.3,0.2,0.4c0.8,2,0.7,4.3,0.5,6.4c0,0.3,0.2,0.5,0.5,0.6
		c2.5,0.6,5.1,1.2,7.6,1.8c0.7,0.2,1.6,0.6,2.3,0.4c1.2-0.3,2.5-0.7,3.7-1c0.4-0.1,0.5-0.4,0.4-0.8l0,0c0,0,0,0,0-0.1
		c0-0.2,0-0.3,0-0.5c0-0.5,0-1,0-1.4c0.1-1.1,0.4-2.5,1.6-3c0.7-0.3,0.5-1.4-0.3-1.2c-1.1,0.3-2.3,0.6-3.4,0.9
		c-0.7,0.2-1.3,0.3-2,0.5c-0.1,0-0.1,0-0.2,0c-0.1,0-0.1,0-0.2,0c-2.3-0.7-4.8-1.2-7.1-1.8c-0.8-0.2-1.1,1-0.3,1.2
		c2.4,0.6,4.8,1.3,7.2,1.8c0.9,0.2,1.9-0.3,2.7-0.5c0.5-0.1,0.9-0.2,1.4-0.4c-0.6,1.2-0.7,2.7-0.6,4.1c-1,0.3-2.2,0.5-3.1,0.9
		c0,0,0.1,0,0.1,0.1h-0.1c-0.2,0.1-0.1,0,0,0c-0.1,0-0.2,0-0.2,0c-0.5-0.1-1.1-0.3-1.6-0.4c-2.3-0.5-4.6-1.1-6.9-1.6
		c0.1-2,0.1-4.2-0.6-6.1c1.6,0.2,3.2,0.4,4.9,0.7c0.8,0.1,1.6-0.3,1.6-1.2c-0.2-7.7-0.3-15.4-0.5-23.1c0-1.1,0-2.2-0.1-3.3
		c0-1.6-2.5-1.6-2.5,0c0.2,7.7,0.3,15.4,0.5,23.1c0,0.6,0,1.2,0,1.9C38.1,31,26.9,29.5,15.7,28c-1.3-0.2-2.6-0.4-4-0.5
		c0-5.3,0-10.7,0-16c5.3-1.2,10.7-2.5,16-3.7C34.9,6,42.2,4.3,49.4,2.7c0.3-0.1,0.6-0.1,0.8-0.2c0,0,0.4,0,0.5,0.1
		c1.9,0.2,3.8,0.5,5.7,0.7C58,3.5,58,1,56.4,0.8c-1.7-0.2-3.4-0.4-5.1-0.7c-0.7-0.1-1.3-0.2-2,0c-2.5,0.6-5.1,1.2-7.6,1.8
		c-8.4,2-16.8,3.9-25.2,5.9c-2.1,0.5-4.3,1-6.4,1.5c-0.5,0.1-0.9,0.6-0.9,1.1c0,6,0,12.1,0,18.1c0,0.5,0.4,1.1,0.9,1.2
		c1.2,0.2,2.4,0.3,3.6,0.5c-0.4,0.3-0.6,1.2-0.6,2.2c0.1,1.3,0.6,2.3,1.1,2.3c0.3,0,0.5-0.3,0.7-0.8c0.2,0.8,0.6,1.4,1,1.4
		c0.6,0,1-1.2,0.9-2.6c-0.1-0.9-0.3-1.7-0.6-2.1c0.8,0.1,1.6,0.2,2.3,0.3c0,1.5,0,3.1,0,4.6c0,0.3,0.2,0.5,0.5,0.6
		c3.8,0.8,7.7,1.6,11.5,2.4C31,38.6,31.5,38.7,32,38.8z M54.8,37.4L54.8,37.4C54.9,37.4,54.8,37.4,54.8,37.4z M38.9,36.1
		c-0.2-1.1-0.6-2-1.1-2.6c0.8,0.1,1.6,0.2,2.4,0.3C39.4,34.1,39,35,38.9,36.1z M14.8,31.3c-0.1-0.4-0.3-0.8-0.5-1
		c0.3,0,0.6,0.1,0.9,0.1C15,30.6,14.9,30.9,14.8,31.3z M19.7,35c0-1.3,0-2.6,0-3.9c4.2,0.6,8.4,1.1,12.6,1.7
		c-0.7,1.3-0.8,3.2-0.8,4.7c-3.6-0.7-7.1-1.5-10.7-2.2C20.5,35.1,20.1,35,19.7,35z"/>
	<path class="st0" d="M54.7,42.7L54.7,42.7L54.7,42.7L54.7,42.7L54.7,42.7z"/>
	<path class="st0" d="M59.1,42.1C59.1,42.2,59.1,42.1,59.1,42.1L59.1,42.1z"/>
	<path class="st0" d="M26.9,52.4c-0.2,0-0.3,0.2-0.1,0.3l8.4,2.9c0.2,0.1,0.3,0.1,0.5,0l6.6-1.2l-8.2-3.2L26.9,52.4z"/>
	<polygon class="st0" points="45.2,49.5 52.9,52.5 58.8,51.4 51.4,48.5 	"/>
	<polygon class="st0" points="36.9,50.8 45,53.9 50.2,52.9 42.4,49.9 	"/>
	<path class="st0" d="M61.3,47.7l-1.5-0.6L54.2,48l7.3,2.8l4.4-0.8C63.7,50,62.3,48.9,61.3,47.7z"/>
</g>
</svg>
