<?xml version="1.0" encoding="utf-8"?>
<!-- Generator: Adobe Illustrator 24.0.2, SVG Export Plug-In . SVG Version: 6.00 Build 0)  -->
<svg version="1.1" id="Layer_1" xmlns="http://www.w3.org/2000/svg" xmlns:xlink="http://www.w3.org/1999/xlink" x="0px" y="0px"
	 viewBox="0 0 61.7 45.5" style="enable-background:new 0 0 61.7 45.5;" xml:space="preserve">
<style type="text/css">
	.st0{fill:#FFFFFF;}
</style>
<g>
	<path class="st0" d="M30.8,0C13.8,0,0,13.8,0,30.8c0,4.8,1.1,9.4,3.2,13.7c0.2,0.4,0.6,0.7,1,0.9c0.5,0.1,0.9,0.1,1.4-0.1l6.6-3.5
		c0.9-0.5,1.2-1.5,0.7-2.4c-0.5-0.9-1.5-1.2-2.4-0.7l-4.9,2.6C4.2,38,3.5,34.5,3.5,30.8c0-15.1,12.3-27.3,27.3-27.3
		c15.1,0,27.3,12.3,27.3,27.3c0,3.7-0.7,7.2-2.1,10.5l-5.5-2.7c-0.9-0.4-1.9-0.1-2.4,0.8c-0.4,0.9-0.1,1.9,0.8,2.4l7.1,3.5
		c0.3,0.1,0.5,0.2,0.8,0.2c0.6,0,1.3-0.4,1.6-1c2.1-4.3,3.2-8.9,3.2-13.7C61.7,13.8,47.9,0,30.8,0z"/>
	<path class="st0" d="M29.1,13.3c8,0,13.6,6.8,14.9,13.6c0.1,0.6,0.5,1.1,1.1,1.3l6.3,2.6c0.6,0.2,1.2,0.2,1.7-0.2
		c0.5-0.4,0.8-0.9,0.7-1.6c-0.8-12-10.9-21.4-22.9-21.4c-11.2,0-20.5,7.9-22.6,18.3c0,0.1-0.1,0.3-0.1,0.5c0,0.1,0,0.1,0,0.2
		c-0.2,1.2-0.3,2.4-0.3,3.7c0,1.1,0.1,2.5,0.3,3.7C8.3,35,9,35.6,9.9,35.6c0.1,0,0.2,0,0.3,0c1-0.1,1.6-1,1.5-2
		c-0.2-1.1-0.3-2.3-0.3-3.2c0-1.2,0.1-2.5,0.4-3.6C13.8,16.8,22.3,13.3,29.1,13.3z"/>
	<path class="st0" d="M9.3,25.2c-0.4,0-0.8,0.3-0.9,0.7c-0.2,0.5,0.1,1,0.6,1.2l21,8.8c0,0,0.1,0,0.1,0c1,0.3,1.9,0.2,2.7-0.3
		c0.7-0.4,1.2-1.1,1.4-2c0.4-1.8-0.5-3.2-2.3-3.8c0,0-0.1,0-0.1,0L9.6,25.2C9.5,25.2,9.4,25.2,9.3,25.2z"/>
</g>
</svg>
