<?xml version="1.0" encoding="utf-8"?>
<!-- Generator: Adobe Illustrator 24.0.2, SVG Export Plug-In . SVG Version: 6.00 Build 0)  -->
<svg version="1.1" id="Layer_1" xmlns="http://www.w3.org/2000/svg" xmlns:xlink="http://www.w3.org/1999/xlink" x="0px" y="0px"
	 viewBox="0 0 154.7 88" style="enable-background:new 0 0 154.7 88;" xml:space="preserve">
<style type="text/css">
	.st0{fill-rule:evenodd;clip-rule:evenodd;fill:#FFFFFF;}
	.st1{fill-rule:evenodd;clip-rule:evenodd;fill:none;}
</style>
<g>
	<path class="st0" d="M146.1,72.3V74h0.6c0.2,0,0.3,0,0.4,0c0.1,0,0.2,0,0.3-0.1c0.2-0.1,0.3-0.2,0.5-0.3c0.1-0.1,0.2-0.3,0.2-0.5
		c0-0.2-0.1-0.4-0.2-0.5c-0.1-0.1-0.2-0.2-0.4-0.3c-0.1,0-0.2,0-0.3-0.1c-0.1,0-0.3,0-0.4,0L146.1,72.3L146.1,72.3z M146.1,74.5v1.9
		h-0.6v-4.6h1.2c0.2,0,0.4,0,0.5,0c0.1,0,0.3,0,0.4,0.1c0.3,0.1,0.6,0.2,0.7,0.4c0.2,0.2,0.3,0.5,0.3,0.8c0,0.2,0,0.4-0.1,0.5
		c-0.1,0.1-0.1,0.3-0.3,0.4c-0.1,0.1-0.2,0.2-0.4,0.3c-0.2,0.1-0.3,0.1-0.5,0.2v0l1.4,2h-0.6l-1.4-1.9L146.1,74.5L146.1,74.5z
		 M146.9,70.8c1.8,0,3.3,1.5,3.3,3.3c0,1.8-1.5,3.3-3.3,3.3s-3.3-1.5-3.3-3.3S145.1,70.8,146.9,70.8z M146.9,70.3
		c2.1,0,3.8,1.7,3.8,3.8c0,2.1-1.7,3.8-3.8,3.8c-2.1,0-3.8-1.7-3.8-3.8C143.1,72,144.8,70.3,146.9,70.3z"/>
	<path class="st0" d="M57.7,21.8c-3,0-5.1,1.6-5.1,4.7c0,3.1,1.9,4.9,5.1,4.9c3.1,0,5.1-1.7,5.1-4.8C62.8,23.4,60.8,21.8,57.7,21.8z
		 M57.8,30.1c-2.1,0.1-3.1-1.5-3.2-3.4c0-1.7,0.8-3.6,3.1-3.6c2.1,0,3.1,1.7,3.1,3.4C60.8,28.3,59.8,30,57.8,30.1z"/>
	<path class="st0" d="M49,22l-4.3,0v9.2h1.9v-3.8c1.6,0,3.5,0,4.5-1.4C52.2,24.6,51.7,22.2,49,22z M46.6,26.1v-2.8
		c1.3,0,2.9-0.3,2.9,1.4C49.6,26.2,47.9,26.1,46.6,26.1z"/>
	<path class="st0" d="M35.1,21.9h1.7c0,0.9-0.1,5.6,0.1,6.3c0.4,2,4,1.9,4.2-0.2c0.1-1.2,0.1-4.8,0.1-6.1h1.7c0,1.1,0.1,6-0.1,7.1
		c-0.6,2.6-4.2,2.7-5.9,1.9c-1.6-0.7-1.7-2-1.7-3.6L35.1,21.9L35.1,21.9z"/>
	<path class="st0" d="M31.9,27c1.2-0.5,2.1-1.2,2.1-2.6c0-1.8-1.5-2.4-3-2.4l-4.1,0v9.2h2v-3.9H30l2.1,3.9h2.3L31.9,27z M28.8,26
		v-2.7c1.3,0,3.1-0.3,3.1,1.2C31.9,26.2,29.9,26,28.8,26z"/>
	<path class="st0" d="M21.8,26.1v1.3h1.5v2c-1.6,0.5-4.1,0.7-4.8-1.3c-0.7-2,0-5,2.9-5c1.1,0,1.8,0.3,2.3,1.3l1.1-1.3
		c-0.8-0.9-1.8-1.3-3.3-1.3c-6.1,0-6,6.4-3.6,8.3c1.9,1.5,5,1.1,7.2,0.5v-4.4L21.8,26.1L21.8,26.1z"/>
	<path class="st0" d="M144.7,15.5c-3.6-1.1-7.2-2.1-10.8-3.2c-9.8,7.5-24.6,9-41.5,7.3c-23.6-2.5-47.4-6.7-64.9-5.7
		C10.7,15,3.6,26.8,0.9,40.2c-1.7,13.7-0.9,26.9,2.9,39.6c3.1,0.5,6.3,1,9.4,1.5c10-8.2,26.1-8.9,42.8-7.4
		c17.3,1.6,39.8,4.5,61.3,4.3c15.6-0.2,27.1-6.5,30.1-24.3C149.5,41.3,149.2,28.5,144.7,15.5z M145.8,53.4
		c-2,13.7-10.1,20.7-23.3,22.3c-17.1,2.1-36.2-1-54.8-3.4C40,68.8,18.2,69.2,5.6,77.9c-3.5-14.2-5-27.1-2.5-38
		c4.4-19,16.3-23.4,27.6-24.1c14-0.8,36,3.9,54,6.4c23.1,3.2,43.9,3.8,57.9-4.2C147,29.7,147.8,41.5,145.8,53.4z"/>
	<path class="st0" d="M97.6,57.3h-5.9V40h4.9c2.6,0,3.6,0.7,3.7,2.1c0.1,2.1-1.1,3.3-3.1,3.3h-1.9l-2.3,5.1h4.6c2.2,0,4.3,1.6,4,3.5
		C101.5,56,99.8,57.3,97.6,57.3 M98.7,63h-14V34.2H98c4.6,0,8.6,1.3,9.3,5.8c0.5,3.3-0.5,5.6-3,7.2c3.7,1.6,5.2,6.1,3.9,10.2
		C107,61.6,102.1,63,98.7,63z M124.2,40.6c4.2,0,7.7,3.5,7.7,7.8s-3.4,7.8-7.7,7.8c-4.2,0-7.7-3.5-7.7-7.8S120,40.6,124.2,40.6z
		 M124.2,33.7c8,0,14.4,6.6,14.4,14.6c0,8.1-6.5,14.6-14.4,14.6s-14.4-6.6-14.4-14.6C109.8,40.3,116.2,33.7,124.2,33.7z M81.8,34.2
		V63h-7.1V44.8L70.1,63h-6.9l-4.4-18v18h-6.9V34.2H63l3.8,16.2l3.7-16.2H81.8z M42,34.2h7V63h-7V34.2z M29.1,57.3h-5.9V40h4.9
		c2.6,0,3.6,0.7,3.7,2.1c0.1,2.1-1.1,3.3-3.1,3.3h-1.9l-2.3,5.1h4.6c2.2,0,4.3,1.6,4,3.5C33,56,31.3,57.3,29.1,57.3z M30.2,63h-14
		V34.2h13.3c4.6,0,8.6,1.3,9.3,5.8c0.5,3.3-0.5,5.6-3,7.2c3.7,1.6,5.2,6.1,3.9,10.2C38.5,61.6,33.5,63,30.2,63z"/>
	<rect x="0.7" class="st1" width="154" height="88"/>
</g>
</svg>
