<?xml version="1.0" encoding="utf-8"?>
<!-- Generator: Adobe Illustrator 17.0.0, SVG Export Plug-In . SVG Version: 6.00 Build 0)  -->
<!DOCTYPE svg PUBLIC "-//W3C//DTD SVG 1.1//EN" "http://www.w3.org/Graphics/SVG/1.1/DTD/svg11.dtd">
<svg version="1.1" id="Capa_1" xmlns="http://www.w3.org/2000/svg" xmlns:xlink="http://www.w3.org/1999/xlink" x="0px" y="0px"
	 width="191.274px" height="87.457px" viewBox="349.284 6.405 191.274 87.457"
	 enable-background="new 349.284 6.405 191.274 87.457" xml:space="preserve">
<g>
	<path fill-rule="evenodd" clip-rule="evenodd" fill="#FFFFFF" d="M435.212,82.582c-35.232-4.552-62.847-4.064-78.762,7.028
		c-4.472-17.97-6.351-34.383-3.162-48.202c5.573-24.15,20.735-29.73,34.965-30.526c17.813-0.997,45.724,4.926,68.498,8.075
		c29.36,4.06,55.649,4.849,73.505-5.34c5.609,14.835,6.622,29.823,4.068,44.931c-2.514,17.339-12.87,26.241-29.584,28.29
		C483.036,89.496,458.785,85.628,435.212,82.582z"/>
	<path fill-rule="evenodd" clip-rule="evenodd" fill="#3D4284" d="M534.727,82.471v2.144h0.706c0.218,0,0.405-0.007,0.561-0.022
		c0.154-0.013,0.293-0.04,0.416-0.078c0.248-0.076,0.44-0.197,0.574-0.363c0.135-0.166,0.202-0.384,0.202-0.652
		c-0.003-0.251-0.067-0.453-0.193-0.607c-0.126-0.153-0.299-0.263-0.522-0.33c-0.105-0.031-0.23-0.055-0.377-0.069
		c-0.145-0.015-0.33-0.022-0.556-0.022H534.727z M534.727,85.261v2.422h-0.718v-5.858h1.521c0.257,0,0.476,0.009,0.655,0.028
		c0.179,0.019,0.344,0.049,0.492,0.09c0.41,0.111,0.722,0.301,0.937,0.568c0.217,0.266,0.324,0.601,0.324,1
		c0,0.238-0.037,0.449-0.113,0.635c-0.076,0.187-0.183,0.35-0.32,0.487c-0.138,0.138-0.302,0.25-0.494,0.337
		c-0.191,0.088-0.404,0.152-0.637,0.193v0.018l1.734,2.501h-0.718l-1.803-2.422H534.727z M535.721,80.598
		c2.288,0,4.143,1.855,4.143,4.143c0,2.288-1.855,4.143-4.143,4.143c-2.288,0-4.143-1.855-4.143-4.143
		C531.578,82.453,533.433,80.598,535.721,80.598z M535.721,79.905c2.672,0,4.837,2.166,4.837,4.837c0,2.672-2.166,4.837-4.837,4.837
		c-2.671,0-4.837-2.166-4.837-4.837C530.884,82.07,533.05,79.905,535.721,79.905z"/>
	<path fill-rule="evenodd" clip-rule="evenodd" fill="#3D438B" d="M422.535,19.996c2.659,0,3.912,2.157,3.934,4.339
		c0.023,2.382-1.296,4.484-3.807,4.551c-2.645,0.071-3.99-1.882-4.043-4.348C418.571,22.327,419.688,19.996,422.535,19.996
		 M422.535,18.35c-3.785,0-6.429,2.042-6.429,5.99c0,3.989,2.384,6.183,6.449,6.183c3.956,0,6.41-2.156,6.41-6.095
		C428.964,20.475,426.485,18.35,422.535,18.35z M408.476,23.832v-3.591c1.629,0,3.741-0.338,3.741,1.725
		C412.218,23.938,410.129,23.832,408.476,23.832z M406.003,30.278h2.474v-4.799c1.999,0,4.49,0.057,5.748-1.734
		c1.236-1.76,0.694-4.854-2.804-5.115l-5.418-0.035V30.278z M393.884,18.595h2.199c0,1.135-0.089,7.049,0.091,7.975
		c0.495,2.549,5.013,2.448,5.297-0.202c0.165-1.542,0.064-6.032,0.064-7.774h2.199c0,1.452,0.137,7.674-0.164,8.977
		c-0.754,3.268-5.362,3.434-7.529,2.417c-1.969-0.925-2.156-2.569-2.156-4.51V18.595z M385.85,23.71v-3.468
		c1.683,0,3.911-0.346,3.911,1.568C389.761,23.961,387.287,23.71,385.85,23.71z M383.347,30.278h2.503v-4.974h1.451l2.72,4.974
		h2.965l-3.182-5.325c1.474-0.573,2.629-1.494,2.629-3.24c0-2.281-1.906-3.031-3.827-3.1l-5.257-0.018V30.278z M377.004,23.864
		v1.596h1.895v2.495c-1.988,0.68-5.144,0.825-6.062-1.711c-0.901-2.488,0.013-6.298,3.671-6.298c1.424,0,2.346,0.432,2.975,1.647
		l1.339-1.651c-1.075-1.175-2.235-1.591-4.219-1.591c-7.686,0-7.643,8.12-4.613,10.491c2.43,1.901,6.309,1.362,9.15,0.642v-5.619
		H377.004z M420.383,84.512c-21.204-2.003-41.631-0.992-54.319,9.351c-3.978-0.65-7.957-1.301-11.935-1.951
		c-4.909-16-5.952-32.774-3.743-50.198c3.494-16.983,12.419-31.985,33.798-33.282c22.158-1.344,52.353,4.057,82.315,7.201
		c21.413,2.247,40.23,0.318,52.661-9.228c4.561,1.356,9.122,2.712,13.682,4.068c5.77,16.48,6.166,32.678,3.513,48.629
		c-3.762,22.624-18.397,30.697-38.172,30.897C470.829,90.275,442.375,86.589,420.383,84.512z M435.212,82.582
		c-35.232-4.552-62.847-4.064-78.762,7.028c-4.472-17.97-6.351-34.383-3.162-48.202c5.573-24.15,20.735-29.73,34.965-30.526
		c17.813-0.997,45.724,4.926,68.498,8.075c29.36,4.06,55.649,4.849,73.505-5.34c5.609,14.835,6.622,29.823,4.068,44.931
		c-2.514,17.339-12.87,26.241-29.584,28.29C483.036,89.496,458.785,85.628,435.212,82.582z"/>
	<path fill-rule="evenodd" clip-rule="evenodd" fill="#DA243C" d="M473.181,63.45h-7.45V41.509h6.225
		c3.259,0,4.598,0.912,4.694,2.704c0.146,2.715-1.375,4.133-3.878,4.133h-2.351l-2.956,6.429h5.817c2.795,0,5.419,2.008,5.102,4.49
		C478.069,61.748,475.988,63.45,473.181,63.45 M474.507,70.696h-17.757V34.162h16.94c5.893,0,10.924,1.709,11.838,7.348
		c0.671,4.144-0.636,7.115-3.776,9.184c4.673,2.084,6.662,7.761,5.001,12.909C485.041,68.909,478.802,70.696,474.507,70.696z
		 M506.908,42.241c5.383,0,9.746,4.424,9.746,9.882c0,5.458-4.363,9.882-9.746,9.882c-5.383,0-9.746-4.424-9.746-9.882
		C497.162,46.665,501.526,42.241,506.908,42.241z M506.908,33.55c10.117,0,18.318,8.316,18.318,18.573
		c0,10.258-8.201,18.573-18.318,18.573c-10.117,0-18.318-8.316-18.318-18.573C488.59,41.865,496.791,33.55,506.908,33.55z
		 M453.077,34.162v36.534h-8.98V47.545l-5.874,23.151h-8.725l-5.607-22.852v22.852h-8.71V34.162h14.043l4.771,20.514l4.696-20.514
		H453.077z M402.562,34.162h8.878v36.534h-8.878V34.162z M386.234,63.45h-7.45V41.509h6.225c3.259,0,4.597,0.912,4.694,2.704
		c0.146,2.715-1.375,4.133-3.878,4.133h-2.351l-2.956,6.429h5.817c2.795,0,5.419,2.008,5.102,4.49
		C391.122,61.748,389.042,63.45,386.234,63.45z M387.561,70.696h-17.757V34.162h16.94c5.892,0,10.924,1.709,11.838,7.348
		c0.671,4.144-0.636,7.115-3.776,9.184c4.673,2.084,6.662,7.761,5.001,12.909C398.095,68.909,391.855,70.696,387.561,70.696z"/>
</g>
</svg>
