<?xml version="1.0" encoding="utf-8"?>
<!-- Generator: Adobe Illustrator 24.0.2, SVG Export Plug-In . SVG Version: 6.00 Build 0)  -->
<svg version="1.1" id="Layer_1" xmlns="http://www.w3.org/2000/svg" xmlns:xlink="http://www.w3.org/1999/xlink" x="0px" y="0px"
	 viewBox="0 0 16.9 16.9" style="enable-background:new 0 0 16.9 16.9;" xml:space="preserve">
<style type="text/css">
	.st0{fill:#6DA544;}
	.st1{fill:#FFDA44;}
	.st2{fill:#F0F0F0;}
	.st3{fill:#0052B4;}
</style>
<g>
	<circle class="st0" cx="8.5" cy="8.5" r="8.5"/>
	<polygon class="st1" points="8.5,3.3 15.4,8.5 8.5,13.6 1.5,8.5 	"/>
	<circle class="st2" cx="8.5" cy="8.5" r="2.9"/>
	<g>
		<path class="st3" d="M7,8.3c-0.5,0-1,0.1-1.5,0.2c0,1.6,1.3,2.9,2.9,2.9c1,0,1.9-0.5,2.4-1.3C10,9,8.6,8.3,7,8.3z"/>
		<path class="st3" d="M11.3,9c0-0.2,0.1-0.4,0.1-0.6c0-1.6-1.3-2.9-2.9-2.9c-1.2,0-2.3,0.7-2.7,1.8C6.2,7.2,6.6,7.2,7,7.2
			C8.7,7.2,10.2,7.9,11.3,9z"/>
	</g>
</g>
</svg>
