<?xml version="1.0" encoding="utf-8"?>
<!-- Generator: Adobe Illustrator 24.0.2, SVG Export Plug-In . SVG Version: 6.00 Build 0)  -->
<svg version="1.1" id="Layer_1" xmlns="http://www.w3.org/2000/svg" xmlns:xlink="http://www.w3.org/1999/xlink" x="0px" y="0px"
	 viewBox="0 0 16.9 16.9" style="enable-background:new 0 0 16.9 16.9;" xml:space="preserve">
<style type="text/css">
	.st0{fill:#D80027;}
	.st1{fill:#FFDA44;}
</style>
<g>
	<circle class="st0" cx="8.5" cy="8.5" r="8.5"/>
	<g>
		<polygon class="st1" points="4.6,5.1 5.4,7.4 7.7,7.4 5.8,8.8 6.5,11 4.6,9.6 2.7,11 3.4,8.8 1.5,7.4 3.9,7.4 		"/>
		<polygon class="st1" points="10,13.1 9.5,12.4 8.6,12.7 9.1,12 8.6,11.3 9.4,11.5 9.9,10.8 9.9,11.7 10.8,11.9 10,12.2 		"/>
		<polygon class="st1" points="11.1,11.1 11.4,10.2 10.7,9.7 11.6,9.7 11.8,8.9 12.1,9.7 13,9.7 12.3,10.2 12.6,11.1 11.8,10.6 		
			"/>
		<polygon class="st1" points="12.6,6.2 12.2,7 12.9,7.6 12,7.5 11.6,8.3 11.5,7.4 10.6,7.3 11.4,6.9 11.2,6 11.8,6.6 		"/>
		<polygon class="st1" points="10,3.8 10,4.7 10.8,5 9.9,5.2 9.9,6.1 9.4,5.4 8.6,5.6 9.1,4.9 8.7,4.1 9.5,4.5 		"/>
	</g>
</g>
</svg>
