<?xml version="1.0" encoding="utf-8"?>
<!-- Generator: Adobe Illustrator 24.0.2, SVG Export Plug-In . SVG Version: 6.00 Build 0)  -->
<svg version="1.1" id="Layer_1" xmlns="http://www.w3.org/2000/svg" xmlns:xlink="http://www.w3.org/1999/xlink" x="0px" y="0px"
	 viewBox="0 0 100 100" style="enable-background:new 0 0 100 100;" xml:space="preserve">
<style type="text/css">
	.st0{fill:#FFFFFF;}
</style>
<g>
	<path class="st0" d="M50,12c-20.9,0-38,17-38,38s17,38,38,38c20.9,0,38-17,38-38S70.9,12,50,12z M50,80.9C33,80.9,19.1,67,19.1,50
		S33,19.1,50,19.1S80.9,33,80.9,50S67,80.9,50,80.9z"/>
	<path class="st0" d="M65.6,35.8c-7.2,7.6-14.4,15.3-21.5,22.9c0,0,0,0-0.1,0.1c-3.2-3.2-6.4-6.4-9.7-9.7c-4.1-4.1-10.4,2.2-6.3,6.3
		c4.3,4.3,8.6,8.6,12.9,12.9c1.7,1.7,4.6,1.8,6.3,0c7.2-7.6,14.4-15.3,21.5-22.9c1-1.1,2.1-2.2,3.1-3.3
		C75.8,37.9,69.6,31.6,65.6,35.8z"/>
</g>
</svg>
