<?xml version="1.0" encoding="utf-8"?>
<!-- Generator: Adobe Illustrator 24.0.2, SVG Export Plug-In . SVG Version: 6.00 Build 0)  -->
<svg version="1.1" id="Layer_1" xmlns="http://www.w3.org/2000/svg" xmlns:xlink="http://www.w3.org/1999/xlink" x="0px" y="0px"
	 viewBox="0 0 100 100" style="enable-background:new 0 0 100 100;" xml:space="preserve">
<style type="text/css">
	.st0{fill:#FFFFFF;}
</style>
<g>
	<path class="st0" d="M50,12c-20.9,0-38,17-38,38c0,20.9,17,38,38,38c20.9,0,38-17,38-38C88,29.1,70.9,12,50,12z M50,80.9
		C33,80.9,19.1,67,19.1,50S33,19.1,50,19.1S80.9,33,80.9,50S67,80.9,50,80.9z"/>
	<path class="st0" d="M66.9,38.1c1.6-1.6,1.8-4.7,0-6.3c-1.8-1.6-4.5-1.8-6.3,0c-3.6,3.6-7.2,7.2-10.7,10.7
		c-2.4-2.4-4.8-4.8-7.3-7.3c-1.2-1.2-2.3-2.3-3.5-3.5c-1.6-1.6-4.7-1.8-6.3,0c-1.6,1.8-1.8,4.5,0,6.3c3.6,3.6,7.2,7.2,10.7,10.7
		c-2.4,2.4-4.8,4.8-7.3,7.3c-1.2,1.2-2.3,2.3-3.5,3.5c-1.6,1.6-1.8,4.7,0,6.3c1.8,1.6,4.5,1.8,6.3,0c3.6-3.6,7.2-7.2,10.7-10.7
		c2.4,2.4,4.8,4.8,7.3,7.3c1.2,1.2,2.3,2.3,3.5,3.5c1.6,1.6,4.7,1.8,6.3,0c1.6-1.8,1.8-4.5,0-6.3c-3.6-3.6-7.2-7.2-10.7-10.7
		c2.4-2.4,4.8-4.8,7.3-7.3C64.6,40.4,65.8,39.3,66.9,38.1z"/>
</g>
</svg>
