<?xml version="1.0" encoding="utf-8"?>
<!-- Generator: Adobe Illustrator 24.0.2, SVG Export Plug-In . SVG Version: 6.00 Build 0)  -->
<svg version="1.1" id="Layer_1" xmlns="http://www.w3.org/2000/svg" xmlns:xlink="http://www.w3.org/1999/xlink" x="0px" y="0px"
	 viewBox="0 0 16.9 16.9" style="enable-background:new 0 0 16.9 16.9;" xml:space="preserve">
<style type="text/css">
	.st0{fill:#F0F0F0;}
	.st1{fill:#D80027;}
	.st2{fill:#6DA544;}
	.st3{fill:#FF9811;}
</style>
<g>
	<circle class="st0" cx="8.5" cy="8.5" r="8.5"/>
	<path class="st1" d="M16.9,8.5c0-3.4-2-6.2-4.8-7.6v15.2C15,14.7,16.9,11.8,16.9,8.5z"/>
	<g>
		<path class="st2" d="M0,8.5c0,3.4,2,6.2,4.8,7.6V0.8C2,2.2,0,5.1,0,8.5z"/>
		<path class="st2" d="M6.3,8.5c0,1.2,1,2.2,2.2,2.2s2.2-1,2.2-2.2V7.7H6.3V8.5z"/>
	</g>
	<path class="st3" d="M11.4,7H9.2c0-0.4-0.3-0.7-0.7-0.7C8.1,6.3,7.7,6.6,7.7,7H5.5c0,0.4,0.4,0.7,0.8,0.7h0c0,0.4,0.3,0.7,0.7,0.7
		c0,0.4,0.3,0.7,0.7,0.7h1.5c0.4,0,0.7-0.3,0.7-0.7c0.4,0,0.7-0.3,0.7-0.7h0C11,7.7,11.4,7.4,11.4,7z"/>
</g>
</svg>
