<?xml version="1.0" encoding="utf-8"?>
<!-- Generator: Adobe Illustrator 24.0.3, SVG Export Plug-In . SVG Version: 6.00 Build 0)  -->
<svg version="1.1" id="Capa_1" xmlns="http://www.w3.org/2000/svg" xmlns:xlink="http://www.w3.org/1999/xlink" x="0px" y="0px"
	 viewBox="0 0 120 120" style="enable-background:new 0 0 120 120;" xml:space="preserve">
<style type="text/css">
	.st0{fill:#FFFFFF;}
</style>
<g>
	<g>
		<path class="st0" d="M86.63,115h-54.1c-6.3,0-11.42-5.13-11.42-11.43V16.42C21.11,10.12,26.24,5,32.54,5h54.1
			c2.87,0,6.85,0.59,9.56,3.39c1.89,1.96,2.8,4.62,2.69,7.92l-0.17,4.96l-0.65,82.32C98.01,109.88,92.89,115,86.63,115z M32.54,9.06
			c-4.06,0-7.37,3.3-7.37,7.37v87.15c0,4.07,3.3,7.37,7.37,7.37h54.1c4.03,0,7.34-3.31,7.37-7.39l0.65-82.37l0.17-5.01
			c0.07-2.19-0.43-3.81-1.55-4.97c-1.81-1.87-4.94-2.15-6.64-2.15H32.54z"/>
	</g>
	<g>
		<rect x="53.67" y="102.11" class="st0" width="11.84" height="4.06"/>
	</g>
	<g>
		<rect x="24.68" y="93.52" class="st0" width="69.25" height="4.06"/>
	</g>
	<g>
		<rect x="25.37" y="15.27" class="st0" width="69.25" height="4.06"/>
	</g>
</g>
<g>
	<path class="st0" d="M60,79L60,79c-8.69,0-16.38-5.22-19.59-13.31c-3.71-9.35-0.17-20.15,8.23-25.51l-2.61-6.56
		c-0.38-0.96-0.17-1.58,0.07-1.95c0.45-0.67,1.35-0.87,2.34-0.48l6.16,2.42c0.97,0.38,2.56,0.99,3.53,1.36l6.14,2.33
		c0.75,0.28,1.32,0.84,1.61,1.57c0.29,0.73,0.25,1.52-0.1,2.24l-2.88,5.91c-0.46,0.94-1.19,2.47-1.64,3.41l-2.83,5.98
		c-0.53,1.12-1.29,1.29-1.7,1.29c-0.35,0-1.22-0.14-1.72-1.41l-2.07-5.25c-2.67,2.74-3.54,6.86-2.1,10.49
		c1.49,3.77,5.08,6.21,9.14,6.21h0c1.24,0,2.46-0.23,3.62-0.7c5.04-2,7.51-7.72,5.52-12.76c-0.21-0.53,0.05-1.14,0.59-1.35l8.5-3.37
		c0.26-0.1,0.54-0.1,0.8,0.01c0.25,0.11,0.45,0.32,0.56,0.57c4.28,10.8-1.02,23.06-11.82,27.34C65.26,78.5,62.65,79,60,79z
		 M48.15,33.32l2.75,6.91c0.19,0.48,0,1.03-0.45,1.28c-8.06,4.67-11.55,14.73-8.11,23.41c2.89,7.28,9.82,11.99,17.65,11.99
		c2.39,0,4.74-0.45,6.99-1.34c9.41-3.73,14.18-14.18,11.01-23.66l-6.58,2.61c1.75,5.85-1.25,12.19-7.03,14.48
		c-1.41,0.56-2.88,0.84-4.39,0.84h0c-4.92,0-9.26-2.95-11.08-7.53c-1.95-4.93-0.38-10.62,3.83-13.85c0.26-0.2,0.6-0.26,0.91-0.18
		c0.31,0.09,0.57,0.32,0.69,0.62l2.43,6.16l2.61-5.52c0.45-0.95,1.19-2.49,1.65-3.44l2.88-5.91c0.09-0.19,0.1-0.39,0.03-0.56
		c-0.07-0.18-0.22-0.32-0.41-0.39l-6.14-2.33c-0.98-0.37-2.58-0.99-3.56-1.37L48.15,33.32z"/>
</g>
</svg>
