<?xml version="1.0" encoding="utf-8"?>
<!-- Generator: Adobe Illustrator 24.0.2, SVG Export Plug-In . SVG Version: 6.00 Build 0)  -->
<svg version="1.1" id="Layer_1" xmlns="http://www.w3.org/2000/svg" xmlns:xlink="http://www.w3.org/1999/xlink" x="0px" y="0px"
	 viewBox="0 0 180 180" style="enable-background:new 0 0 180 180;" xml:space="preserve">
<style type="text/css">
	.st0{fill:url(#SVGID_1_);}
	.st1{fill:url(#SVGID_2_);}
</style>
<linearGradient id="SVGID_1_" gradientUnits="userSpaceOnUse" x1="57.1709" y1="89" x2="136.8291" y2="89">
	<stop  offset="0" style="stop-color:#FFFFFF"/>
	<stop  offset="0.208" style="stop-color:#F6F6F6"/>
	<stop  offset="0.5537" style="stop-color:#DCDCDC"/>
	<stop  offset="0.9925" style="stop-color:#B3B3B3"/>
</linearGradient>
<path class="st0" d="M133.3,95.4l-64.6,40.4c-5,3.1-11.6-0.5-11.6-6.4V48.6c0-5.9,6.5-9.5,11.6-6.4l64.6,40.4
	C138,85.6,138,92.4,133.3,95.4z"/>
<linearGradient id="SVGID_2_" gradientUnits="userSpaceOnUse" x1="0" y1="90" x2="180" y2="90">
	<stop  offset="0" style="stop-color:#264AC2"/>
	<stop  offset="0.2938" style="stop-color:#2845B9"/>
	<stop  offset="0.7805" style="stop-color:#2C389F"/>
	<stop  offset="0.9944" style="stop-color:#2E3192"/>
</linearGradient>
<path class="st1" d="M90,0L90,0C40.3,0,0,40.3,0,90v0c0,49.7,40.3,90,90,90h0c49.7,0,90-40.3,90-90v0C180,40.3,139.7,0,90,0z
	 M125.2,94L75,125.5c-3.9,2.5-9-0.4-9-5V57.5c0-4.6,5.1-7.4,9-5L125.2,84C128.9,86.3,128.9,91.7,125.2,94z"/>
</svg>
