<?xml version="1.0" encoding="utf-8"?>
<!-- Generator: Adobe Illustrator 24.0.2, SVG Export Plug-In . SVG Version: 6.00 Build 0)  -->
<svg version="1.1" id="Layer_1" xmlns="http://www.w3.org/2000/svg" xmlns:xlink="http://www.w3.org/1999/xlink" x="0px" y="0px"
	 viewBox="0 0 99.7 199.3" style="enable-background:new 0 0 99.7 199.3;" xml:space="preserve">
<style type="text/css">
	.st0{fill:#EF003F;}
	.st1{fill:#292B76;}
</style>
<g>
	<path class="st0" d="M49.8,111.6c-20.9,0-38,17-38,38c0,20.9,17,38,38,38c20.9,0,38-17,38-38C87.8,128.7,70.7,111.6,49.8,111.6z
		 M49.8,180.5c-17,0-30.9-13.9-30.9-30.9s13.9-30.9,30.9-30.9s30.9,13.9,30.9,30.9S66.8,180.5,49.8,180.5z"/>
	<path class="st0" d="M66.7,137.7c1.6-1.6,1.8-4.7,0-6.3s-4.5-1.8-6.3,0c-3.6,3.6-7.2,7.2-10.7,10.7c-2.4-2.4-4.8-4.8-7.3-7.3
		c-1.2-1.2-2.3-2.3-3.5-3.5c-1.6-1.6-4.7-1.8-6.3,0c-1.6,1.8-1.8,4.5,0,6.3c3.6,3.6,7.2,7.2,10.7,10.7c-2.4,2.4-4.8,4.8-7.3,7.3
		c-1.2,1.2-2.3,2.3-3.5,3.5c-1.6,1.6-1.8,4.7,0,6.3s4.5,1.8,6.3,0c3.6-3.6,7.2-7.2,10.7-10.7c2.4,2.4,4.8,4.8,7.3,7.3
		c1.2,1.2,2.3,2.3,3.5,3.5c1.6,1.6,4.7,1.8,6.3,0s1.8-4.5,0-6.3c-3.6-3.6-7.2-7.2-10.7-10.7c2.4-2.4,4.8-4.8,7.3-7.3
		C64.4,140,65.6,138.9,66.7,137.7z"/>
</g>
<g>
	<path class="st1" d="M49.8,11.8c-20.9,0-38,17-38,38c0,20.9,17,38,38,38c20.9,0,38-17,38-38C87.8,28.9,70.7,11.8,49.8,11.8z
		 M49.8,80.7c-17,0-30.9-13.9-30.9-30.9s13.9-30.9,30.9-30.9s30.9,13.9,30.9,30.9S66.8,80.7,49.8,80.7z"/>
	<path class="st1" d="M66.7,37.9c1.6-1.6,1.8-4.7,0-6.3s-4.5-1.8-6.3,0c-3.6,3.6-7.2,7.2-10.7,10.7c-2.4-2.4-4.8-4.8-7.3-7.3
		c-1.2-1.2-2.3-2.3-3.5-3.5c-1.6-1.6-4.7-1.8-6.3,0c-1.6,1.8-1.8,4.5,0,6.3c3.6,3.6,7.2,7.2,10.7,10.7c-2.4,2.4-4.8,4.8-7.3,7.3
		c-1.2,1.2-2.3,2.3-3.5,3.5c-1.6,1.6-1.8,4.7,0,6.3c1.8,1.6,4.5,1.8,6.3,0c3.6-3.6,7.2-7.2,10.7-10.7c2.4,2.4,4.8,4.8,7.3,7.3
		c1.2,1.2,2.3,2.3,3.5,3.5c1.6,1.6,4.7,1.8,6.3,0c1.6-1.8,1.8-4.5,0-6.3c-3.6-3.6-7.2-7.2-10.7-10.7c2.4-2.4,4.8-4.8,7.3-7.3
		C64.4,40.2,65.6,39.1,66.7,37.9z"/>
</g>
</svg>
