<?xml version="1.0" encoding="utf-8"?>
<!-- Generator: Adobe Illustrator 24.0.2, SVG Export Plug-In . SVG Version: 6.00 Build 0)  -->
<svg version="1.1" id="Layer_1" xmlns="http://www.w3.org/2000/svg" xmlns:xlink="http://www.w3.org/1999/xlink" x="0px" y="0px"
	 viewBox="0 0 16.9 16.9" style="enable-background:new 0 0 16.9 16.9;" xml:space="preserve">
<style type="text/css">
	.st0{fill:#F0F0F0;}
	.st1{fill:#D80027;}
	.st2{fill:#0052B4;}
</style>
<g>
	<circle class="st0" cx="8.5" cy="8.5" r="8.5"/>
	<g>
		<path class="st1" d="M8.1,8.5h8.8c0-0.8-0.1-1.5-0.3-2.2H8.1V8.5z"/>
		<path class="st1" d="M8.1,4h7.6c-0.5-0.8-1.2-1.6-2-2.2H8.1V4z"/>
		<path class="st1" d="M8.5,16.9c2,0,3.8-0.7,5.3-1.8H3.2C4.6,16.2,6.5,16.9,8.5,16.9z"/>
		<path class="st1" d="M1.2,12.9h14.4c0.4-0.7,0.7-1.4,0.9-2.2H0.3C0.5,11.4,0.8,12.2,1.2,12.9z"/>
	</g>
	<path class="st2" d="M3.9,1.3h0.8L4,1.8l0.3,0.8L3.5,2.2L2.8,2.7L3,2C2.4,2.5,1.9,3.1,1.4,3.8h0.2L1.2,4.1C1.1,4.2,1.1,4.4,1,4.5
		l0.2,0.7L0.8,4.9C0.7,5.1,0.6,5.3,0.5,5.5l0.2,0.7h0.9L0.9,6.8l0.3,0.8L0.5,7.1L0.1,7.4C0,7.7,0,8.1,0,8.5h8.5c0-4.7,0-5.2,0-8.5
		C6.8,0,5.2,0.5,3.9,1.3z M4.2,7.6L3.5,7.1L2.8,7.6l0.3-0.8L2.4,6.2h0.9l0.3-0.8l0.3,0.8h0.9L4,6.8L4.2,7.6z M4,4.3l0.3,0.8L3.5,4.6
		L2.8,5.1l0.3-0.8L2.4,3.8h0.9l0.3-0.8l0.3,0.8h0.9L4,4.3z M7.3,7.6L6.6,7.1L5.8,7.6l0.3-0.8L5.4,6.2h0.9l0.3-0.8l0.3,0.8h0.9L7,6.8
		L7.3,7.6z M7,4.3l0.3,0.8L6.6,4.6L5.8,5.1l0.3-0.8L5.4,3.8h0.9l0.3-0.8l0.3,0.8h0.9L7,4.3z M7,1.8l0.3,0.8L6.6,2.2L5.8,2.7l0.3-0.8
		L5.4,1.3h0.9l0.3-0.8l0.3,0.8h0.9L7,1.8z"/>
</g>
</svg>
